<?xml version="1.0" encoding="UTF-8" standalone="no"?>
<svg
   xmlns:dc="http://purl.org/dc/elements/1.1/"
   xmlns:cc="http://creativecommons.org/ns#"
   xmlns:rdf="http://www.w3.org/1999/02/22-rdf-syntax-ns#"
   xmlns:svg="http://www.w3.org/2000/svg"
   xmlns="http://www.w3.org/2000/svg"
   xmlns:sodipodi="http://sodipodi.sourceforge.net/DTD/sodipodi-0.dtd"
   xmlns:inkscape="http://www.inkscape.org/namespaces/inkscape"
   width="1177.7566mm"
   height="854.09106mm"
   viewBox="0 0 1177.7566 854.09106"
   version="1.1"
   id="svg1952"
   inkscape:version="1.0.1 (3bc2e813f5, 2020-09-07)"
   sodipodi:docname="landing.svg">
  <defs
     id="defs1946">
    <clipPath
       id="clipPath28"
       clipPathUnits="userSpaceOnUse">
      <path
         id="path26"
         d="M 7320,60 H 1801.53 c 3.69,12.2695 7.18,24.6016 10.47,37 11.61,43.809 20.14,87.469 25.78,130.891 h 5197.88 c 67.66,0 122.51,54.847 122.51,122.5 V 1770.97 c 68.99,69.5 124.65,152.54 161.83,243.2 V 60 M 260,1619.04 V 4860 h 5465.85 c -8.04,-28.96 -14.95,-58.3 -20.74,-87.88 H 464.328 c -67.652,0 -122.496,-54.85 -122.496,-122.51 V 1624.69 c -27.383,-1.03 -54.668,-2.9 -81.832,-5.65 m 7060,877.94 c -36.9,88.48 -92.77,169.9 -161.83,239.91 v 448.7 c 54.94,5.12 108.99,14.53 161.83,27.84 v -716.45" />
    </clipPath>
    <clipPath
       id="clipPath40"
       clipPathUnits="userSpaceOnUse">
      <path
         id="path38"
         d="M 1801.53,60 H 260 v 1559.04 c 27.164,2.75 54.449,4.62 81.832,5.65 V 350.391 c 0,-67.653 54.844,-122.5 122.496,-122.5 H 1837.78 C 1832.14,184.469 1823.61,140.809 1812,97 c -3.29,-12.3984 -6.78,-24.7305 -10.47,-37" />
    </clipPath>
    <clipPath
       id="clipPath52"
       clipPathUnits="userSpaceOnUse">
      <path
         id="path50"
         d="m 7158.17,3185.59 v 1464.02 c 0,67.66 -54.85,122.51 -122.51,122.51 H 5705.11 c 5.79,29.58 12.7,58.92 20.74,87.88 H 7320 V 3213.43 c -52.84,-13.31 -106.89,-22.72 -161.83,-27.84" />
    </clipPath>
    <clipPath
       id="clipPath64"
       clipPathUnits="userSpaceOnUse">
      <path
         id="path62"
         d="m 7158.17,1770.97 v 965.92 c 69.06,-70.01 124.93,-151.43 161.83,-239.91 v -482.81 c -37.18,-90.66 -92.84,-173.7 -161.83,-243.2" />
    </clipPath>
  </defs>
  <sodipodi:namedview
     id="base"
     pagecolor="#ffffff"
     bordercolor="#666666"
     borderopacity="1.0"
     inkscape:pageopacity="0.0"
     inkscape:pageshadow="2"
     inkscape:zoom="5.6"
     inkscape:cx="2237.7893"
     inkscape:cy="1885.4846"
     inkscape:document-units="mm"
     inkscape:current-layer="g12"
     inkscape:document-rotation="0"
     showgrid="false"
     fit-margin-top="0"
     fit-margin-left="0"
     fit-margin-right="0"
     fit-margin-bottom="0"
     inkscape:window-width="1920"
     inkscape:window-height="1027"
     inkscape:window-x="-8"
     inkscape:window-y="-8"
     inkscape:window-maximized="1" />
  <metadata
     id="metadata1949">
    <rdf:RDF>
      <cc:Work
         rdf:about="">
        <dc:format>image/svg+xml</dc:format>
        <dc:type
           rdf:resource="http://purl.org/dc/dcmitype/StillImage" />
        <dc:title />
      </cc:Work>
    </rdf:RDF>
  </metadata>
  <g
     inkscape:label="Layer 1"
     inkscape:groupmode="layer"
     id="layer1"
     transform="translate(-374.01548,-276.17523)">
    <g
       transform="matrix(0.25804231,0,0,-0.2572254,-252.4881,1258.4088)"
       id="g12">
      <g
         id="g22">
        <g
           clip-path="url(#clipPath28)"
           id="g24">
          <g
             transform="matrix(7080.2,0,0,4820.2,249.9,49.8997)"
             id="g30" />
        </g>
      </g>
      <g
         id="g34">
        <g
           clip-path="url(#clipPath40)"
           id="g36">
          <g
             transform="matrix(1600.2,0,0,1580.2,249.9,49.9)"
             id="g42" />
        </g>
      </g>
      <g
         id="g46">
        <g
           clip-path="url(#clipPath52)"
           id="g48">
          <g
             transform="matrix(1630.2,0,0,1690.2,5699.9,3179.9)"
             id="g54" />
        </g>
      </g>
      <g
         id="g58">
        <g
           clip-path="url(#clipPath64)"
           id="g60">
          <g
             transform="matrix(180.2,0,0,990.2,7149.9,1759.9)"
             id="g66" />
        </g>
      </g>
      <g
         transform="scale(10)"
         id="g76" />
      <g
         transform="scale(10)"
         id="g116" />
      <g
         transform="scale(10)"
         id="g122" />
      <g
         transform="scale(10)"
         id="g128" />
      <g
         transform="scale(10)"
         id="g140" />
      <path
         id="path146"
         style="fill:#ffeff5;fill-opacity:0.63265306;fill-rule:nonzero;stroke:none"
         d="m 3796.23,877.031 c -38.74,0 -77.41,1.871 -115.98,5.528 l 8.9,325.191 261.25,3.98 18.82,-253.492 v 0 l 5,-67.347 c -28.61,-4.621 -57.52,-8.082 -86.66,-10.34 -10.52,-0.821 -21.04,-1.492 -31.55,-2.02 -19.93,-1.011 -39.85,-1.5 -59.78,-1.5 m -196.51,15.789 c -418.11,66.809 -808.53,339.7 -1011.57,707.4 -2.58,4.74 -5.15,9.49 -7.72,14.23 -252.03,471.03 -203.46,1122.85 233.88,1469.03 204.58,161.93 453.19,231.89 706.34,231.89 309.69,0 626.15,-104.74 876.84,-273.91 193.94,-130.87 355.27,-307.39 457.52,-509.74 -15.98,14.56 -33.8,27.99 -53.6,40.3 -34.72,21.57 -105.32,60.8 -145.97,68.49 -2.9,0.55 -5.5,0.8 -7.81,0.8 -10.94,0 -15.58,-5.61 -15.58,-12.27 -0.01,-8.41 7.41,-18.47 18.92,-20.92 l -6.18,0.73 c -1.43,4.99 -31.98,7.13 -53.06,7.13 -8.27,0 -15.07,-0.33 -18.1,-0.94 -36.82,-7.47 -44.96,-29.23 -47.33,-64.43 -0.18,-2.63 -0.26,-5.28 -0.26,-7.96 0.03,-21.62 5.67,-44.71 13.01,-65.4 -9.67,-12.73 -18.7,-26.11 -26.74,-40.69 -31.91,-57.91 -55.63,-121.2 -79.8,-182.61 -3.52,-8.95 -7,-17.91 -10.45,-26.88 -0.76,0.32 -1.53,0.63 -2.3,0.93 -19.56,7.6 -43.68,10.42 -65.98,10.42 -6.96,0 -13.74,-0.28 -20.16,-0.76 -13.21,-1.01 -25.16,-3.76 -37.57,-9.18 -8.57,-3.75 -21.66,-17.6 -28.74,-17.6 -0.3,0 -0.6,0.02 -0.87,0.08 l -0.16,-8.35 c -0.14,-0.15 -0.27,-0.32 -0.37,-0.53 -0.38,-0.74 -0.76,-1.47 -1.13,-2.2 -5.59,27.75 -16.64,53.99 -43.76,66.24 -17.85,8.08 -36.16,12.46 -55,12.46 -6.71,0 -13.48,-0.56 -20.33,-1.7 -33.73,-5.64 -44.58,-23.24 -65.54,-47.56 -18.78,-21.81 -39.79,-40.29 -61.41,-59.82 v 0 0 c 13.15,8.34 39.06,15.66 63.13,15.66 22.37,0 43.14,-6.32 50.6,-24.02 -11.76,1.02 -22.55,1.93 -33.31,1.93 -10.61,0 -21.18,-0.89 -32.62,-3.45 -32.86,-7.37 -49.03,-11.7 -53.06,-45.76 -2.68,-22.59 -2.91,-44.71 -2.91,-66.75 0,-4.51 0.01,-9.02 0.01,-13.52 0,-17.86 -0.15,-35.7 -1.63,-53.73 v 0 0 c 13.75,21.72 47.1,78.46 79.99,78.46 8.84,0 17.64,-4.09 26.01,-14.05 -25.37,-35.53 -69.85,-67.01 -80.46,-111.31 -1.03,-4.29 -1.5,-8.95 -1.5,-13.87 0.01,-12.03 2.88,-25.66 7.57,-39.51 -22.03,9.25 -45.78,14.06 -69.82,14.06 -8.6,0 -17.23,-0.61 -25.84,-1.86 l -343.8,-95.01 -28.29,115.54 c 6.82,-8.8 15.38,-15.9 24.99,-21.09 0.04,-0.02 0.08,-0.04 0.13,-0.07 0.01,0 0.03,-0.02 0.05,-0.02 7.64,-4.11 15.95,-7.01 24.57,-8.59 0.07,-0.01 0.13,-0.02 0.2,-0.03 0.01,-0.01 0.03,-0.01 0.05,-0.01 5,-0.9 10.1,-1.37 15.24,-1.37 3.15,0 6.33,0.18 9.49,0.53 l 153.78,17.81 57.26,6.63 0.36,0.09 7,59.53 h -0.55 l -214.57,29.99 c -5.64,8.1 -11.18,16.18 -16.73,24.37 -3,4.54 -5.99,8.99 -8.99,13.53 -52.26,79.8 -96.61,164.23 -132.42,253.58 -11.45,28.44 -29.63,53.98 -54.26,71.7 l -1.09,0.64 c -5.99,4.24 -12.29,7.88 -18.83,10.93 1.58,2.74 2.47,5.62 1.88,8.82 -0.69,3.66 -3.3,6.63 -5.92,9.29 -1.84,1.87 -3.79,3.7 -5.85,5.49 1.25,13.6 3.01,27.14 5.06,40.48 10,65.09 26.22,130.4 19.82,195.94 -6.41,65.54 -41.64,133.57 -103.61,155.85 l -14.7,-7.35 c -19.84,9.97 -42.92,15.01 -65.73,15.01 -18.84,0 -37.49,-3.44 -53.99,-10.37 -42.33,-17.77 -56.95,-53.76 -55.63,-92.4 l -49.08,-24.56 c 9.35,-78.26 20.06,-138.66 -23.04,-204.65 -27.85,-42.65 -73.36,-70.69 -104.88,-110.72 -0.78,-0.99 -1.55,-1.99 -2.31,-2.99 l -219.89,-3.35 v 0 c -45.07,-0.69 -79.71,-45.5 -79.71,-98.32 0,-5.71 0.41,-11.52 1.25,-17.38 50.99,-354.46 128.6,-683.14 240.21,-978.87 13.33,-35.33 42.44,-57.89 74.23,-57.89 0.34,0 0.67,0.01 1.02,0.01 l 23.58,0.36 79.68,1.21 512.85,7.81 c 5.84,0.09 11.52,0.93 16.99,2.44 l -11,-311.5 m 816.66,172.37 12.21,183.62 10.27,51.61 c 0,0.01 0.01,0.02 0.01,0.03 l 3.53,17.79 h -128.86 l -6.64,16.52 c -0.9,26.68 -9.97,50.76 -24.21,68.69 0.75,7.46 1.6,14.92 2.54,22.37 l 180.29,-123.34 123.99,-84.75 c 0,0 0.48,-5.55 2.07,-13.36 -54.2,-51.56 -112.86,-98.25 -175.2,-139.18 m 252.06,218.9 -94.08,91.68 -242.47,236.38 c 6.25,16.71 12.98,33.21 20.13,49.46 34.22,77.7 78.18,135.39 146.26,185.83 25.79,19.11 54.37,34.89 83.47,43.42 -36.16,-21.63 -63.16,-63.92 -65.79,-105.64 -0.18,-2.84 -0.27,-5.79 -0.27,-8.81 0.01,-17.91 3.31,-38.52 11.1,-53.77 9.51,-18.66 18.17,-45.27 34.49,-59.25 1.92,7.28 2.37,15.05 2.37,22.98 0,6.9 -0.33,13.92 -0.33,20.87 0,5.74 0.23,11.43 1.07,16.96 1.67,11.13 2.43,20.03 14.68,22.2 1.08,0.19 2.18,0.28 3.28,0.28 7.93,0 16.1,-4.78 18.96,-12.14 1.11,-2.85 1.57,-6.08 1.57,-9.52 0.01,-13.19 -6.76,-29.51 -10.23,-39.47 -2.62,-7.49 -3.98,-13.97 -3.99,-19.69 -0.02,-13.81 7.84,-23.19 24.98,-31.59 19.54,-9.58 35.19,-15.47 56.96,-18.57 v 0 0 0 0 0 0 c -8.88,12.94 -12.94,31.42 -12.96,47.91 0,3.06 0.14,6.05 0.41,8.92 0.97,10.24 8.21,39.4 22.14,39.4 1.24,0 2.54,-0.23 3.89,-0.73 6.89,-2.54 8.26,-11.86 8.26,-21.92 0,-6.58 -0.58,-13.47 -0.58,-18.99 0,-2.66 0.14,-5.01 0.54,-6.84 7.9,-36.39 46.99,-55.93 81.27,-58.2 2.76,10.36 4.49,22.05 4.49,33.52 0,8.24 -0.88,16.36 -2.9,23.81 -1.92,7.06 -15.72,26.25 -15.72,38.18 0,4.44 1.92,7.88 7.08,9.31 0.59,0.16 1.19,0.24 1.78,0.24 11.8,0 25.23,-30.89 35.76,-60.67 10.77,-30.42 31.28,-56.27 58.25,-73.49 -50.59,-105.69 -116.27,-204.26 -193.87,-292.06 m -399.9,146.08 -3.92,9.75 4.79,-3.28 c -0.3,-2.16 -0.59,-4.31 -0.87,-6.47 m 49.63,195.35 -34.04,33.18 c -2.77,7.84 -6.99,14.71 -12.23,20.15 14.47,60.4 31.68,120.11 49.58,180.19 5.96,19.99 12,39.95 18.14,59.89 -2.02,-12.48 -5,-24.89 -5.81,-37.41 v 0 0 c 28.27,16.59 60.78,27.35 67.52,62.81 1.83,9.64 2.64,20.04 2.65,30.57 0.01,15.64 -1.76,31.53 -4.6,45.53 -2.3,11.24 -4.25,24.48 -9.13,35.01 -1.06,2.3 -2.66,4.59 -4.44,6.85 3.48,10.28 6.99,20.55 10.55,30.81 17.19,-8.64 35.92,-40.11 38.58,-50.32 1.77,-6.79 2.36,-13.49 2.36,-20.15 0.01,-13.05 -2.23,-25.93 -2.24,-39.02 0,-3.02 0.12,-6.06 0.41,-9.12 24.19,27.5 45,59.48 53.73,94.79 3,12.12 4.52,24.8 4.53,37.52 0.02,42.61 -16.95,85.7 -52.36,109.84 22.23,58.32 45.61,116.38 71.83,172.95 10.77,23.21 23.12,43.62 36.65,62.74 12.15,-22.1 34.9,-51.96 54.47,-56.24 0.33,2.23 0.48,4.56 0.48,6.99 -0.03,20.77 -11.21,48.41 -11.19,72.16 0.02,12.95 3.37,24.75 13.68,33.63 42.51,-27.78 41.85,-68.26 43.22,-115.19 0.02,-0.77 0.03,-1.51 0.03,-2.23 0,-4.59 -0.38,-8.05 -0.39,-10.96 0,-4.92 1.09,-8.26 7.02,-12.81 5.14,-3.96 23.94,-8.43 30.88,-10.73 4.5,-1.49 8.27,-2.17 11.43,-2.17 16.33,0 16.62,18.19 18.47,37.72 0.46,4.85 0.65,9.68 0.65,14.49 0.01,21.27 -3.61,42.22 -3.61,63.46 0,1.28 0.01,2.56 0.04,3.85 23.39,-24.91 41.37,-36.52 45.82,-73.08 1.04,-8.54 1.58,-17.66 1.58,-26.96 0,-18.04 -1.99,-36.74 -6.14,-53.09 v 0 0 c 22.67,-12.61 43.75,-26.8 66.08,-40.11 14.03,28.42 7.58,65.48 21.11,91.51 25.96,-21.14 26.7,-46.02 26.7,-72.56 0,-1.6 -0.01,-3.2 -0.01,-4.81 0,-9.16 0.09,-18.49 1.25,-27.91 2.07,-16.77 20.48,-33.44 32.73,-47.69 16.99,-19.76 24.15,-39.8 36.61,-62.31 9.16,16.95 15.85,34.31 20.32,51.91 22.03,-136.44 17.03,-278.76 -21.05,-422.49 -1.34,-5.07 -2.71,-10.1 -4.12,-15.14 -10.36,14.84 -24.65,27.77 -36.53,36.68 -26.45,19.87 -59,28.62 -89.67,39.99 -4.58,1.7 -9.26,3.45 -13.08,6.51 -5.2,4.14 -7.45,9.94 -7.45,15.91 -0.01,10.47 6.89,21.46 16.87,24.96 3.07,1.08 6.28,1.58 9.5,1.58 7.14,0 14.36,-2.44 20.33,-6.46 14.74,-9.91 33.8,-54.2 55.6,-54.2 1.38,0 2.78,0.18 4.18,0.56 6.43,1.73 8.46,8.18 8.46,15.76 0.01,10.07 -3.55,22.13 -5.14,27.82 v 0 c -11.53,41.49 -57.07,67.73 -92.81,86.86 v 0 0 c -23.82,12.74 -47.38,21.99 -72.72,21.99 -8.93,0 -18.08,-1.14 -27.54,-3.69 -25.67,-6.9 -60.48,-35.94 -60.52,-66.06 0,-1.74 0.11,-3.49 0.35,-5.23 -6.63,0.92 -13.31,1.36 -20.02,1.36 -100.51,0 -208.23,-99 -255.67,-181.14 -19.98,-34.59 -37.3,-71.34 -51.88,-109.25 m -67.03,67.9 c 5.29,50.77 9.24,101.46 11.83,152.71 18.88,8.72 34.59,20.79 40.51,43.99 2.71,10.67 4.5,23.9 4.5,37.43 -0.01,24.75 -6.01,50.53 -23.24,63.58 6.27,5.34 12.3,7.58 17.94,7.58 13.18,0 24.18,-12.28 30.97,-25.9 -7.42,-23.45 -14.69,-46.96 -21.82,-70.5 -20.96,-69.15 -43.39,-138.53 -60.69,-208.89 m 660.98,2.84 c -0.57,0.32 -1.15,0.64 -1.74,0.96 -11.79,6.38 -51.2,18.71 -51.13,36.83 0.01,0.66 0.06,1.33 0.17,2 1.24,7.49 6.28,10.13 12.63,10.13 11.01,0 25.94,-7.93 31.73,-12.23 4.71,-3.5 9.83,-11.22 15.1,-17.99 -2.2,-6.6 -4.45,-13.15 -6.76,-19.7 m -680.55,13.68 -113.22,110.37 c 11.59,10.52 23.82,19.48 41.9,24.07 v 0 0 c -0.19,1.73 -0.28,3.64 -0.28,5.72 0.04,28.25 17.63,85.21 46.32,85.21 2.64,0 5.37,-0.48 8.19,-1.51 17.28,-6.3 22.84,-21.9 22.84,-39.72 0,-22.04 -8.49,-47.48 -13.84,-63.01 v 0 0 c 5.84,2.22 11.78,4.29 17.66,6.41 -0.14,-3.19 -0.27,-6.37 -0.39,-9.55 -1.46,-39.52 -4.88,-78.8 -9.18,-117.99 m 435.46,201.37 c -2.44,0.28 -4.85,0.44 -7.25,0.55 -0.11,0.03 -0.24,0.06 -0.35,0.09 l 1.32,0.1 c 2.09,-0.25 4.18,-0.49 6.28,-0.74 M 4266.1,2192.7 c -0.05,0.3 -0.1,0.6 -0.15,0.9 0.06,0.11 0.12,0.23 0.18,0.34 l -0.03,-1.24" />
      <path
         id="path148"
         style="fill:#ffeff5;fill-opacity:0.63265306;fill-rule:nonzero;stroke:none"
         d="m 6089.32,980.559 c -5.06,0 -10.15,0.043 -15.21,0.132 l 5.58,168.759 401.11,-6.1 58.45,-0.9 7.39,-28.91 C 6409.92,1023.09 6250.45,980.559 6089.32,980.559 m -92.78,4.66 c -13.03,1.301 -26.04,2.883 -39.02,4.722 l -6.03,163.509 c 5.31,-1.42 10.82,-2.21 16.48,-2.3 l 33.33,-0.5 -4.76,-165.431 m -119.26,19.621 c -124.47,28.59 -244.23,81.94 -349.1,157.42 l 344.76,-5.25 4.34,-152.17 m 784.89,202.39 c 33.18,88.55 63.33,180.03 90.65,274.25 8.09,4.63 13.25,15.4 11.7,26.97 -0.34,2.58 -1.01,5.02 -1.94,7.26 58.52,208.47 103.48,430.08 136.95,662.82 0.84,5.85 1.25,11.66 1.25,17.38 0,52.81 -34.64,97.63 -79.71,98.31 v 0 l -556.22,8.47 c -16.13,20.94 -34.48,40.3 -54.82,57.73 l -26.86,23.04 c -1.25,1.1 -2.5,2.2 -3.81,3.23 l -5.65,4.91 -0.44,-0.14 c -18.48,-7.84 -38.37,-14.94 -58.67,-22.07 l -16.45,77.94 c 0,0 114.41,41.79 80.26,183.77 0,0 -30.56,113.28 -142.79,113.28 -31.27,0 -68.88,-8.8 -113.93,-31.28 0,0 -59.47,-28.36 -49.34,-131.55 l -37.75,-45.8 c 0,0 -5.69,-8.14 9.99,-24.18 l 9.9,-8.11 12.51,-41.95 c 0.31,-2.76 0.49,-5.42 0.57,-8.13 0.41,-9.72 4.28,-43.03 38.03,-43.63 l 44.17,5.76 11.24,1.49 c 0,0 15.67,-47.93 27.5,-101.42 -20.91,-12.91 -39.31,-28.24 -53.55,-47.39 l -0.23,-0.31 c -10.56,-14.22 -16.39,-31.28 -17.64,-48.86 l -139.65,-255.56 -305.36,-135.53 v 0 l -84.07,-37.31 -37.75,10.2 c -7.2,1.95 -14.57,2.89 -21.93,2.89 -10.47,0 -20.94,-1.89 -30.94,-5.44 -21.77,-7.63 -41.08,-9.54 -54.95,-9.54 -13.91,0 -22.36,1.93 -22.36,1.93 1.13,-19.68 22.9,-23.89 41.35,-23.89 13.82,0 25.78,2.36 25.78,2.36 l 16.86,-22.7 -35.93,-42.69 c -43.72,-24.49 -67.23,-41.84 -79.2,-54.09 -152.64,588.63 321.86,1304.57 959.98,1304.57 85.28,0 173.51,-12.8 263.52,-40.39 721.65,-221.21 721.15,-1243.18 249.73,-1706.6 M 5313.1,1379.14 c -39.21,56.3 -70.37,115.61 -94.07,176.89 -9.01,23.32 -16.94,46.92 -23.83,70.76 l 75.89,46.86 10.86,-13.57 c -108.77,-72.04 -65.6,-77.43 -65.6,-77.43 l 79.61,62.11 7.68,-6.75 c -16.95,-7.58 -29.4,-27.25 -29.75,-50.81 -0.03,-1.87 0.02,-3.71 0.14,-5.53 -16.38,-29.33 -7.68,-33.34 -1.7,-33.34 2.25,0 4.11,0.57 4.11,0.57 l 4.71,7.45 c 7.87,-14.66 21.4,-24.42 36.91,-24.66 l 107.11,-1.62 -6.7,-76.6 c -16.25,-9.51 -27.28,-26.51 -28.6,-45.92 -0.49,-7.36 -1.25,-15.2 -2.23,-23.48 l -45.59,0.7 c -0.37,0 -0.73,0 -1.1,0 -9.73,0 -19.1,-1.98 -27.85,-5.63 m 190.05,102.41 1.44,29.65 85.73,-2.36 c -31.99,-10 -62.06,-19.41 -87.17,-27.29 m 317.16,98.41 -455.38,56.03 3.54,7.85 c 62.25,48.83 63.62,98.61 63.62,98.61 l 64.91,14.93 v -0.01 l 316.56,72.8 v 0 c 42.26,21.38 79.76,51.07 110.26,87.29 0.48,0.58 0.96,1.15 1.44,1.73 l 4.73,7.44 -9.03,-240.81 c -16.83,1.96 -35.01,3.33 -52.81,3.33 -23.89,0 -47.11,-2.48 -65.47,-9.36 -1.83,-0.64 -3.55,-1.55 -5,-2.37 -10.64,-6.36 -16,-18.53 -13.73,-30.16 0.54,-3.55 1.91,-7.01 4,-10.19 3.27,-4.9 7.81,-9.99 14.08,-15.09 v 0 0 l 2.28,-1.81 0.63,-0.64 c -0.38,0 -2.26,0.91 -2.47,0.91 -0.02,0 -0.03,0 -0.02,-0.01 0,-0.05 0.28,-0.25 1.04,-0.71 l 0.18,-0.1 c 0,0 0.82,-7.09 4.27,-14.17 v 0 0 c 3.37,-6.91 9.28,-13.82 19.54,-14.09 v 0 c 0.41,-0.05 0.86,-0.07 1.33,-0.07 0.47,0 0.95,0.02 1.4,0.07 l 0.09,-0.19 c 0.5,-0.73 2.33,-3.48 5.71,-6.49 -4.84,-1.45 -10.08,-3.02 -15.7,-4.72" />
      <path
         id="path150"
         style="fill:#ffeff5;fill-opacity:0.63137257;fill-rule:nonzero;stroke:none"
         d="m 4802.84,498.172 c -1209.1,0 -2189.26,54.437 -2189.26,121.578 0,42.32 389.37,79.59 980.07,101.371 l -2.25,-63.781 c -0.47,-12.758 9.75,-23.36 22.53,-23.36 h 37.19 c 12.42,0 22.58,9.872 22.93,22.282 l 1.86,67.738 c 98.55,3.301 202.2,6.172 310.06,8.582 l 5.07,-68.34 c 2.91,-17.183 20.91,-30.262 41.36,-30.262 h 89.85 v 0 h 68.94 v 0 h 157.57 c 19.99,0 37.63,12.532 40.9,29.352 l 5.04,75.887 c 11.13,0.121 22.31,0.23 33.49,0.332 l 18.79,-28.942 c 0,0 -24.46,-76.66 28.79,-76.66 1.26,0 2.57,0.039 3.93,0.133 l 254.84,16.727 c 9,0.64 19.82,3.82 22.44,12.453 12.37,40.988 -210.49,75.617 -210.49,75.617 l -0.65,1.621 c 84.29,0.551 170.07,0.832 257,0.832 121.62,0 240.95,-0.551 357.18,-1.613 -45.94,-33.918 -105.39,-57.098 -178.76,-69.227 -31.64,-9.742 0,-53.562 0,-53.562 h 413.85 c 0.4,0.968 0.77,1.941 1.13,2.902 h 43.2 c 12.24,0 22.32,9.609 22.91,21.828 l 4.57,93.969 c 146.75,-2.59 286.82,-6.02 418.34,-10.18 l 2.38,-83.328 c 0.35,-12.41 10.51,-22.289 22.93,-22.289 h 37.19 c 12.78,0 23,10.609 22.53,23.367 l -2.93,79.52 c 7.21,-0.25 14.45,-0.508 21.61,-0.77 l -2.26,-78.508 c -0.37,-12.929 10.01,-23.609 22.93,-23.609 h 30.33 c 12.37,0 22.52,9.816 22.93,22.18 l 2.55,77.07 c 235.45,-9.242 436.65,-21.012 590.75,-34.59 l 12.1,-47.39 c 2.6,-10.161 11.74,-17.27 22.23,-17.27 h 32.32 c 15.04,0 26.01,14.227 22.18,28.77 l -7.39,28.089 c 162.43,-16.992 254.47,-36.371 254.47,-56.941 0,-67.141 -980.17,-121.578 -2189.27,-121.578" />
      <path
         id="path156"
         style="fill:#fcd9e6;fill-opacity:1;fill-rule:nonzero;stroke:none"
         d="m 4263.57,2063.12 c -2.71,-66.15 3.17,-132.71 0.23,-199.35 -3.65,-82.68 -10.85,-163.68 -21.48,-245.79 -10.48,-80.97 -21.15,-161.85 -32.68,-242.68 -5.81,-40.74 -11.03,-81.53 -16.37,-122.33 -1.58,-12.11 -20.75,-79.43 -12.13,-90.65 8.56,-11.12 -8.54,-24.63 -17.12,-13.49 -9.03,11.75 -4.07,27.68 -2.24,41.22 5.22,38.87 11.15,77.65 16.31,116.55 11.7,88.33 25.46,176.37 36.41,264.8 10.58,85.44 23.06,170.4 26.25,256.53 1.66,44.76 5.36,89.67 5.47,134.46 0.09,34.54 -5.71,68.79 -4.3,103.29 0.58,14.03 22.22,11.39 21.65,-2.56" />
      <path
         id="path158"
         style="fill:#5ba08e;fill-opacity:1;fill-rule:nonzero;stroke:none"
         d="m 4250.64,1691.36 -19.07,18.58 c 4.3,39.19 7.72,78.47 9.18,117.99 0.12,3.18 0.25,6.36 0.39,9.55 7.48,2.69 14.87,5.44 21.83,8.65 -2.59,-51.25 -6.54,-101.94 -11.83,-152.71 -0.17,-0.69 -0.34,-1.38 -0.5,-2.06" />
      <path
         id="path160"
         style="fill:#fcd9e6;fill-opacity:1;fill-rule:nonzero;stroke:none"
         d="m 4607.18,2556.65 c -33.65,-39.51 -69.35,-73.79 -94.87,-120.09 -31.91,-57.91 -55.63,-121.2 -79.8,-182.61 -45.4,-115.38 -84.74,-233.01 -120.68,-351.64 -27.4,-90.39 -57.3,-181.15 -74.98,-274.02 -13.03,-68.43 -20.49,-137.64 -28.99,-206.72 -4.08,-33.2 -10.02,-65.48 -16.95,-98.18 -3.77,-17.76 -5.35,-53.09 -19.25,-64.81 -10.71,-9.05 2.74,-26.2 13.5,-17.12 19.48,16.44 20.3,46.28 25.18,69.66 14.64,70.22 22.34,140.49 31.85,211.52 15.44,115.35 46.16,225.24 79.29,336.4 33.11,111.06 68.7,221.39 109.43,329.92 25.36,67.59 51.92,135.11 82.29,200.63 28.57,61.61 68.39,103.45 111.37,153.92 9.12,10.71 -8.33,23.78 -17.39,13.14" />
      <path
         id="path162"
         style="fill:#5ba08e;fill-opacity:1;fill-rule:nonzero;stroke:none"
         d="m 4271.9,1678.85 c -5.93,6.16 -13.15,10.49 -21.04,12.29 l -0.22,0.22 c 17.37,71.07 40.02,141.13 61.19,210.95 7.13,23.54 14.4,47.05 21.82,70.5 2.28,-4.59 4.09,-9.34 5.34,-13.82 1.85,-6.59 2.55,-13.11 2.54,-19.6 -0.01,-6.86 -0.82,-13.67 -1.91,-20.46 -6.14,-19.94 -12.18,-39.9 -18.14,-59.89 -17.9,-60.08 -35.11,-119.79 -49.58,-180.19 m 113.91,383.44 c -5.15,6.54 -11.86,12.93 -11.88,19.2 0,1.36 0.31,2.72 1.02,4.07 3.65,6.92 8.21,9.75 13.19,9.75 2.65,0 5.41,-0.8 8.22,-2.21 -3.56,-10.26 -7.07,-20.53 -10.55,-30.81 m 55.56,154.35 c -5.92,4.04 -12.35,7.55 -19.31,10.43 3.45,8.97 6.93,17.93 10.45,26.88 24.17,61.41 47.89,124.7 79.8,182.61 8.04,14.58 17.07,27.96 26.74,40.69 1.45,-4.07 2.96,-8.05 4.5,-11.91 1.5,-3.73 3.65,-8.19 6.3,-13.01 -13.53,-19.12 -25.88,-39.53 -36.65,-62.74 -26.22,-56.57 -49.6,-114.63 -71.83,-172.95" />
      <path
         id="path164"
         style="fill:#fcd9e6;fill-opacity:1;fill-rule:nonzero;stroke:none"
         d="m 4966.18,2298.15 c -14.67,119.83 -64.26,211.4 -164.77,273.87 -34.72,21.57 -105.32,60.8 -145.97,68.49 -36.07,6.83 -25.94,-32.22 0.17,-32.94 l -10.82,1.28 c -1.99,6.95 -60.41,8.37 -71.16,6.19 -36.82,-7.47 -44.96,-29.23 -47.33,-64.43 -1.89,-28 6.87,-59.39 17.25,-85.27 8.36,-20.86 36.93,-64.04 60.77,-69.25 4.79,31.62 -28.46,85.7 2.97,112.78 42.51,-27.78 41.85,-68.26 43.22,-115.19 0.41,-14.11 -3.32,-18.33 6.66,-26 5.14,-3.96 23.94,-8.43 30.88,-10.73 27.7,-9.18 27.69,12.23 29.9,35.55 2.61,27.6 -3.52,54.42 -2.92,81.8 23.39,-24.91 41.37,-36.52 45.82,-73.08 3.07,-25.14 1.73,-55.28 -4.56,-80.05 22.67,-12.61 43.75,-26.8 66.08,-40.11 14.03,28.42 7.58,65.48 21.11,91.51 36.41,-29.65 23.2,-66.67 27.94,-105.28 2.07,-16.77 20.48,-33.44 32.73,-47.69 16.99,-19.76 24.15,-39.8 36.61,-62.31 24.42,45.16 31.24,93.29 25.42,140.86" />
      <path
         id="path166"
         style="fill:#6dc0aa;fill-opacity:1;fill-rule:nonzero;stroke:none"
         d="m 4940.76,2157.29 c -12.46,22.51 -19.62,42.55 -36.61,62.31 -12.25,14.25 -30.66,30.92 -32.73,47.69 -1.16,9.42 -1.25,18.75 -1.25,27.91 0,1.61 0.01,3.21 0.01,4.81 0,26.54 -0.74,51.42 -26.7,72.56 -13.53,-26.03 -7.08,-63.09 -21.11,-91.51 -22.33,13.31 -43.41,27.5 -66.08,40.11 4.15,16.35 6.14,35.05 6.14,53.09 0,9.3 -0.54,18.42 -1.58,26.96 -4.45,36.56 -22.43,48.17 -45.82,73.08 -0.03,-1.29 -0.04,-2.57 -0.04,-3.85 0,-21.24 3.62,-42.19 3.61,-63.46 0,-4.81 -0.19,-9.64 -0.65,-14.49 -1.85,-19.53 -2.14,-37.72 -18.47,-37.72 -3.16,0 -6.93,0.68 -11.43,2.17 -6.94,2.3 -25.74,6.77 -30.88,10.73 -5.93,4.55 -7.02,7.89 -7.02,12.81 0.01,2.91 0.39,6.37 0.39,10.96 0,0.72 -0.01,1.46 -0.03,2.23 -1.37,46.93 -0.71,87.41 -43.22,115.19 -10.31,-8.88 -13.66,-20.68 -13.68,-33.63 -0.02,-23.75 11.16,-51.39 11.19,-72.16 0,-2.43 -0.15,-4.76 -0.48,-6.99 -19.57,4.28 -42.32,34.14 -54.47,56.24 -2.65,4.82 -4.8,9.28 -6.3,13.01 -1.54,3.86 -3.05,7.84 -4.5,11.91 -7.34,20.69 -12.98,43.78 -13.01,65.4 0,2.68 0.08,5.33 0.26,7.96 2.37,35.2 10.51,56.96 47.33,64.43 3.03,0.61 9.83,0.94 18.1,0.94 21.08,0 51.63,-2.14 53.06,-7.13 l 6.18,-0.73 v 0 c -11.51,2.45 -18.93,12.51 -18.92,20.92 0,6.66 4.64,12.27 15.58,12.27 2.31,0 4.91,-0.25 7.81,-0.8 40.65,-7.69 111.25,-46.92 145.97,-68.49 100.51,-62.47 150.1,-154.04 164.77,-273.87 1.28,-10.4 1.94,-20.84 1.95,-31.26 0.04,-37.23 -8.29,-74.32 -27.37,-109.6 m -18.45,178.74 c 16.7,-29.8 23.17,-62.81 18.82,-97.01 -0.17,-1.37 0.92,-2.13 1.99,-2.13 0.89,0 1.78,0.53 1.93,1.67 4.7,36.97 -2.99,72.56 -22.16,104.38 l 0.66,1.57 c -1.11,28.45 -8.48,54.72 -20.34,78.88 v 0.03 l -0.83,1.65 c -15.59,31.1 -38.63,58.65 -65.42,82.68 -2.64,2.38 -5.37,4.8 -8.11,7.22 l 0.29,1 c 0.49,1.52 -0.75,2.62 -1.93,2.62 -0.58,0 -1.14,-0.26 -1.48,-0.86 -27.14,23.88 -58.7,49.6 -92.52,68.26 0.33,1.25 -0.68,2.12 -1.76,2.12 -0.46,0 -0.94,-0.15 -1.33,-0.5 -25.22,13.53 -51.62,23.07 -78.38,24.86 -0.06,0 -0.11,0.01 -0.16,0.01 -2.39,0 -2.79,-3.76 -0.31,-3.92 12.08,-0.81 24,-3.4 35.76,-7.09 -38.37,-4.58 -56.16,-41.66 -61.62,-76.54 -0.21,-1.37 0.85,-2.13 1.93,-2.13 0.9,0 1.81,0.53 1.99,1.67 5.35,34.18 22.54,70.88 61.61,73.52 1.12,0.07 1.53,0.9 1.53,1.77 5.45,-1.9 10.88,-3.97 16.23,-6.35 -6.78,-21.85 -14.78,-43.2 -24.05,-64.12 -0.67,-1.51 0.62,-2.65 1.89,-2.65 0.7,0 1.4,0.34 1.76,1.16 9.26,20.86 17.24,42.16 23.99,63.95 5.31,-2.44 10.57,-5.06 15.77,-7.89 -22.68,-47.25 -34.42,-96.44 -35.38,-148.98 -0.03,-1.37 1.13,-2.14 2.19,-2.14 0.88,0 1.69,0.53 1.71,1.67 0.96,51.77 12.66,100.97 34.94,147.57 25.89,-14.55 50.35,-33.26 72.6,-51.56 -5.3,-19.61 -8.53,-39.41 -9.65,-59.7 -0.07,-1.38 1.06,-2.14 2.13,-2.14 0.89,0 1.73,0.53 1.79,1.67 1.06,19.49 4.07,38.56 9.07,57.41 5.77,-4.78 11.41,-9.53 16.87,-14.14 -17.2,-55 -24.55,-111.14 -21.98,-168.8 0.05,-1.12 0.84,-1.62 1.69,-1.62 1.09,0 2.28,0.81 2.21,2.21 -2.53,56.63 4.58,111.3 21.31,165.33 4.62,-3.98 9.19,-8 13.59,-12.18 l -1.17,-1.4 c -4.55,-27.76 -7.3,-55.64 -8.24,-83.75 -0.05,-1.38 1.1,-2.15 2.16,-2.15 0.88,0 1.71,0.53 1.75,1.68 0.93,27.85 3.65,55.47 8.13,82.97 14.74,-14.3 28.17,-29.68 39.44,-46.29 -2.63,-19.93 -5.27,-39.87 -7.91,-59.8 -0.18,-1.38 0.9,-2.14 1.98,-2.14 0.89,0 1.79,0.53 1.94,1.68 2.43,18.41 4.87,36.8 7.3,55.21 4.62,-7.17 8.91,-14.51 12.68,-22.11 -2.73,-35.11 -2.17,-69.93 1.75,-104.94 0.12,-1.11 0.95,-1.62 1.81,-1.62 1.1,0 2.25,0.81 2.09,2.22 -3.62,32.31 -4.24,64.59 -2.13,96.98 9.63,-21.45 15.65,-44.59 16.83,-69.56 -0.95,-0.53 -1.61,-1.8 -0.87,-3 0.84,-1.35 1.52,-2.74 2.33,-4.11 -0.25,0.09 -0.51,0.13 -0.76,0.13 -1.08,0 -2.15,-0.74 -1.97,-2.11 4.33,-32.22 8.65,-64.43 12.97,-96.64 0.15,-1.12 1,-1.62 1.86,-1.62 1.1,0 2.23,0.81 2.04,2.21 -4.28,31.91 -8.56,63.81 -12.85,95.73 m -169,231.58 c -0.9,0 -1.86,-0.51 -2.12,-1.62 -5.31,-22.64 -4.57,-45.16 1.95,-67.46 0.25,-0.85 0.85,-1.21 1.5,-1.21 1.21,0 2.56,1.22 2.11,2.78 -6.31,21.59 -6.78,43.54 -1.64,65.42 0.31,1.35 -0.71,2.09 -1.8,2.09 m -85.07,38.26 c -0.22,0 -0.45,-0.04 -0.68,-0.12 -36.52,-12.26 -61.85,-44.8 -64.88,-83.18 -0.12,-1.38 1,-2.14 2.07,-2.14 0.89,0 1.74,0.53 1.83,1.67 2.94,37.11 27.3,68.19 62.55,80.04 2.17,0.72 1.09,3.73 -0.89,3.73 m -12.63,1.7 v 0 0 m 0,0 v 0 0" />
      <path
         id="path168"
         style="fill:#fcd9e6;fill-opacity:1;fill-rule:nonzero;stroke:none"
         d="m 4036.42,1702.26 c 26.81,-82.54 34.98,-174.46 48.87,-260.08 11.86,-73.1 30.66,-151.68 24.93,-226.16 -1.07,-14.01 -22.72,-11.42 -21.65,2.55 5.55,72.21 -13.34,149.46 -24.84,220.33 -13.53,83.37 -21.2,174.32 -47.3,254.64 -4.31,13.26 15.65,22.06 19.99,8.72" />
      <path
         id="path170"
         style="fill:#fcd9e6;fill-opacity:1;fill-rule:nonzero;stroke:none"
         d="m 3908.7,1753.9 c 42.45,23.72 91.84,11.95 116.99,-28.29 0.16,2.75 1.23,2.05 2.55,3.17 l 0.86,7.22 c 22.26,17.33 85.16,12.52 113.65,3.14 42.53,-14 80.67,-64.61 84.28,-108.19 1.83,-21.91 -4.17,-49.23 -19.95,-64.23 -7.85,25 -9.06,50.92 -30.68,69.61 -11.83,10.22 -69.56,25.16 -61.98,-6.32 2.2,-9.11 23.95,-25.96 28.99,-37.47 5.81,-13.27 7.94,-25.6 8.42,-39.74 0.35,-10.37 2.33,-28.73 -4.72,-37.53 -7.7,-9.61 -27.91,-11.03 -38.5,-17.82 -3.64,20.57 3.37,42.81 -1.32,64.14 -4.87,22.1 -14.15,50.05 -32.34,64.55 -4.83,-14.63 -15.27,-26.33 -19.87,-41.46 -5.79,-19.03 -7.41,-40.8 -9.01,-60.74 -0.95,-11.9 4.49,-30.61 2.14,-40.83 -2.98,-13.03 -24.6,-27.42 -33.39,-37.7 -13.93,19.39 -10.21,48.53 -22.69,69.43 -62.73,-30.16 5.29,-137.68 -60.77,-173.41 21.5,44.89 -24.86,74.81 -39.93,111.84 -18.41,45.27 16.23,78.2 41.85,111.27 -17.7,9.18 -40.13,-0.62 -54.09,-13.01 -13.81,-12.24 -11.68,-23.31 -19.55,-37.8 -11.88,47.44 -30.86,119.07 36.88,126.02 4.57,0.46 9.23,-0.02 13.67,-0.51 9.48,-1.04 17.92,-2.07 22.2,6.17 6.71,12.94 -2.93,24.63 -12.51,29.94 -29.96,16.59 -65.92,-1.44 -82.43,-27.38 1.13,36.89 40.49,88.75 71.25,105.93" />
      <path
         id="path172"
         style="fill:#fcd9e6;fill-opacity:1;fill-rule:nonzero;stroke:none"
         d="m 4658.83,1911.91 1.92,0.14 c 2.23,-0.26 4.45,-0.53 6.68,-0.79 -2.9,0.35 -5.75,0.53 -8.6,0.65 m 240.15,-31.23 c -11.53,41.49 -57.07,67.73 -92.81,86.86 l 92.81,-86.86 m -383.02,-95.46 c -1.24,-19.6 1.73,-44.75 10.83,-62.58 9.51,-18.66 18.17,-45.27 34.49,-59.25 4.96,18.84 0.1,40.88 3.11,60.81 1.67,11.13 2.43,20.03 14.68,22.2 8.84,1.56 18.99,-3.48 22.24,-11.86 5.34,-13.76 -4.28,-36.43 -8.66,-48.99 -8.92,-25.55 -3.26,-39.4 20.99,-51.28 19.54,-9.58 35.19,-15.47 56.96,-18.57 -10.52,15.34 -14.28,38.45 -12.55,56.83 1.05,11.15 9.56,44.77 26.03,38.67 13.57,-5.01 5.72,-36.3 8.22,-47.75 7.9,-36.39 46.99,-55.93 81.27,-58.2 4.74,17.8 6.43,39.52 1.59,57.33 -2.64,9.69 -27.65,42.24 -8.64,47.49 12.21,3.38 26.48,-29.14 37.54,-60.43 12.24,-34.56 37.04,-63.22 69.62,-80.03 l 51.26,-26.45 c 0,0 9.36,61.61 10.79,72.17 5.11,37.56 10.8,62.32 -25.35,81.89 -12.22,6.61 -54.11,19.62 -50.96,38.83 3.37,20.47 35.23,4.68 44.36,-2.1 12.01,-8.91 26.63,-45.18 39.61,-23.57 22.2,36.93 -17.13,77.69 -44.01,97.87 -26.45,19.87 -59,28.62 -89.67,39.99 -4.58,1.7 -9.26,3.45 -13.08,6.51 -14.33,11.4 -6.25,35.37 9.42,40.87 9.86,3.47 21.16,0.95 29.83,-4.88 15.68,-10.54 36.24,-59.96 59.78,-53.64 14.95,4.03 6.1,33.6 3.32,43.58 -11.53,41.49 -57.07,67.73 -92.81,86.86 -32.21,17.23 -63.94,28.08 -100.26,18.3 -27.96,-7.52 -66.77,-41.31 -59.67,-74.15 -18.47,-1.32 -36.04,-7.01 -53.6,-15.08 -41.52,-19.08 -73.79,-65.58 -76.68,-111.39" />
      <path
         id="path174"
         style="fill:#6dc0aa;fill-opacity:1;fill-rule:nonzero;stroke:none"
         d="m 4924.94,1543.16 -51.26,26.45 c -3.9,2.01 -7.7,4.2 -11.37,6.54 -26.97,17.22 -47.48,43.07 -58.25,73.49 -10.53,29.78 -23.96,60.67 -35.76,60.67 -0.59,0 -1.19,-0.08 -1.78,-0.24 -5.16,-1.43 -7.08,-4.87 -7.08,-9.31 0,-11.93 13.8,-31.12 15.72,-38.18 2.02,-7.45 2.9,-15.57 2.9,-23.81 0,-11.47 -1.73,-23.16 -4.49,-33.52 -34.28,2.27 -73.37,21.81 -81.27,58.2 -0.4,1.83 -0.54,4.18 -0.54,6.84 0,5.52 0.58,12.41 0.58,18.99 0,10.06 -1.37,19.38 -8.26,21.92 -1.35,0.5 -2.65,0.73 -3.89,0.73 -13.93,0 -21.17,-29.16 -22.14,-39.4 -0.27,-2.87 -0.41,-5.86 -0.41,-8.92 0.02,-16.49 4.08,-34.97 12.96,-47.91 -21.77,3.1 -37.42,8.99 -56.96,18.57 -17.14,8.4 -25,17.78 -24.98,31.59 0.01,5.72 1.37,12.2 3.99,19.69 3.47,9.96 10.24,26.28 10.23,39.47 0,3.44 -0.46,6.67 -1.57,9.52 -2.86,7.36 -11.03,12.14 -18.96,12.14 -1.1,0 -2.2,-0.09 -3.28,-0.28 -12.25,-2.17 -13.01,-11.07 -14.68,-22.2 -0.84,-5.53 -1.07,-11.22 -1.07,-16.96 0,-6.95 0.33,-13.97 0.33,-20.87 0,-7.93 -0.45,-15.7 -2.37,-22.98 -16.32,13.98 -24.98,40.59 -34.49,59.25 -7.79,15.25 -11.09,35.86 -11.1,53.77 0,3.02 0.09,5.97 0.27,8.81 2.63,41.72 29.63,84.01 65.79,105.64 15.06,4.42 30.26,6.9 45.29,6.9 6.26,0 12.49,-0.43 18.67,-1.33 -46.37,-27.94 -81.06,-69.77 -100.06,-121.07 -0.44,-1.19 0.58,-2.1 1.55,-2.1 0.53,0 1.05,0.28 1.3,0.94 19.17,51.81 54.5,93.9 101.87,121.46 7.77,-1.44 15.44,-3.65 22.98,-6.7 -18.41,-40.76 -29.92,-82.91 -34.84,-127.41 -0.11,-1.07 0.74,-1.66 1.58,-1.66 0.69,0 1.37,0.41 1.47,1.3 4.88,44.11 16.4,86.2 34.62,126.58 12.44,-5.43 24.48,-13.2 35.9,-23.7 -24.32,-46.36 -42.42,-94.95 -54.45,-145.99 -0.25,-1.05 0.55,-1.63 1.4,-1.63 0.71,0 1.45,0.4 1.65,1.26 11.9,50.49 29.77,98.35 53.72,144.19 3.86,-3.7 7.64,-7.71 11.34,-12.06 1.83,-2.14 4.08,-3.03 6.29,-3.03 2.9,0 5.72,1.54 7.43,3.8 14.8,-13.03 28.42,-27.44 40.62,-43.21 -0.2,-0.99 -0.35,-1.98 -0.54,-2.97 l -0.27,-0.17 c -33.86,-33.25 -51.19,-76.62 -49.6,-124.04 0.03,-0.87 0.63,-1.27 1.3,-1.27 0.84,0 1.77,0.64 1.74,1.73 -1.51,44.94 14.62,86.44 45.86,118.49 -4.67,-27.89 -4.75,-55.62 -0.18,-83.74 0.14,-0.86 0.81,-1.26 1.48,-1.26 0.86,0 1.73,0.63 1.56,1.72 -4.81,29.57 -4.37,58.91 1.17,88.25 2.75,-3.66 5.46,-7.36 8.06,-11.16 19.95,-29.07 36.89,-60.58 53,-92.51 -5.3,-32.78 -3.46,-64.8 5.67,-96.83 0.23,-0.82 0.96,-1.2 1.65,-1.2 0.87,0 1.69,0.61 1.38,1.67 -8.6,30.16 -10.65,60.65 -6.28,91.55 12.52,-24.96 24.62,-50.11 37.25,-74.54 0.31,-0.59 0.84,-0.85 1.37,-0.85 1.02,0 2.04,0.93 1.44,2.08 -11.97,23.17 -23.44,47.07 -35.27,70.87 20.1,-16.34 34.93,-37.46 43.47,-62.15 0.22,-0.65 0.71,-0.92 1.23,-0.92 0.96,0 2,0.94 1.58,2.15 -9.4,27.2 -26.39,50.28 -49.48,67.4 l -0.79,1.58 0.07,0.52 -1.12,1.56 c -17.53,34.86 -36.14,69.2 -58.87,100.16 -1.16,1.58 -2.44,3.04 -3.64,4.6 l 0.04,0.17 -0.04,0.15 0.07,0.16 c -0.01,1.07 1.45,1.5 3.85,1.5 10.31,0 37.89,-8.03 39.56,-8.61 13.02,-4.51 25.39,-10.38 37.34,-17.2 0.27,-0.16 0.55,-0.23 0.82,-0.23 1.39,0 2.47,1.86 1.04,2.68 -6.03,3.44 -57.79,27.04 -77.78,27.04 -3.65,0 -6.24,-0.79 -7.3,-2.63 -12.08,15.42 -25.5,29.56 -40.04,42.35 0.15,0.57 0.22,1.17 0.23,1.77 0,1.67 -0.61,3.42 -2.03,5.09 -4.71,5.53 -9.52,10.59 -14.44,15.22 12.4,20.01 33.09,33.24 56.8,36.04 1.9,0.22 1.53,3.05 -0.26,3.05 -0.06,0 -0.13,0 -0.2,-0.01 -24.44,-2.88 -45.67,-16.52 -58.6,-36.99 -12.07,10.97 -24.69,19.34 -37.71,25.41 18.13,29.72 64.72,39.28 95.52,45.77 1.82,0.38 1.53,3.07 -0.11,3.07 -0.11,0 -0.22,-0.01 -0.34,-0.03 -32.23,-6.79 -79.47,-16.47 -97.93,-47.51 -7.24,3.17 -14.59,5.65 -22.03,7.48 2.4,-0.11 4.81,-0.27 7.25,-0.55 v 0 0 c -2.1,0.25 -4.19,0.49 -6.28,0.74 l -1.32,-0.1 c -4.54,1.11 -9.1,1.97 -13.69,2.6 -0.24,1.74 -0.35,3.49 -0.35,5.23 0.04,30.12 34.85,59.16 60.52,66.06 9.46,2.55 18.61,3.69 27.54,3.69 25.34,0 48.9,-9.25 72.72,-21.99 v 0 c 35.74,-19.13 81.28,-45.37 92.81,-86.86 v 0 0 c 1.59,-5.69 5.15,-17.75 5.14,-27.82 0,-7.58 -2.03,-14.03 -8.46,-15.76 -1.4,-0.38 -2.8,-0.56 -4.18,-0.56 -21.8,0 -40.86,44.29 -55.6,54.2 -5.97,4.02 -13.19,6.46 -20.33,6.46 -3.22,0 -6.43,-0.5 -9.5,-1.58 -9.98,-3.5 -16.88,-14.49 -16.87,-24.96 0,-5.97 2.25,-11.77 7.45,-15.91 3.82,-3.06 8.5,-4.81 13.08,-6.51 30.67,-11.37 63.22,-20.12 89.67,-39.99 21.37,-16.04 50.6,-45.09 50.54,-74.88 -0.01,-7.68 -1.98,-15.42 -6.53,-22.99 -2.9,-4.83 -5.88,-6.77 -8.9,-6.77 -5.18,0 -10.47,5.73 -15.61,12.35 -5.27,6.77 -10.39,14.49 -15.1,17.99 -5.79,4.3 -20.72,12.23 -31.73,12.23 -6.35,0 -11.39,-2.64 -12.63,-10.13 -0.11,-0.67 -0.16,-1.34 -0.17,-2 -0.07,-18.12 39.34,-30.45 51.13,-36.83 23.09,-12.5 29.11,-27.12 29.12,-45.83 0,-10.59 -1.92,-22.49 -3.77,-36.06 -1.43,-10.56 -10.79,-72.17 -10.79,-72.17" />
      <path
         id="path176"
         style="fill:#fcd9e6;fill-opacity:1;fill-rule:nonzero;stroke:none"
         d="m 4725.74,1849.84 c -65.7,77.1 -156.99,49.82 -227.46,-2.4 -68.08,-50.44 -112.04,-108.13 -146.26,-185.83 -30.9,-70.16 -53.84,-145.02 -64.77,-220.94 -5.26,-36.45 -8.25,-73.04 -8.67,-109.88 -0.22,-20.11 0.78,-40.36 -1.71,-60.39 -2.02,-16.35 -6.95,-30.56 -3.06,-47.27 2.49,-10.66 -14.33,-13.14 -16.8,-2.55 -3.44,14.78 -0.58,27.49 1.53,42.47 3.29,23.26 2.94,46.29 3.18,69.74 0.47,49.06 5.47,98.19 14.71,146.37 16.96,88.48 48.54,177.56 93.62,255.61 66.52,115.17 251.52,263.48 369.03,125.59 7.11,-8.34 -6.25,-18.83 -13.34,-10.52" />
      <path
         id="path178"
         style="fill:#5ba08e;fill-opacity:1;fill-rule:nonzero;stroke:none"
         d="m 4282.69,1403.45 c -2,2.5 -4.1,4.9 -6.28,7.15 l -7.87,19.57 c 0.28,2.16 0.57,4.31 0.87,6.47 l 15.82,-10.82 c -0.94,-7.45 -1.79,-14.91 -2.54,-22.37 m 49.2,208.7 -13.72,13.37 c 14.58,37.91 31.9,74.66 51.88,109.25 47.44,82.14 155.16,181.14 255.67,181.14 19.11,0 37.96,-3.58 56.09,-11.53 -1.43,-2.4 -2.68,-4.93 -3.74,-7.59 -9.34,5.02 -18.86,9.74 -28.69,13.91 -0.21,0.1 -0.42,0.14 -0.61,0.14 -1.44,0 -2.15,-2.3 -0.55,-2.98 3.31,-1.41 6.54,-2.98 9.79,-4.49 -4.19,-2.21 -8.29,-4.52 -12.3,-6.94 -6.18,0.9 -12.41,1.33 -18.67,1.33 -15.03,0 -30.23,-2.48 -45.29,-6.9 -29.1,-8.53 -57.68,-24.31 -83.47,-43.42 -68.08,-50.44 -112.04,-108.13 -146.26,-185.83 -7.15,-16.25 -13.88,-32.75 -20.13,-49.46 m 400.14,234.66 c -2.21,0 -4.46,0.89 -6.29,3.03 -3.7,4.35 -7.48,8.36 -11.34,12.06 1.1,2.09 2.2,4.18 3.32,6.27 7.5,-5.54 14.75,-11.4 21.74,-17.56 -1.71,-2.26 -4.53,-3.8 -7.43,-3.8 m 8.85,6.69 c -6.35,5.58 -12.9,10.91 -19.66,15.98 1.06,2.1 2.2,4.13 3.42,6.1 4.92,-4.63 9.73,-9.69 14.44,-15.22 1.42,-1.67 2.03,-3.42 2.03,-5.09 -0.01,-0.6 -0.08,-1.2 -0.23,-1.77 m -28.8,10.57 c -11.42,10.5 -23.46,18.27 -35.9,23.7 0.5,1.11 1,2.22 1.52,3.32 v 0.45 c 0.21,-0.08 0.43,-0.13 0.64,-0.13 0.53,0 1.03,0.29 1.25,0.96 l 0.01,0.03 c 12.35,-6.78 24.28,-14.22 35.61,-22.45 -1.06,-1.96 -2.1,-3.91 -3.13,-5.88 m 6.63,7.17 c -12.04,8.87 -24.75,16.86 -37.91,24.09 1.08,2.73 2.38,5.31 3.87,7.75 13.02,-6.07 25.64,-14.44 37.71,-25.41 -1.31,-2.07 -2.54,-4.22 -3.67,-6.43 m -45.36,17.72 c -7.54,3.05 -15.21,5.26 -22.98,6.7 3.13,1.82 6.31,3.57 9.54,5.27 l 0.82,1.2 c 5.48,-2.6 10.85,-5.36 16.17,-8.22 l -0.15,-0.38 0.04,-0.5 -1.94,-0.77 c -0.5,-1.1 -1.01,-2.2 -1.5,-3.3" />
      <path
         id="path180"
         style="fill:#5ba08e;fill-opacity:1;fill-rule:nonzero;stroke:none"
         d="m 4850.98,1602.44 c -0.69,0 -1.42,0.38 -1.65,1.2 -9.13,32.03 -10.97,64.05 -5.67,96.83 -16.11,31.93 -33.05,63.44 -53,92.51 -2.6,3.8 -5.31,7.5 -8.06,11.16 -5.54,-29.34 -5.98,-58.68 -1.17,-88.25 0.17,-1.09 -0.7,-1.72 -1.56,-1.72 -0.67,0 -1.34,0.4 -1.48,1.26 -4.57,28.12 -4.49,55.85 0.18,83.74 -31.24,-32.05 -47.37,-73.55 -45.86,-118.49 0.03,-1.09 -0.9,-1.73 -1.74,-1.73 -0.67,0 -1.27,0.4 -1.3,1.27 -1.59,47.42 15.74,90.79 49.6,124.04 l 0.27,0.17 c 0.19,0.99 0.34,1.98 0.54,2.97 -12.2,15.77 -25.82,30.18 -40.62,43.21 0.66,0.87 1.15,1.85 1.42,2.89 14.54,-12.79 27.96,-26.93 40.04,-42.35 1.06,1.84 3.65,2.63 7.3,2.63 19.99,0 71.75,-23.6 77.78,-27.04 1.43,-0.82 0.35,-2.68 -1.04,-2.68 -0.27,0 -0.55,0.07 -0.82,0.23 -11.95,6.82 -24.32,12.69 -37.34,17.2 -1.67,0.58 -29.25,8.61 -39.56,8.61 -2.4,0 -3.86,-0.43 -3.85,-1.5 l -0.07,-0.16 0.04,-0.15 -0.04,-0.17 c 1.2,-1.56 2.48,-3.02 3.64,-4.6 22.73,-30.96 41.34,-65.3 58.87,-100.16 l 1.12,-1.56 -0.07,-0.52 0.79,-1.58 c 23.09,-17.12 40.08,-40.2 49.48,-67.4 0.42,-1.21 -0.62,-2.15 -1.58,-2.15 -0.52,0 -1.01,0.27 -1.23,0.92 -8.54,24.69 -23.37,45.81 -43.47,62.15 11.83,-23.8 23.3,-47.7 35.27,-70.87 0.6,-1.15 -0.42,-2.08 -1.44,-2.08 -0.53,0 -1.06,0.26 -1.37,0.85 -12.63,24.43 -24.73,49.58 -37.25,74.54 -4.37,-30.9 -2.32,-61.39 6.28,-91.55 0.31,-1.06 -0.51,-1.67 -1.38,-1.67 m -191.95,114.01 c -0.85,0 -1.65,0.58 -1.4,1.63 12.03,51.04 30.13,99.63 54.45,145.99 0.78,-0.71 1.55,-1.44 2.32,-2.17 -23.95,-45.84 -41.82,-93.7 -53.72,-144.19 -0.2,-0.86 -0.94,-1.26 -1.65,-1.26 m -18.94,43.44 c -0.84,0 -1.69,0.59 -1.58,1.66 4.92,44.5 16.43,86.65 34.84,127.41 0.94,-0.39 1.88,-0.78 2.83,-1.19 -18.22,-40.38 -29.74,-82.47 -34.62,-126.58 -0.1,-0.89 -0.78,-1.3 -1.47,-1.3 m -92.89,13.37 c -0.97,0 -1.99,0.91 -1.55,2.1 19,51.3 53.69,93.13 100.06,121.07 1.55,-0.23 3.11,-0.49 4.66,-0.77 -47.37,-27.56 -82.7,-69.65 -101.87,-121.46 -0.25,-0.66 -0.77,-0.94 -1.3,-0.94 m 177.44,102.32 c -0.75,0.71 -1.51,1.41 -2.26,2.09 12.93,20.47 34.16,34.11 58.6,36.99 0.07,0.01 0.14,0.01 0.2,0.01 1.79,0 2.16,-2.83 0.26,-3.05 -23.71,-2.8 -44.4,-16.03 -56.8,-36.04 m -39.97,27.5 c -0.95,0.45 -1.91,0.88 -2.86,1.3 18.46,31.04 65.7,40.72 97.93,47.51 0.12,0.02 0.23,0.03 0.34,0.03 1.64,0 1.93,-2.69 0.11,-3.07 -30.8,-6.49 -77.39,-16.05 -95.52,-45.77" />
      <path
         id="path182"
         style="fill:#5ba08e;fill-opacity:1;fill-rule:nonzero;stroke:none"
         d="m 4739.46,1850.61 c -6.99,6.16 -14.24,12.02 -21.74,17.56 -1.12,-2.09 -2.22,-4.18 -3.32,-6.27 -0.77,0.73 -1.54,1.46 -2.32,2.17 1.03,1.97 2.07,3.92 3.13,5.88 -11.33,8.23 -23.26,15.67 -35.61,22.45 l -0.01,-0.03 c -0.22,-0.67 -0.72,-0.96 -1.25,-0.96 -0.21,0 -0.43,0.05 -0.64,0.13 v -0.45 c -0.52,-1.1 -1.02,-2.21 -1.52,-3.32 -0.95,0.41 -1.89,0.8 -2.83,1.19 0.49,1.1 1,2.2 1.5,3.3 l 1.94,0.77 -0.04,0.5 0.15,0.38 c -5.32,2.86 -10.69,5.62 -16.17,8.22 l -0.82,-1.2 c -3.23,-1.7 -6.41,-3.45 -9.54,-5.27 -1.55,0.28 -3.11,0.54 -4.66,0.77 4.01,2.42 8.11,4.73 12.3,6.94 -3.25,1.51 -6.48,3.08 -9.79,4.49 -1.6,0.68 -0.89,2.98 0.55,2.98 0.19,0 0.4,-0.04 0.61,-0.14 9.83,-4.17 19.35,-8.89 28.69,-13.91 1.06,2.66 2.31,5.19 3.74,7.59 0.95,-0.42 1.91,-0.85 2.86,-1.3 -1.49,-2.44 -2.79,-5.02 -3.87,-7.75 13.16,-7.23 25.87,-15.22 37.91,-24.09 1.13,2.21 2.36,4.36 3.67,6.43 0.75,-0.68 1.51,-1.38 2.26,-2.09 -1.22,-1.97 -2.36,-4 -3.42,-6.1 6.76,-5.07 13.31,-10.4 19.66,-15.98 -0.27,-1.04 -0.76,-2.02 -1.42,-2.89" />
      <path
         id="path184"
         style="fill:#5ba08e;fill-opacity:1;fill-rule:nonzero;stroke:none"
         d="m 4943.12,2236.89 c -1.07,0 -2.16,0.76 -1.99,2.13 4.35,34.2 -2.12,67.21 -18.82,97.01 4.29,-31.92 8.57,-63.82 12.85,-95.73 0.19,-1.4 -0.94,-2.21 -2.04,-2.21 -0.86,0 -1.71,0.5 -1.86,1.62 -4.32,32.21 -8.64,64.42 -12.97,96.64 -0.18,1.37 0.89,2.11 1.97,2.11 0.25,0 0.51,-0.04 0.76,-0.13 -0.81,1.37 -1.49,2.76 -2.33,4.11 -0.74,1.2 -0.08,2.47 0.87,3 -1.18,24.97 -7.2,48.11 -16.83,69.56 -2.11,-32.39 -1.49,-64.67 2.13,-96.98 0.16,-1.41 -0.99,-2.22 -2.09,-2.22 -0.86,0 -1.69,0.51 -1.81,1.62 -3.92,35.01 -4.48,69.83 -1.75,104.94 -3.77,7.6 -8.06,14.94 -12.68,22.11 -2.43,-18.41 -4.87,-36.8 -7.3,-55.21 -0.15,-1.15 -1.05,-1.68 -1.94,-1.68 -1.08,0 -2.16,0.76 -1.98,2.14 2.64,19.93 5.28,39.87 7.91,59.8 -11.27,16.61 -24.7,31.99 -39.44,46.29 -4.48,-27.5 -7.2,-55.12 -8.13,-82.97 -0.04,-1.15 -0.87,-1.68 -1.75,-1.68 -1.06,0 -2.21,0.77 -2.16,2.15 0.94,28.11 3.69,55.99 8.24,83.75 l 1.17,1.4 c -4.4,4.18 -8.97,8.2 -13.59,12.18 -16.73,-54.03 -23.84,-108.7 -21.31,-165.33 0.07,-1.4 -1.12,-2.21 -2.21,-2.21 -0.85,0 -1.64,0.5 -1.69,1.62 -2.57,57.66 4.78,113.8 21.98,168.8 -5.46,4.61 -11.1,9.36 -16.87,14.14 -5,-18.85 -8.01,-37.92 -9.07,-57.41 -0.06,-1.14 -0.9,-1.67 -1.79,-1.67 -1.07,0 -2.2,0.76 -2.13,2.14 1.12,20.29 4.35,40.09 9.65,59.7 -22.25,18.3 -46.71,37.01 -72.6,51.56 -22.28,-46.6 -33.98,-95.8 -34.94,-147.57 -0.02,-1.14 -0.83,-1.67 -1.71,-1.67 -1.06,0 -2.22,0.77 -2.19,2.14 0.96,52.54 12.7,101.73 35.38,148.98 -5.2,2.83 -10.46,5.45 -15.77,7.89 -6.75,-21.79 -14.73,-43.09 -23.99,-63.95 -0.36,-0.82 -1.06,-1.16 -1.76,-1.16 -1.27,0 -2.56,1.14 -1.89,2.65 9.27,20.92 17.27,42.27 24.05,64.12 -5.35,2.38 -10.78,4.45 -16.23,6.35 0,-0.87 -0.41,-1.7 -1.53,-1.77 -39.07,-2.64 -56.26,-39.34 -61.61,-73.52 -0.18,-1.14 -1.09,-1.67 -1.99,-1.67 -1.08,0 -2.14,0.76 -1.93,2.13 5.46,34.88 23.25,71.96 61.62,76.54 -11.76,3.69 -23.68,6.28 -35.76,7.09 -2.48,0.16 -2.08,3.92 0.31,3.92 0.05,0 0.1,-0.01 0.16,-0.01 26.76,-1.79 53.16,-11.33 78.38,-24.86 0.39,0.35 0.87,0.5 1.33,0.5 1.08,0 2.09,-0.87 1.76,-2.12 33.82,-18.66 65.38,-44.38 92.52,-68.26 0.34,0.6 0.9,0.86 1.48,0.86 1.18,0 2.42,-1.1 1.93,-2.62 l -0.29,-1 c 2.74,-2.42 5.47,-4.84 8.11,-7.22 26.79,-24.03 49.83,-51.58 65.42,-82.68 l 0.83,-1.65 v -0.03 c 11.86,-24.16 19.23,-50.43 20.34,-78.88 l -0.66,-1.57 c 19.17,-31.82 26.86,-67.41 22.16,-104.38 -0.15,-1.14 -1.04,-1.67 -1.93,-1.67" />
      <path
         id="path186"
         style="fill:#5ba08e;fill-opacity:1;fill-rule:nonzero;stroke:none"
         d="m 4754.64,2497.32 c -0.65,0 -1.25,0.36 -1.5,1.21 -6.52,22.3 -7.26,44.82 -1.95,67.46 0.26,1.11 1.22,1.62 2.12,1.62 1.09,0 2.11,-0.74 1.8,-2.09 -5.14,-21.88 -4.67,-43.83 1.64,-65.42 0.45,-1.56 -0.9,-2.78 -2.11,-2.78" />
      <path
         id="path188"
         style="fill:#5ba08e;fill-opacity:1;fill-rule:nonzero;stroke:none"
         d="m 4604.75,2520.43 c -1.07,0 -2.19,0.76 -2.07,2.14 3.03,38.38 28.36,70.92 64.88,83.18 0.23,0.08 0.46,0.12 0.68,0.12 1.98,0 3.06,-3.01 0.89,-3.73 -35.25,-11.85 -59.61,-42.93 -62.55,-80.04 -0.09,-1.14 -0.94,-1.67 -1.83,-1.67" />
      <path
         id="path190"
         style="fill:#fcd9e6;fill-opacity:1;fill-rule:nonzero;stroke:none"
         d="m 4066.54,2159.62 c 23.03,5.16 42.56,3.53 65.93,1.52 -15.48,36.74 -88.37,24.46 -113.73,8.36 21.62,19.53 42.63,38.01 61.41,59.82 20.96,24.32 31.81,41.92 65.54,47.56 26.06,4.35 51.12,0.19 75.33,-10.76 29.45,-13.31 39.95,-43.1 45.08,-73.42 l 0.34,18.26 c 6.82,-1.28 20.68,13.61 29.61,17.52 12.41,5.42 24.36,8.17 37.57,9.18 26.97,2.05 60.47,0.32 86.14,-9.66 62.78,-24.41 84.34,-98.48 69.44,-158.72 -8.73,-35.31 -29.54,-67.29 -53.73,-94.79 -2.21,23 5.52,45.1 -0.53,68.29 -3.91,15 -42.52,75.96 -59.99,42.78 -5.12,-9.74 10.49,-19.73 15.3,-30.12 4.88,-10.53 6.83,-23.77 9.13,-35.01 4.75,-23.43 6.51,-52.15 1.95,-76.1 -6.74,-35.46 -39.25,-46.22 -67.52,-62.81 1.67,25.79 12.56,51.11 5.18,77.47 -6.55,23.45 -28.35,54.18 -54.25,32.14 26.66,-20.18 26.42,-70.83 18.74,-101.01 -9.81,-38.45 -46.52,-46.33 -80,-59.05 9.67,28.1 29.63,88.64 -9,102.73 -35.75,13.05 -57.23,-61.94 -54.23,-89.42 -31.71,-8.04 -45.43,-29.55 -69.24,-49.31 -27.85,26.64 -66.09,97.94 -56.52,137.89 10.61,44.3 55.09,75.78 80.46,111.31 -39.57,47.05 -88.55,-36.86 -106,-64.41 3.7,44.81 -0.87,88.47 4.53,134 4.03,34.06 20.2,38.39 53.06,45.76" />
      <path
         id="path192"
         style="fill:#6dc0aa;fill-opacity:1;fill-rule:nonzero;stroke:none"
         d="m 4118.35,1820.31 -33.18,32.36 c -13.61,11.19 -28.66,20.21 -44.61,26.91 -4.69,13.85 -7.56,27.48 -7.57,39.51 0,4.92 0.47,9.58 1.5,13.87 10.61,44.3 55.09,75.78 80.46,111.31 v 0 0 c -8.37,9.96 -17.17,14.05 -26.01,14.05 -32.89,0 -66.24,-56.74 -79.99,-78.46 1.48,18.03 1.63,35.87 1.63,53.73 0,4.5 -0.01,9.01 -0.01,13.52 0,22.04 0.23,44.16 2.91,66.75 4.03,34.06 20.2,38.39 53.06,45.76 11.44,2.56 22.01,3.45 32.62,3.45 10.76,0 21.55,-0.91 33.31,-1.93 v 0 0 c -7.46,17.7 -28.23,24.02 -50.6,24.02 -24.07,0 -49.98,-7.32 -63.13,-15.66 21.62,19.53 42.63,38.01 61.41,59.82 20.96,24.32 31.81,41.92 65.54,47.56 6.85,1.14 13.62,1.7 20.33,1.7 18.84,0 37.15,-4.38 55,-12.46 27.12,-12.25 38.17,-38.49 43.76,-66.24 -4.71,-9.11 -9.6,-18.08 -14.51,-27.03 -1.19,-0.27 -1.89,-1.55 -1.39,-2.6 l -1.16,-2.15 c -34.17,26.53 -74,40.82 -117.36,41.87 -0.02,0 -0.04,0 -0.05,0 -2.48,0 -2.93,-3.86 -0.41,-3.92 42.92,-1.04 82.06,-15.03 115.87,-41.4 -8.09,-14.52 -16.51,-28.81 -25.11,-42.97 l -69.54,16.15 c -0.17,0.04 -0.33,0.06 -0.47,0.06 -2.04,0 -2.27,-3.44 0,-3.97 22.61,-5.25 45.22,-10.5 67.84,-15.76 -5.77,-9.44 -11.54,-18.87 -17.5,-28.18 -32.97,5.03 -65.94,10.07 -98.92,15.11 -0.12,0.02 -0.23,0.02 -0.34,0.02 -2.2,0 -2.5,-3.58 -0.12,-3.94 29.88,-4.56 59.77,-9.13 89.66,-13.69 -18.52,-6.73 -37.03,-13.46 -55.55,-20.19 -2.14,-0.77 -1.09,-3.74 0.86,-3.74 0.22,0 0.46,0.04 0.71,0.13 20.36,7.4 40.72,14.8 61.07,22.19 -12.07,-18.7 -24.6,-37.18 -37.34,-55.58 -32.42,-24.06 -60.85,-52.25 -85.16,-84.54 -1.12,-1.48 0.26,-3.15 1.68,-3.15 0.52,0 1.05,0.23 1.46,0.78 21.66,28.77 46.64,54.29 74.79,76.48 -1.74,-2.49 -3.43,-5 -5.19,-7.49 -31.51,-44.66 -58.1,-91.37 -48.21,-147.84 0.19,-1.1 1.06,-1.6 1.93,-1.6 1.1,0 2.21,0.8 1.97,2.2 -11.2,63.93 25.01,114.08 60.28,162.92 l 0.71,0.53 c -4.54,-29.29 -7.52,-58.71 -8.86,-88.34 -0.07,-1.37 1.07,-2.14 2.13,-2.14 0.89,0 1.72,0.53 1.77,1.68 1.36,29.66 4.34,59.12 8.89,88.45 27.65,-23.47 52.53,-49.6 74.6,-78.38 0.41,-0.53 0.93,-0.75 1.44,-0.75 1.42,0 2.79,1.71 1.65,3.19 -22.52,29.38 -47.95,56.01 -76.23,79.9 l -1.34,0.43 -0.98,0.66 c 5.14,7.12 10.21,14.23 15.09,21.35 7.07,10.34 13.89,20.82 20.63,31.37 l 0.97,1.46 c 6.17,9.7 12.07,19.55 17.97,29.41 9.37,-30.23 16.27,-60.91 20.68,-92.27 0.16,-1.11 1,-1.61 1.87,-1.61 1.09,0 2.22,0.8 2.03,2.21 -4.6,32.68 -11.89,64.7 -21.83,96.18 8.69,14.65 17.17,29.42 25.33,44.38 0.96,0.25 1.99,0.43 2.96,0.67 27.69,-17.48 53.12,-37.73 76.13,-61.11 0.43,-0.44 0.95,-0.62 1.46,-0.62 1.54,0 2.98,1.7 1.63,3.06 -22.41,22.77 -47.09,42.64 -73.9,59.88 12.22,2.5 25.66,3.86 39.45,3.86 44.67,0 92.96,-14.25 114.68,-49.73 0.36,-0.6 0.85,-0.84 1.36,-0.84 1.32,0 2.68,1.73 1.73,3.28 -22.54,36.83 -71.19,51.43 -116.64,51.43 -15.85,0 -31.32,-1.78 -45.15,-5.01 l -0.75,0.5 c 4.02,7.45 8,14.94 11.9,22.47 0.05,-0.3 0.1,-0.6 0.15,-0.9 l 0.03,1.24 c 1.14,2.22 2.29,4.43 3.42,6.66 0.75,1.47 -0.52,2.6 -1.83,2.6 -0.51,0 -1.04,-0.18 -1.44,-0.59 l 0.16,8.35 c 0.27,-0.06 0.57,-0.08 0.87,-0.08 7.08,0 20.17,13.85 28.74,17.6 12.41,5.42 24.36,8.17 37.57,9.18 6.42,0.48 13.2,0.76 20.16,0.76 22.3,0 46.42,-2.82 65.98,-10.42 50.15,-19.5 74,-70.69 73.97,-121.2 -0.01,-12.72 -1.53,-25.4 -4.53,-37.52 -8.73,-35.31 -29.54,-67.29 -53.73,-94.79 -0.29,3.06 -0.41,6.1 -0.41,9.12 0.01,13.09 2.25,25.97 2.24,39.02 0,6.66 -0.59,13.36 -2.36,20.15 -2.66,10.21 -21.39,41.68 -38.58,50.32 -2.81,1.41 -5.57,2.21 -8.22,2.21 -4.98,0 -9.54,-2.83 -13.19,-9.75 -0.71,-1.35 -1.02,-2.71 -1.02,-4.07 0.02,-8.45 12.18,-17.1 16.32,-26.05 4.88,-10.53 6.83,-23.77 9.13,-35.01 2.84,-14 4.61,-29.89 4.6,-45.53 -0.01,-10.53 -0.82,-20.93 -2.65,-30.57 -6.74,-35.46 -39.25,-46.22 -67.52,-62.81 1.25,19.34 7.69,38.42 7.72,57.87 0.01,6.49 -0.69,13.01 -2.54,19.6 -4.96,17.77 -18.68,39.72 -36.31,39.72 -5.64,0 -11.67,-2.24 -17.94,-7.58 v 0 0 c 17.23,-13.05 23.23,-38.83 23.24,-63.58 0,-13.53 -1.79,-26.76 -4.5,-37.43 -5.92,-23.2 -21.63,-35.27 -40.51,-43.99 -6.96,-3.21 -14.35,-5.96 -21.83,-8.65 -5.88,-2.12 -11.82,-4.19 -17.66,-6.41 5.35,15.53 13.84,40.97 13.84,63.01 0,17.82 -5.56,33.42 -22.84,39.72 -2.82,1.03 -5.55,1.51 -8.19,1.51 -28.69,0 -46.28,-56.96 -46.32,-85.21 0,-2.08 0.09,-3.99 0.28,-5.72 -18.08,-4.59 -30.31,-13.55 -41.9,-24.07 m 109.95,301.77 c -1.89,0 -2.82,-2.97 -0.73,-3.8 37.91,-15.02 68.52,-41.7 88.45,-77.3 0.42,-0.75 1.11,-1.06 1.8,-1.06 1.33,0 2.63,1.17 1.81,2.63 -20.45,36.55 -51.61,63.94 -90.58,79.38 -0.26,0.11 -0.51,0.15 -0.75,0.15" />
      <path
         id="path194"
         style="fill:#fcdbe7;fill-opacity:1;fill-rule:nonzero;stroke:none"
         d="m 4265.95,2193.6 c -0.36,2.1 -0.75,4.19 -1.17,6.28 0.37,0.73 0.75,1.46 1.13,2.2 0.1,0.21 0.23,0.38 0.37,0.53 l -0.15,-8.67 c -0.06,-0.11 -0.12,-0.23 -0.18,-0.34" />
      <path
         id="path196"
         style="fill:#5ba08e;fill-opacity:1;fill-rule:nonzero;stroke:none"
         d="m 4102.32,1862.93 c -0.87,0 -1.74,0.5 -1.93,1.6 -9.89,56.47 16.7,103.18 48.21,147.84 1.76,2.49 3.45,5 5.19,7.49 -28.15,-22.19 -53.13,-47.71 -74.79,-76.48 -0.41,-0.55 -0.94,-0.78 -1.46,-0.78 -1.42,0 -2.8,1.67 -1.68,3.15 24.31,32.29 52.74,60.48 85.16,84.54 12.74,18.4 25.27,36.88 37.34,55.58 -20.35,-7.39 -40.71,-14.79 -61.07,-22.19 -0.25,-0.09 -0.49,-0.13 -0.71,-0.13 -1.95,0 -3,2.97 -0.86,3.74 18.52,6.73 37.03,13.46 55.55,20.19 -29.89,4.56 -59.78,9.13 -89.66,13.69 -2.38,0.36 -2.08,3.94 0.12,3.94 0.11,0 0.22,0 0.34,-0.02 32.98,-5.04 65.95,-10.08 98.92,-15.11 5.96,9.31 11.73,18.74 17.5,28.18 -22.62,5.26 -45.23,10.51 -67.84,15.76 -2.27,0.53 -2.04,3.97 0,3.97 0.14,0 0.3,-0.02 0.47,-0.06 l 69.54,-16.15 c 8.6,14.16 17.02,28.45 25.11,42.97 -33.81,26.37 -72.95,40.36 -115.87,41.4 -2.52,0.06 -2.07,3.92 0.41,3.92 0.01,0 0.03,0 0.05,0 43.36,-1.05 83.19,-15.34 117.36,-41.87 l 1.16,2.15 c -0.5,1.05 0.2,2.33 1.39,2.6 4.91,8.95 9.8,17.92 14.51,27.03 0.42,-2.09 0.81,-4.18 1.17,-6.28 -3.9,-7.53 -7.88,-15.02 -11.9,-22.47 l 0.75,-0.5 c 13.83,3.23 29.3,5.01 45.15,5.01 45.45,0 94.1,-14.6 116.64,-51.43 0.95,-1.55 -0.41,-3.28 -1.73,-3.28 -0.51,0 -1,0.24 -1.36,0.84 -21.72,35.48 -70.01,49.73 -114.68,49.73 -13.79,0 -27.23,-1.36 -39.45,-3.86 26.81,-17.24 51.49,-37.11 73.9,-59.88 1.35,-1.36 -0.09,-3.06 -1.63,-3.06 -0.51,0 -1.03,0.18 -1.46,0.62 -23.01,23.38 -48.44,43.63 -76.13,61.11 -0.97,-0.24 -2,-0.42 -2.96,-0.67 -8.16,-14.96 -16.64,-29.73 -25.33,-44.38 9.94,-31.48 17.23,-63.5 21.83,-96.18 0.19,-1.41 -0.94,-2.21 -2.03,-2.21 -0.87,0 -1.71,0.5 -1.87,1.61 -4.41,31.36 -11.31,62.04 -20.68,92.27 -5.9,-9.86 -11.8,-19.71 -17.97,-29.41 l -0.97,-1.46 c -6.74,-10.55 -13.56,-21.03 -20.63,-31.37 -4.88,-7.12 -9.95,-14.23 -15.09,-21.35 l 0.98,-0.66 1.34,-0.43 c 28.28,-23.89 53.71,-50.52 76.23,-79.9 1.14,-1.48 -0.23,-3.19 -1.65,-3.19 -0.51,0 -1.03,0.22 -1.44,0.75 -22.07,28.78 -46.95,54.91 -74.6,78.38 -4.55,-29.33 -7.53,-58.79 -8.89,-88.45 -0.05,-1.15 -0.88,-1.68 -1.77,-1.68 -1.06,0 -2.2,0.77 -2.13,2.14 1.34,29.63 4.32,59.05 8.86,88.34 l -0.71,-0.53 c -35.27,-48.84 -71.48,-98.99 -60.28,-162.92 0.24,-1.4 -0.87,-2.2 -1.97,-2.2 m 163.81,331.01 0.15,8.67 c 0.4,0.41 0.93,0.59 1.44,0.59 1.31,0 2.58,-1.13 1.83,-2.6 -1.13,-2.23 -2.28,-4.44 -3.42,-6.66" />
      <path
         id="path198"
         style="fill:#5ba08e;fill-opacity:1;fill-rule:nonzero;stroke:none"
         d="m 4317.82,2039.92 c -0.69,0 -1.38,0.31 -1.8,1.06 -19.93,35.6 -50.54,62.28 -88.45,77.3 -2.09,0.83 -1.16,3.8 0.73,3.8 0.24,0 0.49,-0.04 0.75,-0.15 38.97,-15.44 70.13,-42.83 90.58,-79.38 0.82,-1.46 -0.48,-2.63 -1.81,-2.63" />
      <path
         id="path200"
         style="fill:#bf8263;fill-opacity:1;fill-rule:nonzero;stroke:none"
         d="m 4442.4,1318.24 -13.81,-69.43 -38.93,-585.478 c -3.27,-16.82 -20.91,-29.352 -40.9,-29.352 H 4032.4 c -20.45,0 -38.45,13.079 -41.36,30.262 l -41.96,565.298 -15.17,88.7 h 508.49" />
      <path
         id="path202"
         style="fill:#f796b4;fill-opacity:1;fill-rule:nonzero;stroke:none"
         d="m 3969.22,958.238 -18.82,253.492 v 0 l 18.82,-253.492 v 0 m 469.64,342.182 3.54,17.82 -3.53,-17.79 c 0,-0.01 -0.01,-0.02 -0.01,-0.03" />
      <path
         id="path204"
         style="fill:#8f6149;fill-opacity:1;fill-rule:nonzero;stroke:none"
         d="m 3969.22,958.238 -18.82,253.492 122.94,1.87 10.2,-218.85 c -15.02,-5.648 -30.18,-10.93 -45.43,-15.918 -22.79,-7.473 -45.88,-13.852 -68.89,-20.594 m 212.77,81.702 -7.14,84.95 c 12.86,-21.27 26.36,-42.98 40.44,-65.09 -10.92,-6.93 -22.01,-13.55 -33.3,-19.86 m 184.97,145.43 -53.42,132.87 h 128.86 l -3.54,-17.82 c -10.93,-34.76 -31.36,-66.67 -54.25,-94.64 -5.7,-6.96 -11.59,-13.77 -17.65,-20.41" />
      <path
         id="path206"
         style="fill:#bf8263;fill-opacity:1;fill-rule:nonzero;stroke:none"
         d="m 3980.33,1224.09 h 419.07 c 29.5,0 57.06,16.5 65.5,39.51 l 24.3,66.22 c 4.67,12.73 -5.73,24.52 -21.8,24.52 h -558.47 c -16.5,0 -26.91,-12.38 -21.48,-25.34 l 28.19,-67.32 c 9.25,-22.09 36.12,-37.59 64.69,-37.59" />
      <path
         id="path208"
         style="fill:#8f6149;fill-opacity:1;fill-rule:nonzero;stroke:none"
         d="m 3402.13,1588.94 835.88,102.85 c 26.27,3.23 49.3,-21.68 49.8,-53.86 0.46,-30.28 -19.31,-55.13 -44.18,-55.51 l -107.12,-1.63 77.52,-921.868 c 1.18,-13.41 -9.38,-24.942 -22.84,-24.942 h -68.94 c -12.24,0 -22.32,9.59 -22.91,21.821 l -42.24,906.129 -358.52,-9.87 -24.53,-895.798 c -0.35,-12.41 -10.51,-22.282 -22.93,-22.282 h -37.19 c -12.78,0 -23,10.602 -22.53,23.36 l 31.25,884.74 -217.93,-3.32 c -12.89,-0.2 -22.85,13.87 -20.77,29.35 1.49,11.17 8.94,19.7 18.18,20.83" />
      <path
         id="path210"
         style="fill:#52c1ea;fill-opacity:1;fill-rule:nonzero;stroke:none"
         d="m 4219.64,1435.5 -528.09,-8.04 -200.05,816.85 c -16.23,66.26 -63.78,111.1 -116.94,110.29 l -633.94,-9.65 256.23,-1046.26 564.28,8.59 c 2.15,-56.26 40.62,-100.86 87.15,-100.15 l 574.71,8.75 c 47.34,0.72 85.01,48.05 84.13,105.7 l -0.17,10.82 c -0.88,57.66 -39.97,103.82 -87.31,103.1" />
      <path
         id="path212"
         style="fill:#5a78c4;fill-opacity:1;fill-rule:nonzero;stroke:none"
         d="m 3014.51,1468.72 -194.5,804.75 c -10.35,42.78 -42.84,72.04 -79.39,71.48 -49.94,-0.76 -87.09,-55.72 -78.46,-115.7 50.99,-354.46 128.6,-683.14 240.21,-978.87 13.48,-35.71 43.06,-58.37 75.25,-57.88 l 23.58,0.36 79.68,1.21 512.85,7.81 c 44.83,0.69 80.5,45.5 79.67,100.11 l -0.08,5.18 c -0.83,54.61 -37.85,98.32 -82.68,97.63 l -496.75,-7.55 c -36.55,-0.56 -69.05,28.7 -79.38,71.47" />
      <path
         id="path214"
         style="fill:#47a7ca;fill-opacity:1;fill-rule:nonzero;stroke:none"
         d="m 2976.6,1192.49 c -31.79,0 -60.9,22.56 -74.23,57.89 -111.61,295.73 -189.22,624.41 -240.21,978.87 -0.84,5.86 -1.25,11.67 -1.25,17.38 0,52.82 34.64,97.63 79.71,98.32 0.34,0.01 0.68,0.01 1.02,0.01 36.13,0 68.12,-29.11 78.37,-71.49 l 194.5,-804.75 c 10.24,-42.37 42.22,-71.48 78.35,-71.48 0.34,0 0.69,0 1.03,0.01 l 496.75,7.55 c 0.34,0.01 0.69,0.01 1.03,0.01 44.37,0 80.83,-43.46 81.65,-97.64 l 0.08,-5.18 c 0.01,-0.64 0.02,-1.28 0.02,-1.91 -0.02,-39.9 -19.51,-74.31 -47.69,-89.66 -4.77,-2.6 -9.79,-4.66 -15.01,-6.1 -5.47,-1.51 -11.15,-2.35 -16.99,-2.44 l -512.85,-7.81 -79.68,-1.21 -23.58,-0.36 c -0.35,0 -0.68,-0.01 -1.02,-0.01" />
      <path
         id="path216"
         style="fill:#452934;fill-opacity:1;fill-rule:nonzero;stroke:none"
         d="m 3493.02,2208.01 c -11.33,-6.82 -26.46,-4.6 -37.54,2.64 -11.07,7.23 -18.71,18.66 -24.77,30.42 -30.16,58.54 -27.06,128.38 -17.05,193.47 10,65.09 26.22,130.4 19.82,195.94 -6.41,65.54 -41.64,133.57 -103.61,155.85 l -239.13,-119.67 c 9.35,-78.26 20.06,-138.66 -23.04,-204.65 -27.85,-42.65 -73.36,-70.69 -104.88,-110.72 -54.64,-69.39 -58.73,-174.25 -9.66,-247.69 -6.5,24.84 -5.43,51.59 3.03,75.81 -3.29,-47.5 18.07,-96.05 55.32,-125.71 32.9,-26.21 79.06,-40.87 95.36,-79.65 8.78,-20.87 6.22,-46.11 -6.56,-64.79 -12.79,-18.68 -35.39,-30.21 -58.02,-29.59 89.14,-38.49 198.93,-6.44 266.3,63.47 67.38,69.92 95.88,170.81 93.46,267.87 23.32,-24.12 66.12,-25.54 90.97,-3" />
      <path
         id="path218"
         style="fill:#f8a482;fill-opacity:1;fill-rule:nonzero;stroke:none"
         d="m 3861.25,1960.78 c 0,0 167.15,70.12 213.97,-30.06 5.41,-12.23 -12.31,-16.01 -43.9,16.55 l -34.12,5.68 c 0,0 59.86,-35.72 65.71,-51.06 2.97,-7.78 -8.29,-23.75 -74.85,33.15 0,0 35.44,-32.1 41.36,-53.3 2.56,-9.16 -8.94,-15.55 -15.35,-8.51 l -44.1,48.48 29.77,-53.39 c 2.17,-3.91 1.63,-9.01 -1.82,-11.85 -5.82,-4.78 -18.84,-2.56 -46.07,47.41 l -0.53,-0.51 c -31.92,-10.04 -59.35,-14.06 -90.19,1.66 l -5.75,5.31 5.87,50.44" />
      <path
         id="path220"
         style="fill:#f9ee7d;fill-opacity:1;fill-rule:nonzero;stroke:none"
         d="m 3865.93,1965.72 -7,-59.53 -0.36,-0.09 -57.26,-6.63 -153.78,-17.81 c -31.07,-3.46 -62.25,10.26 -78.97,36.71 l -0.37,0.64 -13.63,21.81 -9.91,15.82 -144.96,232.84 -56.62,121.79 -29.44,63.34 -2.46,5.19 5.28,0.27 43.44,1.82 c 27.44,1.26 54.71,-6.27 77.43,-22.36 l 1.09,-0.64 c 24.63,-17.72 42.81,-43.26 54.26,-71.7 35.81,-89.35 80.16,-173.78 132.42,-253.58 3,-4.54 5.99,-8.99 8.99,-13.53 5.55,-8.19 11.09,-16.27 16.73,-24.37 l 214.57,-29.99 h 0.55" />
      <path
         id="path222"
         style="fill:#7e67ba;fill-opacity:1;fill-rule:nonzero;stroke:none"
         d="m 3459.45,2308.53 c -10.65,20.76 -30.34,37.32 -53.28,41.58 0.87,11.09 16.24,18.23 14.2,29.17 -0.69,3.66 -3.3,6.63 -5.92,9.29 -24.47,24.88 -69.22,42.96 -104.1,43.87 l 0.24,-6.22 c -2.42,-10.3 -3.28,-24.84 1.45,-34.31 4.49,-8.95 19.87,-12.16 28.57,-17.12 54.13,-30.92 92.01,-83.33 127.63,-134.49 4.02,22.99 1.86,47.46 -8.79,68.23" />
      <path
         id="path224"
         style="fill:#fccd79;fill-opacity:1;fill-rule:nonzero;stroke:none"
         d="m 3622.8,1882.5 c -0.02,0 -0.04,0 -0.05,0.01 0.01,-0.01 0.03,-0.01 0.05,-0.01 m -0.25,0.04 c -8.62,1.58 -16.93,4.48 -24.57,8.59 7.65,-4.11 15.95,-7 24.57,-8.59 m -24.62,8.61 c -0.05,0.03 -0.09,0.05 -0.13,0.07 0.04,-0.02 0.08,-0.04 0.13,-0.07" />
      <path
         id="path226"
         style="fill:#4e729d;fill-opacity:1;fill-rule:nonzero;stroke:none"
         d="m 3557.22,1936.57 -2.67,4.26 -2,3.2 2.01,-3.21 2.66,-4.25" />
      <path
         id="path228"
         style="fill:#dcd16e;fill-opacity:1;fill-rule:nonzero;stroke:none"
         d="m 3637.88,1881.15 c -5.09,0 -10.14,0.46 -15.08,1.35 -0.02,0 -0.04,0 -0.05,0.01 -0.07,0.01 -0.13,0.02 -0.2,0.03 -8.62,1.59 -16.92,4.48 -24.57,8.59 -0.02,0.01 -0.03,0.01 -0.05,0.02 -0.05,0.03 -0.09,0.05 -0.13,0.07 -11.71,6.34 -21.87,15.52 -29.22,27.15 l -0.34,0.59 -11.02,17.61 -2.66,4.25 -2.01,3.21 -7.9,12.64 -46.4,74.53 c 1.36,15.06 1.92,30.1 0,45.04 -0.7,5.42 -1.73,10.8 -3.08,16.09 2.54,4.23 4.79,8.58 6.74,13.04 24.55,-48.59 51.8,-95.61 81.65,-141.12 2.92,-4.56 5.94,-9.04 9.04,-13.52 5.42,-8.17 11.02,-16.35 16.61,-24.36 l 192.14,-26.86 -153.83,-17.81 c -3.22,-0.37 -6.44,-0.55 -9.64,-0.55" />
      <path
         id="path230"
         style="fill:#f9ee7d;fill-opacity:1;fill-rule:nonzero;stroke:none"
         d="m 3576.69,1768.64 c -17.25,60.68 -71.85,106.95 -82.37,169.13 -7.73,45.68 9.85,92.53 3.93,138.47 -3.22,25.02 -13.55,49.07 -29.46,68.64 l -132.08,-364.93 c 28.08,-23.86 66.86,-34.59 103.21,-28.55 18.64,3.09 36.35,10.29 54.85,14.15 18.48,3.86 38.93,4.01 54.93,-6.04 4.2,-2.64 8.05,-5.96 12.73,-7.62 4.66,-1.68 10.62,-1.21 13.61,2.75 2.93,3.87 1.97,9.34 0.65,14" />
      <path
         id="path232"
         style="fill:#f78fbf;fill-opacity:1;fill-rule:nonzero;stroke:none"
         d="m 4756.98,663.262 c -2.62,-8.633 -13.44,-11.813 -22.44,-12.453 L 4479.7,634.082 c -58.35,-3.82 -32.72,76.527 -32.72,76.527 l -91.34,140.692 C 4200.05,1072.87 4075.62,1272.91 4036,1413.88 l -472.24,-3.82 -135.6,-1.1 c -250.57,29.55 -352.27,93.62 -272.74,330.46 l 309.28,62.17 99.15,-53.53 542.58,-109.34 c 49.08,-12.72 90.62,-45.44 114.52,-90.16 l 66.89,-166.4 206.04,-512.5 52.61,-130.781 c 0,0 222.86,-34.629 210.49,-75.617" />
      <path
         id="path234"
         style="fill:#de80ac;fill-opacity:1;fill-rule:nonzero;stroke:none"
         d="m 4287.84,1382.16 c -46.54,44.5 -212.23,183.04 -270.29,183.04 -1.7,0 -3.31,-0.12 -4.82,-0.37 -38.8,-6.27 -41.63,-3.54 -79.16,-15.27 -39.35,-12.26 -78.16,-26.53 -116.61,-41.62 -75.79,-29.63 -150.41,-62.26 -227.2,-89.34 -8.64,-3 -17.27,-5.9 -26,-8.54 v 0 l -135.6,-1.1 c -194.53,22.94 -299.34,66.69 -299.27,195.94 0.01,15 1.43,31.14 4.29,48.54 0.31,-0.29 0.63,-0.58 0.95,-0.87 -20.6,-159.47 89.41,-220.68 219.22,-220.68 54.03,0 111.48,10.6 164.39,29.13 l 490.73,154.15 256.15,-175.25 23.22,-57.76 m -797.66,383.96 -22.32,20.97 c -0.18,4.81 -1.21,9.7 -3.2,14.46 0,0.01 -0.01,0.02 -0.01,0.03 l 0.05,0.01 52.08,-28.12 -26.6,-7.35" />
      <path
         id="path236"
         style="fill:#452934;fill-opacity:1;fill-rule:nonzero;stroke:none"
         d="m 4544.91,748.551 c -38.27,-14.539 -59.58,-26.031 -98.33,-39.18 -2.89,-9.922 -21.09,-78.859 33.1,-75.262 l 254.88,16.7 c 8.96,0.613 19.59,3.851 22.38,12.48 15.22,47.07 -154.31,76.012 -212.03,85.262" />
      <path
         id="path238"
         style="fill:#f78fbf;fill-opacity:1;fill-rule:nonzero;stroke:none"
         d="m 3517.74,1461.02 490.73,154.15 457.05,-312.69 123.99,-84.75 c 0,0 7.23,-84.14 59.67,-58.14 L 4878,1273.06 c 8.01,3.98 16.75,11.19 15.85,20.16 -4.21,42.59 -223.36,-11.12 -223.36,-11.12 l -96.13,93.67 -489.19,476.9 c -39.12,32.19 -90.16,46.37 -140.27,39.11 l -454.72,-125.66 -95.33,89.55 -239.46,-116.27 c -105.21,-304.76 161.41,-348.75 362.35,-278.38" />
      <path
         id="path240"
         style="fill:#452934;fill-opacity:1;fill-rule:nonzero;stroke:none"
         d="m 4893.85,1293.22 c -10.28,56.57 -205.37,11.2 -234.36,4.14 -18.29,-14.8 -32.78,-34.17 -46.23,-53.28 -7.7,-10.94 -15.16,-22.1 -22.87,-33.06 3.04,-19.39 15.52,-72.89 58.79,-51.43 L 4878,1273.06 c 8.02,3.98 17.46,11.29 15.85,20.16" />
      <path
         id="path242"
         style="fill:#52c1ea;fill-opacity:1;fill-rule:nonzero;stroke:none"
         d="m 3442.29,1906.12 c -1.21,-8.69 -1.88,-17.44 -1.99,-26.13 0,0 7.15,-37.2 24.36,-78.44 10.6,-25.4 -6.06,-54.19 -33.34,-57.87 -38.91,-5.24 -76.25,-6.89 -115.95,-7.33 -21.59,-0.23 -43.86,-0.08 -67.43,0.06 -33.55,0.22 -69.74,0.43 -110.32,-0.45 14.06,54.58 31,116.8 31.34,119.13 2.98,22.24 4.2,44.56 1.49,67.47 -7.25,62.77 -30.01,123.33 -44.73,185.44 -3.21,13.06 -6.03,26.19 -8.19,39.47 -5.64,33.49 -10.74,68.98 -11.51,104.29 -0.28,12.67 0,25.35 0.99,37.86 0.38,4.84 -0.98,9.01 -3.24,12.85 -12.6,21.38 -4.83,48.86 17.81,59.03 12.08,5.43 25.6,11.15 38.85,15.91 1.44,0.62 2.99,1.17 4.48,1.66 l 0.17,0.06 c 11.01,2.88 35.7,9.02 37.42,9.36 0,0 8.25,-2.83 37.81,-2.49 23.25,0.16 46.44,2.21 69.46,1.6 5.1,-0.17 10.14,-0.38 15.18,-0.89 l 0.55,-0.05 c 4.87,-0.44 73.96,-41.7 103.73,-89.55 12.46,-20.03 28.66,-37.53 40.19,-52.66 14.39,-19.04 24.41,-32.17 24.41,-32.17 25.8,-40.89 23.2,-93.65 -6.81,-131.73 l -24.96,-35.93 -19.77,-138.5" />
      <path
         id="path244"
         style="fill:#47a9cc;fill-opacity:1;fill-rule:nonzero;stroke:none"
         d="m 3343.89,2083.89 c -0.16,4.21 -0.44,8.4 -0.84,12.57 8.9,14.64 14.77,31.27 16.78,48.95 0.22,1.89 1.51,2.71 2.94,2.71 2.09,0 4.46,-1.75 4.15,-4.5 -2.44,-21.46 -10.45,-42.2 -23.03,-59.73" />
      <path
         id="path246"
         style="fill:#f9ee7d;fill-opacity:1;fill-rule:nonzero;stroke:none"
         d="m 3341.22,2039.14 c -12.89,-80.89 -14.72,-236.13 -10.88,-327.14 0.41,-9.65 -7.62,-17.29 -17.26,-16.87 -35.26,1.53 -63.81,-12.5 -88.61,-26.52 -34.01,-19.23 -60.97,-38.46 -88.45,-17.57 -11.44,8.68 -16.37,23.52 -12.95,37.47 14.69,59.89 36.86,160.15 37.15,162.24 3,22.26 4.21,44.56 1.5,67.48 -7.25,62.78 -21.28,127.66 -36,189.77 -3.21,13.06 -6.03,26.19 -8.19,39.47 -5.64,33.49 -34.13,170.79 -34.9,206.1 l 77.8,23.84 c 0,0 75.45,-88.12 133.02,-159.47 40.57,-50.16 57.96,-115.09 47.77,-178.8" />
      <path
         id="path248"
         style="fill:#f46b77;fill-opacity:1;fill-rule:nonzero;stroke:none"
         d="m 3140.58,1647.93 c -1.52,0.91 -3.04,1.95 -4.56,3.11 -0.65,0.49 -1.28,1 -1.89,1.53 v 0 c 0.61,-0.53 1.24,-1.04 1.89,-1.53 1.52,-1.16 3.04,-2.2 4.56,-3.11" />
      <path
         id="path250"
         style="fill:#dcd16e;fill-opacity:1;fill-rule:nonzero;stroke:none"
         d="m 3161.44,1642.01 c -7.03,0 -13.94,1.75 -20.86,5.92 -1.52,0.91 -3.04,1.95 -4.56,3.11 -0.65,0.49 -1.28,1 -1.89,1.53 -7.83,6.86 -12.11,16.8 -12.13,27.06 0,2.95 0.35,5.93 1.07,8.88 7.7,31.38 17.45,73.86 25.03,107.48 l 0.9,0.08 c -0.72,-1.6 0.56,-4.15 2.85,-4.15 0.14,0 0.28,0.01 0.43,0.03 13.12,1.77 26.27,3.39 39.44,4.84 -2.41,-16.02 -5.07,-31.99 -7.87,-47.89 -6.29,-35.69 -13.34,-71.23 -20.14,-106.83 -0.76,-0.04 -1.51,-0.06 -2.27,-0.06 m 41.36,263.27 c -11.57,0.96 -23.15,1.7 -34.74,2.22 -0.06,0 -0.11,0 -0.16,0 -0.09,0 -0.18,0 -0.27,-0.01 l -4.96,0.74 c -0.24,3.32 -0.55,6.66 -0.95,10 -6.15,53.29 -17.19,108.11 -29.39,161.45 0.89,0.15 1.68,0.76 1.94,1.95 5.18,23.57 9.68,47.27 13.52,71.08 10.23,-10.38 18.9,-22.24 24.62,-35.76 9,-21.25 15.1,-43.74 19.85,-66.29 10.14,-48.11 12.64,-96.76 10.54,-145.38" />
      <path
         id="path252"
         style="fill:#f8a482;fill-opacity:1;fill-rule:nonzero;stroke:none"
         d="m 3160.16,2377.73 0.24,-0.33 c 35.5,-42.36 65.44,-83.5 113.27,-110.17 12.83,-7.11 27.05,-12.48 41.66,-12.35 14.72,-0.04 29.76,5.79 38.88,17.28 32.24,40.43 -25.13,113.95 -25.13,113.95 -1.25,0.17 -2.4,0.35 -3.56,0.53 l -0.57,0.09 -0.23,0.03 c -6.79,0.96 -11.75,6.87 -11.44,13.73 l 2.55,57.16 3.33,77.72 -61.62,0.15 -45.77,0.12 -4.23,0.03 -1.17,-21.86 -3.34,-71.53 -0.43,-43.46 c -0.06,-6.05 -4.2,-11.29 -10.08,-12.74 -8.59,-2.12 -20.62,-5.15 -27.44,-6.95 l -0.18,-0.03 c -2.41,-0.69 -4.21,-1.18 -4.74,-1.37" />
      <path
         id="path254"
         style="fill:#461c1c;fill-opacity:1;fill-rule:nonzero;stroke:none"
         d="m 3314.72,2432.24 c -0.01,0 -0.02,0 -0.02,0 l 0.5,11.17 c 0,0 0,0 0.01,0 l -0.49,-11.17" />
      <path
         id="path256"
         style="fill:#963c95;fill-opacity:1;fill-rule:nonzero;stroke:none"
         d="m 3314.1,2409 c -0.14,0.01 -0.29,0.02 -0.44,0.02 l 1.04,23.22 c 0,0 0.01,0 0.02,0 l -0.61,-13.89 -0.01,-9.35" />
      <path
         id="path258"
         style="fill:#f68762;fill-opacity:1;fill-rule:nonzero;stroke:none"
         d="m 3313.66,2409.02 c -52.98,2.24 -78.46,35.31 -90.7,68 18.93,-14.03 36.04,-22.93 51.1,-28.37 10.65,-3.84 21.52,-5.67 32.19,-5.67 3,0 5.99,0.14 8.95,0.43 l -0.5,-11.17 -1.04,-23.22" />
      <path
         id="path260"
         style="fill:#f8a482;fill-opacity:1;fill-rule:nonzero;stroke:none"
         d="m 3403.38,2605.05 c -2.41,18.16 -4.74,36.24 -5.82,54.51 -1.54,26.21 -17.03,52.56 -32.39,74.58 -9.77,14.02 -21.6,26.61 -35.63,36.33 -37.39,25.9 -92.56,30.59 -134.09,13.15 -58.14,-24.41 -64,-83.2 -48.1,-135.99 -37.34,18.44 -38.97,-29.25 -38.97,-29.25 -1.64,-47.69 44.94,-47.45 44.94,-47.45 13.64,-45.53 44.7,-73.26 44.7,-73.26 29.05,-26.54 54.61,-41.28 76.04,-49.02 42.68,-15.41 88.89,1.59 112.17,38.82 19.16,30.64 23.9,65.48 19.34,100.94 -0.72,5.56 -1.46,11.11 -2.19,16.64" />
      <path
         id="path262"
         style="fill:#452934;fill-opacity:1;fill-rule:nonzero;stroke:none"
         d="m 3259.61,2596.39 c 1.59,-8.17 7.37,-14.21 12.92,-13.5 5.55,0.7 8.77,7.9 7.19,16.06 -1.59,8.15 -7.37,14.2 -12.92,13.5 -5.56,-0.71 -8.77,-7.9 -7.19,-16.06" />
      <path
         id="path264"
         style="fill:#452934;fill-opacity:1;fill-rule:nonzero;stroke:none"
         d="m 3347.49,2601.73 c 1.58,-8.16 7.36,-14.2 12.91,-13.49 5.55,0.7 8.77,7.89 7.18,16.05 -1.58,8.17 -7.36,14.21 -12.91,13.5 -5.56,-0.7 -8.77,-7.89 -7.18,-16.06" />
      <path
         id="path280"
         style="fill:#b5a5ac;fill-opacity:1;fill-rule:nonzero;stroke:none"
         d="m 3407.17,2564.24 c -0.01,8 -0.56,16.07 -1.6,24.17 -0.51,3.92 -1.02,7.82 -1.54,11.72 8.09,-4.29 13.33,-11.15 13.33,-18.89 0,-6.68 -3.91,-12.71 -10.19,-17" />
      <path
         id="path288"
         style="fill:#452934;fill-opacity:1;fill-rule:nonzero;stroke:none"
         d="m 3347.46,2660.31 c 1.91,1.05 3.9,1.11 5.77,0.96 12.38,-1.01 21.99,-11.17 24.42,-25.06 -0.84,1.87 -1.84,3.6 -3.26,4.9 l -0.25,0.17 c -0.79,0.89 -1.64,1.67 -2.58,2.29 -3.48,2.3 -7.77,3.02 -12,3.55 -4.24,0.55 -8.57,0.96 -12.34,2.71 -1.82,0.85 -3.65,2.36 -3.53,4.88 0.1,2.27 1.87,4.55 3.77,5.6" />
      <path
         id="path290"
         style="fill:#452934;fill-opacity:1;fill-rule:nonzero;stroke:none"
         d="m 3271.15,2659.57 c -1.86,1.28 -3.86,1.59 -5.73,1.68 -12.38,0.54 -22.28,-8.39 -25.12,-21.95 0.9,1.76 1.95,3.37 3.39,4.48 l 0.27,0.15 c 0.8,0.78 1.68,1.46 2.64,1.96 3.55,1.85 7.84,2.03 12.08,2.03 4.25,0.01 8.59,-0.12 12.4,1.16 1.84,0.62 3.71,1.89 3.67,4.42 -0.03,2.28 -1.73,4.78 -3.6,6.07" />
      <path
         id="path292"
         style="fill:#f68762;fill-opacity:1;fill-rule:nonzero;stroke:none"
         d="m 3309.08,2505.48 c -19.05,0 -38.08,8.08 -51.92,22.17 -3.08,3.14 -0.07,7.01 3.35,7.01 1.14,0 2.34,-0.44 3.37,-1.49 11.87,-12.09 28.4,-18.74 44.75,-18.74 3.53,0 7.06,0.31 10.53,0.95 0.31,0.05 0.6,0.08 0.89,0.08 4.87,0 6.14,-7.94 0.88,-8.91 -3.92,-0.72 -7.89,-1.07 -11.85,-1.07" />
      <path
         id="path294"
         style="fill:#fcd9e6;fill-opacity:1;fill-rule:nonzero;stroke:none"
         d="m 3840.04,1868.01 -468.59,-126.37 6.78,-23.64 471.06,130.81 -9.25,19.2" />
      <path
         id="path296"
         style="fill:#ffffff;fill-opacity:1;fill-rule:nonzero;stroke:none"
         d="m 3824.43,1899.96 -445.86,-125.85 -7.12,-32.47 468.59,126.37 -15.61,31.95" />
      <path
         id="path298"
         style="fill:#a1607b;fill-opacity:1;fill-rule:nonzero;stroke:none"
         d="m 3824.43,1899.96 24.86,-51.15 16.47,5.38 c 2.28,0.74 3.43,3.27 2.49,5.48 l -21.67,50.74 c -3.15,7.39 -11.49,11.07 -19.08,8.44 l -7.52,-2.61 c -8.24,-2.86 -12.42,-12.02 -9.18,-20.13 l 13.63,3.85" />
      <path
         id="path300"
         style="fill:#fcd9e6;fill-opacity:1;fill-rule:nonzero;stroke:none"
         d="m 3554.68,1828.33 -0.53,-22.11 -18.43,12.21 -93.92,179.94 c -2.73,5.23 -0.7,11.69 4.54,14.42 5.23,2.74 11.69,0.71 14.42,-4.53 l 93.92,-179.93" />
      <path
         id="path302"
         style="fill:#f9ee7d;fill-opacity:1;fill-rule:nonzero;stroke:none"
         d="m 3350.58,1880.23 -216.41,32.25 -0.59,0.1 -28.63,2.7 1.7,8.79 27.71,168.3 c 10.03,39.44 16.91,79.65 20.45,120.2 0.22,2.47 0.37,4.95 0.56,7.43 l 8.32,50.55 c 7.05,42.63 -3.29,106.85 -3.29,106.85 -20.11,1.92 -102.05,-24.68 -116.57,-36.32 -13.29,-10.62 -22.99,-25.71 -26.52,-43.53 -0.34,-1.43 -0.59,-2.87 -0.77,-4.41 l -19.57,-140.93 -33.74,-241.49 c -1.82,-12 -1.39,-23.61 0.61,-34.7 9.89,-52.75 59.17,-91.98 116.2,-85.54 l 319.42,25.88 -48.88,63.87" />
      <path
         id="path304"
         style="fill:#dcd16e;fill-opacity:1;fill-rule:nonzero;stroke:none"
         d="m 3326.63,1883.79 -123.97,18.48 c 0.05,1.01 0.1,2.01 0.14,3.01 41,-3.38 81.76,-9.48 121.96,-18.24 1.75,-0.38 2.25,-1.91 1.87,-3.25" />
      <path
         id="path306"
         style="fill:#dcd16e;fill-opacity:1;fill-rule:nonzero;stroke:none"
         d="m 3202.66,1902.27 -35.03,5.22 c 0.09,0.01 0.18,0.01 0.27,0.01 0.05,0 0.1,0 0.16,0 11.59,-0.52 23.17,-1.26 34.74,-2.22 -0.04,-1 -0.09,-2 -0.14,-3.01" />
      <path
         id="path308"
         style="fill:#f9ee7d;fill-opacity:1;fill-rule:nonzero;stroke:none"
         d="m 3323.95,1881.63 c -0.21,0 -0.43,0.02 -0.66,0.07 -51.07,11.13 -103.02,17.91 -155.23,20.27 -3.41,0.15 -3.56,5.25 -0.43,5.52 l 35.03,-5.22 88.2534,-13.1558 35.7166,-5.3242 c -0.32,-1.15 -1.3,-2.16 -2.68,-2.16"
         sodipodi:nodetypes="cccccccc" />
      <path
         id="path310"
         style="fill:#dcd16e;fill-opacity:1;fill-rule:nonzero;stroke:none"
         d="m 3191.72,1796.79 c 0.14,0.93 0.27,1.84 0.41,2.77 l 133.38,10.81 c 0.93,-1.61 0.17,-4.26 -2.28,-4.35 -43.94,-1.33 -87.82,-4.4 -131.51,-9.23" />
      <path
         id="path312"
         style="fill:#dcd16e;fill-opacity:1;fill-rule:nonzero;stroke:none"
         d="m 3151.85,1791.92 c -2.29,0 -3.57,2.55 -2.85,4.15 l 43.13,3.49 c -0.14,-0.93 -0.27,-1.84 -0.41,-2.77 -13.17,-1.45 -26.32,-3.07 -39.44,-4.84 -0.15,-0.02 -0.29,-0.03 -0.43,-0.03" />
      <path
         id="path314"
         style="fill:#f9ee7d;fill-opacity:1;fill-rule:nonzero;stroke:none"
         d="m 3149,1796.07 c 0.28,0.62 0.86,1.1 1.8,1.23 57.19,7.71 114.74,12.5 172.43,14.26 0.03,0 0.07,0 0.1,0 1.05,0 1.78,-0.49 2.18,-1.19 l -133.38,-10.81 -43.13,-3.49" />
      <path
         id="path316"
         style="fill:#f8a482;fill-opacity:1;fill-rule:nonzero;stroke:none"
         d="m 3580.51,1828.2 -30.56,60.37 c -1.05,2.09 -2.81,3.72 -4.97,4.63 l -52.93,22.36 c -9.57,4.04 -20.41,3.89 -29.87,-0.42 l -77.14,-35.18 -53.76,3.56 0.11,-73.14 68.07,5.98 c 4.63,0.4 9.21,1.19 13.7,2.35 l 38.69,10.02 15.06,-10.72 c 23.75,-13.66 28.73,9.5 28.73,9.5 20.27,-6.85 26.4,13.97 26.4,13.97 16.75,2.25 16.2,17.75 16.2,17.75 13.77,-21.17 26.68,-38.19 36.42,-39.78 4.65,-0.76 7.98,4.55 5.85,8.75" />
      <path
         id="path318"
         style="fill:#f78f11;fill-opacity:1;fill-rule:nonzero;stroke:none"
         d="m 3522.03,1839.72 c -0.21,0 -0.41,0.04 -0.6,0.12 0.42,1.01 0.61,1.64 0.61,1.64 0.52,0.07 1.03,0.16 1.52,0.25 l 0.28,-0.53 c -0.14,-0.91 -1,-1.48 -1.81,-1.48" />
      <path
         id="path320"
         style="fill:#f9b2af;fill-opacity:1;fill-rule:nonzero;stroke:none"
         d="m 3523.84,1841.2 -0.28,0.53 c 0.09,0.02 0.18,0.04 0.26,0.06 0.04,-0.21 0.04,-0.41 0.02,-0.59" />
      <path
         id="path322"
         style="fill:#f68762;fill-opacity:1;fill-rule:nonzero;stroke:none"
         d="m 3521.43,1839.84 c -0.38,0.16 -0.69,0.5 -0.81,1.05 -4.51,20.15 -25.86,28.18 -43.22,34.13 -1.82,0.63 -1.37,3.34 0.22,3.34 0.17,0 0.36,-0.03 0.55,-0.1 18.47,-6.33 40.86,-15.02 45.64,-36.4 0,-0.03 0.01,-0.05 0.01,-0.07 -0.08,-0.02 -0.17,-0.04 -0.26,-0.06 -0.49,-0.09 -1,-0.18 -1.52,-0.25 0,0 -0.19,-0.63 -0.61,-1.64" />
      <path
         id="path324"
         style="fill:#f78f11;fill-opacity:1;fill-rule:nonzero;stroke:none"
         d="m 3495.95,1824.93 c -0.35,0 -0.71,0.09 -1.01,0.29 0.51,1.37 0.7,2.29 0.7,2.29 0.64,-0.22 1.26,-0.4 1.87,-0.56 0.48,-1.21 -0.52,-2.02 -1.56,-2.02" />
      <path
         id="path326"
         style="fill:#f68762;fill-opacity:1;fill-rule:nonzero;stroke:none"
         d="m 3494.94,1825.22 c -0.26,0.18 -0.49,0.43 -0.63,0.79 -5.17,12.4 -16.83,21.45 -30.03,23.67 -2.01,0.33 -1.4,3.27 0.47,3.27 0.1,0 0.2,-0.01 0.31,-0.03 14.42,-2.42 26.83,-12.49 32.44,-25.95 0,-0.01 0.01,-0.02 0.01,-0.02 -0.61,0.16 -1.23,0.34 -1.87,0.56 0,0 -0.19,-0.92 -0.7,-2.29" />
      <path
         id="path328"
         style="fill:#f9b2af;fill-opacity:1;fill-rule:nonzero;stroke:none"
         d="m 3538.1,1857.06 c 0.17,1.32 0.14,2.17 0.14,2.17 0.33,-0.52 0.67,-1.03 1,-1.54 -0.28,-0.36 -0.7,-0.57 -1.14,-0.63" />
      <path
         id="path330"
         style="fill:#f68762;fill-opacity:1;fill-rule:nonzero;stroke:none"
         d="m 3537.83,1857.04 c -0.81,0 -1.6,0.51 -1.59,1.55 0.03,8.73 -7.59,14.21 -14.43,18.09 -8.29,4.71 -16.7,9.22 -25.05,13.83 -1.61,0.88 -0.67,3.14 0.81,3.14 0.25,0 0.52,-0.07 0.8,-0.22 9.18,-5.07 18.62,-9.84 27.56,-15.31 6.99,-4.26 13.67,-10.63 13.64,-19.41 0,-0.42 -0.13,-0.76 -0.33,-1.02 -0.33,0.51 -0.67,1.02 -1,1.54 0,0 0.03,-0.85 -0.14,-2.17 -0.09,-0.01 -0.18,-0.02 -0.27,-0.02" />
      <path
         id="path332"
         style="fill:#431e14;fill-opacity:1;fill-rule:nonzero;stroke:none"
         d="m 3132.27,2079.67 0.02,0.16 c 0.01,-0.05 0.02,-0.1 0.04,-0.15 -0.02,0 -0.04,-0.01 -0.06,-0.01" />
      <path
         id="path334"
         style="fill:#dcd16e;fill-opacity:1;fill-rule:nonzero;stroke:none"
         d="m 3147.79,2152.71 c -0.18,0.2 -0.37,0.38 -0.56,0.57 3.32,19.65 5.85,39.43 7.58,59.29 0.22,2.47 0.37,4.95 0.56,7.43 l 3.55,21.59 c 0.03,-0.21 0.03,-0.43 0.01,-0.67 -2.7,-29.52 -6.42,-58.94 -11.14,-88.21" />
      <path
         id="path336"
         style="fill:#dcd16e;fill-opacity:1;fill-rule:nonzero;stroke:none"
         d="m 3132.33,2079.68 c -0.02,0.05 -0.03,0.1 -0.04,0.15 l 2.07,12.54 c 5.12,20.12 9.42,40.45 12.87,60.91 0.19,-0.19 0.38,-0.37 0.56,-0.57 -3.0281,-18.776 -6.4667,-37.4837 -10.3255,-56.1131 -1.0346,-4.9947 -2.0993,-9.9837 -3.1945,-14.9669 -0.26,-1.19 -1.05,-1.8 -1.94,-1.95"
         sodipodi:nodetypes="cccccscc" />
      <path
         id="path338"
         style="fill:#dcd16e;fill-opacity:1;fill-rule:nonzero;stroke:none"
         d="m 3131.86,2079.64 c -1.63,0 -3.38,1.37 -2.92,3.46 11.42,52.05 19.59,104.76 24.46,157.82 0.16,1.76 1.63,2.65 3.01,2.65 1.2,0 2.33,-0.66 2.51,-1.98 l -2.5837,-15.7135 -0.4295,-2.6121 L 3155.37,2220 c -0.19,-2.48 -0.34,-4.96 -0.56,-7.43 -0.1515,-1.7387 -0.309,-3.4767 -0.4728,-5.2141 -0.1065,-1.1308 -0.2156,-2.2612 -0.3274,-3.3914 -1.6776,-16.9691 -3.9396,-33.8744 -6.7798,-50.6845 -3.45,-20.46 -7.75,-40.79 -12.87,-60.91 l -2.07,-12.54 -0.02,-0.16 c -0.14,-0.02 -0.28,-0.03 -0.41,-0.03"
         sodipodi:nodetypes="cccscccccssccccc" />
      <path
         id="path340"
         style="fill:#452934;fill-opacity:1;fill-rule:nonzero;stroke:none"
         d="m 3447.96,2702.4 c -4.09,-4.42 -11.33,-4.58 -16.72,-1.91 -5.4,2.67 -9.32,7.56 -12.83,12.44 -16.5,22.89 -28.22,49.07 -46.08,70.92 -29.88,36.56 -76.77,58.6 -123.99,58.29 -47.22,-0.31 -93.81,-22.97 -123.21,-59.92 -29.4,-36.95 -41.01,-87.44 -30.7,-133.52 3.63,-16.22 9.78,-31.81 12.94,-48.12 3.16,-16.31 3.04,-34.1 -5.26,-48.5 5.39,1.61 10.77,3.22 16.15,4.82 10.5,-32.73 52.58,-69.18 86.75,-65.46 -17.07,10.45 -30.43,46.22 -29.04,66.19 1.38,19.72 8.89,38.4 13.99,57.5 22.11,24.35 37.11,55.22 41.72,87.8 6.63,-18.36 3.57,-39.92 -7.89,-55.73 41.48,10.43 78.65,37.12 101.8,73.08 -3.7,-21.32 -13.22,-41.6 -27.26,-58.06 25.51,3.74 49.33,18 64.66,38.74 -4.52,-49.92 46.63,-92.31 41.78,-142.2 30.25,35.72 33.77,91.54 8.23,130.77 12.77,-3.79 27.71,1.71 34.96,12.87" />
      <path
         id="path342"
         style="fill:#8f6149;fill-opacity:1;fill-rule:nonzero;stroke:none"
         d="m 2815.36,1580.01 835.87,102.84 c 26.27,3.23 49.31,-21.68 49.8,-53.86 0.46,-30.27 -19.32,-55.12 -44.17,-55.5 l -107.12,-1.63 25.24,-914.29 c 0.37,-12.922 -10,-23.601 -22.93,-23.601 h -30.33 c -12.37,0 -22.52,9.82 -22.93,22.179 L 3470.32,1553 3111.8,1543.12 2893.39,651.238 c -2.59,-10.168 -11.74,-17.269 -22.22,-17.269 h -32.33 c -15.04,0 -26.01,14.23 -22.18,28.769 l 219.21,870.402 -217.93,-3.32 c -12.89,-0.19 -22.84,13.88 -20.77,29.35 1.49,11.17 8.94,19.71 18.19,20.84" />
      <path
         id="path344"
         style="fill:#8f6149;fill-opacity:1;fill-rule:nonzero;stroke:none"
         d="m 6159.56,1538.22 -835.88,102.85 c -26.27,3.23 -49.31,-21.68 -49.79,-53.87 -0.47,-30.27 19.31,-55.13 44.17,-55.51 l 107.11,-1.62 -77.51,-885.289 c -1.18,-13.41 9.39,-24.949 22.85,-24.949 h 68.93 c 12.24,0 22.32,9.609 22.91,21.828 l 42.24,869.54 358.52,-9.86 24.53,-859.219 c 0.35,-12.41 10.51,-22.289 22.93,-22.289 h 37.19 c 12.78,0 23,10.609 22.53,23.367 l -31.25,848.151 217.93,-3.31 c 12.89,-0.2 22.84,13.87 20.77,29.34 -1.49,11.18 -8.93,19.7 -18.18,20.84" />
      <path
         id="path346"
         style="fill:#52c1ea;fill-opacity:1;fill-rule:nonzero;stroke:none"
         d="m 5342.05,1384.77 528.1,-8.04 200.04,816.84 c 16.22,66.26 63.77,111.12 116.94,110.31 l 633.94,-9.66 -256.23,-1046.25 -564.28,8.58 c -2.15,-56.26 -40.62,-100.86 -87.14,-100.15 l -574.72,8.75 c -47.33,0.72 -85,48.04 -84.13,105.7 l 0.17,10.83 c 0.88,57.66 39.97,103.81 87.31,103.09" />
      <path
         id="path348"
         style="fill:#f680c6;fill-opacity:1;fill-rule:nonzero;stroke:none"
         d="m 6547.19,1418 194.5,804.74 c 10.34,42.78 42.83,72.04 79.38,71.48 49.95,-0.75 87.08,-55.72 78.46,-115.69 -50.99,-354.48 -128.59,-683.15 -240.21,-978.88 -13.47,-35.7 -43.06,-58.36 -75.25,-57.87 l -23.58,0.35 -79.69,1.22 -512.83,7.8 c -44.84,0.69 -80.51,45.51 -79.68,100.11 l 0.08,5.19 c 0.83,54.6 37.85,98.32 82.68,97.63 l 496.75,-7.57 c 36.55,-0.55 69.05,28.72 79.39,71.49" />
      <path
         id="path350"
         style="fill:#47a7ca;fill-opacity:1;fill-rule:nonzero;stroke:none"
         d="m 6539.25,1142.45 -58.45,0.9 -401.11,6.1 6.06,182.91 c 21.54,4.13 38.78,10.83 52.52,19.17 l 329.53,-5.02 c 0.34,0 0.69,0 1.03,0 6.05,0 11.98,0.81 17.71,2.37 l 52.71,-206.43 m 74.47,5.63 -68.82,261.77 c 0.85,2.66 1.62,5.37 2.29,8.15 l 15.43,63.86 181.13,-2.76 c 0.09,0 0.18,0 0.26,0 3.17,0 6.15,0.86 8.81,2.38 -28.1,-96.92 -59.19,-190.93 -93.5,-281.83 -9.16,-24.28 -25.78,-42.53 -45.6,-51.57 m -612.42,2.57 -33.33,0.5 c -11.42,0.18 -22.24,3.21 -32.01,8.54 -28.17,15.36 -47.67,49.77 -47.68,89.65 0,0.64 0,1.28 0.01,1.92 l 0.08,5.19 c 0.4,26.52 9.35,50.48 23.58,68.02 l 94.42,2.58 -5.07,-176.4 m 761.28,365.06 c -3.09,7.45 -9.13,12.7 -16.24,13.58 l -167.28,20.58 162.63,672.87 c 10.24,42.38 42.22,71.49 78.36,71.49 0.34,0 0.68,-0.01 1.02,-0.01 45.07,-0.68 79.71,-45.5 79.71,-98.31 0,-5.72 -0.41,-11.53 -1.25,-17.38 -33.47,-232.74 -78.43,-454.35 -136.95,-662.82" />
      <path
         id="path352"
         style="fill:#f8a482;fill-opacity:1;fill-rule:nonzero;stroke:none"
         d="m 5333.28,1611.13 -11.81,9.14 -45.03,-71.37 c 0,0 -42.3,-12.87 33,84.01 l -13.48,11.85 -79.61,-62.11 c 0,0 -43.17,5.39 65.6,77.43 l -10.86,13.57 -84.8,-52.37 c 0,0 -47.43,10.05 81.85,82.46 l 35.93,42.69 -16.86,22.7 c 0,0 -65.16,-12.89 -67.13,21.53 0,0 33.69,-7.67 77.31,7.61 17.02,6.04 35.42,7.28 52.87,2.55 l 37.75,-10.2 389.43,172.84 160.64,293.98 c 20.32,27.83 55.28,40.84 88.83,33.07 63.47,-14.72 88.13,-91.94 44.93,-140.71 l -146.58,-230.61 c -30.75,-37 -68.77,-67.3 -111.7,-89.02 l -381.47,-87.72 c 0,0 -1.37,-49.78 -63.62,-98.61 l -37.54,-83.26 c 0,0 -32.7,-21.74 2.35,50.55" />
      <path
         id="path354"
         style="fill:#5a78c4;fill-opacity:1;fill-rule:nonzero;stroke:none"
         d="m 6026.91,2290.51 c -33.55,7.77 -68.51,-5.24 -88.83,-33.07 l -160.64,-293.98 -305.36,-135.53 c 9.78,-22.94 17.71,-46.65 24.92,-70.56 l 316.56,72.8 c 42.93,21.73 80.95,52.02 111.7,89.02 l 146.58,230.61 c 43.2,48.77 18.54,125.99 -44.93,140.71" />
      <path
         id="path356"
         style="fill:#5870c0;fill-opacity:1;fill-rule:nonzero;stroke:none"
         d="m 5497,1757.37 v 0.01 0 c 0,0 0,0 0,-0.01 l 316.56,72.8 v 0 0 0 L 5497,1757.37" />
      <path
         id="path358"
         style="fill:#535696;fill-opacity:1;fill-rule:nonzero;stroke:none"
         d="m 5497,1757.38 c -1.86,6.18 -3.78,12.33 -5.76,18.47 h 0.01 c 1.98,-6.14 3.89,-12.3 5.75,-18.47 v 0" />
      <path
         id="path360"
         style="fill:#4054ad;fill-opacity:1;fill-rule:nonzero;stroke:none"
         d="m 5497,1757.37 c 0,0.01 0,0.01 0,0.01 -1.86,6.17 -3.77,12.33 -5.75,18.47 43.81,11.38 88.68,18.56 132.99,27.76 29.53,6.15 59.24,12.93 87.62,23.26 24.29,8.84 49.5,15.52 72.6,27.37 10.78,5.53 21.24,12.16 29.53,21.07 9.07,9.76 16.25,21.09 22.44,32.83 6.35,12.08 11.52,24.73 17.61,36.94 6.52,13.04 13.05,26.06 19.46,39.16 15.74,32.14 31.66,63.98 49.7,94.61 l 7.06,-144.93 -0.27,-7.29 -4.73,-7.44 c -30.75,-37 -68.77,-67.29 -111.7,-89.02 v 0 L 5497,1757.37" />
      <path
         id="path362"
         style="fill:#ffffff;fill-opacity:1;fill-rule:nonzero;stroke:none"
         d="m 5444.95,1817.7 47.63,41.57 c 4.55,3.97 11.64,2.39 14.01,-3.18 8.82,-20.71 26.72,-66.18 29.44,-99.87 0.42,-5.19 -3.7,-9.63 -8.91,-9.63 h -60.89 c -3.99,0 -7.5,2.67 -8.57,6.52 l -15.43,55.5 c -0.91,3.3 0.14,6.84 2.72,9.09" />
      <path
         id="path364"
         style="fill:#f8a482;fill-opacity:1;fill-rule:nonzero;stroke:none"
         d="m 6185.89,1486.19 c 0,0 44.05,-158.42 -153.14,-158.42 l -445.48,-12.16 -216.51,-460.098 v -107.66 c 16.82,-40.512 43.76,-83.653 24.35,-130.922 h -413.85 c 0,0 -31.64,43.82 0,53.562 131.75,21.789 218.62,79.199 262.92,170.406 0,0 134.68,404.022 145.69,566.652 1.68,24.8 19.23,45.67 43.26,52.01 l 322.1,84.87 c 153.97,96.5 296.85,69.68 430.66,-58.24" />
      <path
         id="path366"
         style="fill:#f9ee7d;fill-opacity:1;fill-rule:nonzero;stroke:none"
         d="m 5370.76,764.32 c -58.27,0.739 -139.12,50.77 -126.58,76.578 0,0 134.68,404.022 145.69,566.652 1.68,24.8 19.23,45.67 43.26,52.01 0,0 398.39,125.41 435.53,134.47 111.41,27.17 216.87,-11.9 317.23,-107.84 0,0 44.05,-158.42 -153.14,-158.42 l -445.48,-12.16 -216.51,-551.29" />
      <path
         id="path368"
         style="fill:#452934;fill-opacity:1;fill-rule:nonzero;stroke:none"
         d="m 4981.26,670.492 c 85.97,14.219 152.7,43.699 201.09,87.738 62.67,-4.98 125.51,-7.769 188.41,-8.582 v -1.796 c 16.82,-40.512 43.76,-83.653 24.35,-130.922 h -413.85 c 0,0 -31.64,43.82 0,53.562" />
      <path
         id="path370"
         style="fill:#f8a482;fill-opacity:1;fill-rule:nonzero;stroke:none"
         d="m 6098.15,2447.33 20.67,-97.93 c -33.59,-51.26 -101.47,-50.12 -121.53,-48.58 -3.65,0.25 -5.75,0.59 -5.75,0.59 -0.53,2.73 -1.1,5.39 -1.72,8.13 -11.94,55.87 -28.81,107.46 -28.81,107.46 l -11.24,-1.49 -44.17,-5.76 c -33.75,0.6 -37.62,33.91 -38.03,43.63 -0.08,2.71 -0.26,5.37 -0.57,8.13 l -12.51,41.95 -9.9,8.11 c -15.68,16.04 -9.99,24.18 -9.99,24.18 l 37.75,45.8 c -10.13,103.19 49.34,131.55 49.34,131.55 206.75,103.2 256.72,-82 256.72,-82 34.15,-141.98 -80.26,-183.77 -80.26,-183.77" />
      <path
         id="path372"
         style="fill:#f8a482;fill-opacity:1;fill-rule:nonzero;stroke:none"
         d="m 5988.53,2315.59 8.06,-62.07 c 35.73,31.55 60.75,59.87 86.36,104.7 -33.16,-11.89 -66.1,-25.02 -94.42,-42.63" />
      <path
         id="path374"
         style="fill:#f7936e;fill-opacity:1;fill-rule:nonzero;stroke:none"
         d="m 5988.55,2315.42 v 0 l -0.02,0.17 c -0.01,-0.01 -0.01,-0.01 -0.02,-0.01 -11.83,53.49 -27.5,101.42 -27.5,101.42 l -11.24,-1.49 13.81,2.45 c 2.66,0.46 5.3,0.69 7.88,0.69 25.59,0 46.85,-21.79 44.77,-48.42 -1.26,-15.83 -5.31,-32.71 -14.8,-47.08 -4.39,-2.43 -8.7,-4.95 -12.9,-7.56 l 0.02,-0.17" />
      <path
         id="path376"
         style="fill:#f7936e;fill-opacity:1;fill-rule:nonzero;stroke:none"
         d="m 5989.82,2309.54 c -0.42,1.97 -0.84,3.93 -1.27,5.88 v 0 l -0.02,0.17 c 4.2,2.61 8.51,5.13 12.9,7.56 -3.21,-4.87 -7.04,-9.45 -11.61,-13.61" />
      <path
         id="path378"
         style="fill:#f6845e;fill-opacity:1;fill-rule:nonzero;stroke:none"
         d="m 5881.03,2485.6 c -1.7,0 -3.41,0.09 -5.12,0.27 -4.27,0.45 -4.04,6.93 0,6.93 0.14,0 0.28,-0.01 0.43,-0.02 1.51,-0.16 3.03,-0.24 4.55,-0.24 13,0 25.88,5.76 34.18,15.91 0.76,0.93 1.85,1.52 2.97,1.52 0.62,0 1.25,-0.18 1.83,-0.58 1.45,-0.96 2.14,-3.34 0.95,-4.8 -9.72,-11.87 -24.51,-18.99 -39.79,-18.99" />
      <path
         id="path380"
         style="fill:#f68964;fill-opacity:1;fill-rule:nonzero;stroke:none"
         d="m 5999.28,2480.63 c -1.58,0.1 -2.92,1.26 -3.2,2.88 -0.32,1.89 0.95,3.68 2.84,4 21.63,3.66 36.77,11.48 45.03,23.25 8.59,12.21 6.47,24.65 6.44,24.78 -0.34,1.87 0.9,3.67 2.76,4.02 0.23,0.05 0.46,0.07 0.68,0.07 1.64,0 3.06,-1.17 3.37,-2.82 0.11,-0.62 2.72,-15.23 -7.47,-29.89 -9.35,-13.41 -26.06,-22.23 -49.65,-26.25 l -0.8,-0.04" />
      <path
         id="path382"
         style="fill:#f68964;fill-opacity:1;fill-rule:nonzero;stroke:none"
         d="m 5990.47,2495.05 -0.28,0.01 c -1.78,0.11 -3.21,1.58 -3.24,3.4 -0.26,18.92 18.01,25.82 27.71,26.83 0.13,0.01 0.26,0.02 0.38,0.02 1.72,0 3.23,-1.33 3.42,-3.11 0.19,-1.9 -1.19,-3.6 -3.09,-3.8 -0.89,-0.09 -21.75,-2.45 -21.49,-19.84 0.03,-1.91 -1.51,-3.48 -3.41,-3.51" />
      <path
         id="path384"
         style="fill:#452934;fill-opacity:1;fill-rule:nonzero;stroke:none"
         d="m 5926.27,2597.44 -0.01,-0.08 0.36,-1.11 c -14.04,-2.46 -29.02,2.87 -37.9,14.04 -1.41,1.77 -2.69,3.75 -3.01,6.05 -0.3,2.29 0.65,4.96 2.69,6 2.27,1.16 4.91,-0.01 6.93,-1.44 4.18,-2.97 7.49,-7.03 10.85,-10.96 3.36,-3.92 6.93,-7.82 11.41,-10.27 2.63,-1.45 5.66,-2.22 8.68,-2.23" />
      <path
         id="path386"
         style="fill:#452934;fill-opacity:1;fill-rule:nonzero;stroke:none"
         d="m 5901.66,2572.14 c -1.06,-7.61 -6.1,-13.51 -11.26,-13.17 -5.17,0.33 -8.5,6.78 -7.44,14.39 1.06,7.61 6.1,13.51 11.27,13.18 5.16,-0.34 8.48,-6.78 7.43,-14.4" />
      <path
         id="path388"
         style="fill:#452934;fill-opacity:1;fill-rule:nonzero;stroke:none"
         d="m 6119.04,2396.22 c 0.96,-0.15 1.99,-0.15 2.94,-0.15" />
      <path
         id="path390"
         style="fill:#452934;fill-opacity:1;fill-rule:nonzero;stroke:none"
         d="m 6093.52,2766.3 c 0.81,0.81 1.69,1.47 2.63,2.13" />
      <path
         id="path392"
         style="fill:#5a78c4;fill-opacity:1;fill-rule:nonzero;stroke:none"
         d="m 5930.26,1933.92 -14.6,-389.52 c 267.73,99.86 431.57,-94.94 431.57,-94.94 l -10.42,414.84 c 13.21,100.95 12.4,182.32 5.57,245.78 -10.42,97.29 -58.1,186.73 -132.35,250.34 l -26.86,23.04 c -1.25,1.1 -2.5,2.2 -3.81,3.23 l -5.65,4.91 -0.44,-0.14 c -28.03,-11.89 -59.29,-22.09 -90.32,-33.24 -25.61,-44.83 -50.63,-73.15 -86.36,-104.7 l -8.06,62.07 c -20.92,-12.91 -39.33,-28.25 -53.57,-47.4 l -0.23,-0.31 c -12.99,-17.5 -18.83,-39.3 -17.77,-61.06 l 13.3,-272.9" />
      <path
         id="path394"
         style="fill:#584fab;fill-opacity:1;fill-rule:nonzero;stroke:none"
         d="m 6347.23,1449.46 c 0,0 -18.45,21.89 -53.04,47.23 h 0.08 c 34.56,-25.34 52.96,-47.23 52.96,-47.23 v 0" />
      <path
         id="path396"
         style="fill:#4054ad;fill-opacity:1;fill-rule:nonzero;stroke:none"
         d="m 6347.23,1449.46 c 0,0 -18.4,21.89 -52.96,47.23 l 51.81,-1.43 1.15,-45.8 m -3.25,129.33 -93.75,11.54 c 0.01,0.53 0.02,1.05 0.03,1.58 31.45,0.76 63.14,2.48 93.25,5.61 l 0.47,-18.73 m -97.93,144.15 c -1.25,17.62 -2.73,35.23 -4.36,52.81 -3.39,36.46 -7.47,72.69 -14,108.73 -9.87,54.5 -22.62,108.48 -31.16,163.21 42.71,-87.56 118.52,-239.92 142.93,-288.91 l 0.43,-17.12 -93.84,-18.72" />
      <path
         id="path398"
         style="fill:#f8a482;fill-opacity:1;fill-rule:nonzero;stroke:none"
         d="m 6346.28,1486.19 c 0,0 44.06,-158.42 -153.13,-158.42 l -445.48,-12.16 -43.82,-460.098 v -107.66 c 16.8,-40.512 43.75,-83.653 24.33,-130.922 h -413.83 c 0,0 -31.65,43.82 0,53.562 131.73,21.789 218.61,79.199 262.91,170.406 0,0 -38,404.022 -26.99,566.652 1.68,24.8 19.23,45.67 43.27,52.01 l 322.09,84.87 c 153.96,96.5 296.85,69.68 430.65,-58.24" />
      <path
         id="path400"
         style="fill:#f9ee7d;fill-opacity:1;fill-rule:nonzero;stroke:none"
         d="M 5703.85,855.512 V 764.32 c -58.28,0.739 -139.13,50.77 -126.59,76.578 0,0 -38,404.022 -26.99,566.652 1.68,24.8 19.23,45.67 43.27,52.01 l 322.09,84.87 c 153.96,96.5 296.85,69.68 430.65,-58.24 0,0 44.06,-158.42 -153.13,-158.42 l -445.48,-12.16 -43.82,-460.098" />
      <path
         id="path402"
         style="fill:#452934;fill-opacity:1;fill-rule:nonzero;stroke:none"
         d="m 5314.35,670.492 c 85.95,14.219 152.69,43.699 201.08,87.738 62.67,-4.98 125.51,-7.769 188.42,-8.582 v -1.796 c 16.8,-40.512 43.75,-83.653 24.33,-130.922 h -413.83 c 0,0 -31.65,43.82 0,53.562" />
      <path
         id="path404"
         style="fill:#ffffff;fill-opacity:1;fill-rule:nonzero;stroke:none"
         d="m 5983.83,2242.51 6.82,-2.86 40.44,-37.71 c 77.92,7.26 152.08,181.52 152.08,181.52 -1.25,1.1 -2.5,2.19 -3.81,3.23 -1.99,1.68 -4.04,3.22 -6.09,4.77 -19.52,14.3 -40.57,21.2 -63.4,19.21 -9.31,-19.95 -18.11,-37.12 -26.92,-52.45 -25.61,-44.83 -50.63,-73.15 -86.36,-104.7 -4.11,-3.6 -8.36,-7.26 -12.76,-11.01" />
      <path
         id="path406"
         style="fill:#ffffff;fill-opacity:1;fill-rule:nonzero;stroke:none"
         d="m 5960.31,2335 c -25.58,-11.21 -36.9,-41.38 -25.35,-66.81 l 23.04,-50.62 32.65,22.08 7.11,4.84 -1.17,9.03 -8.06,62.07 -7.64,31.94 c 0,0 -6.64,-6.43 -20.58,-12.53" />
      <path
         id="path408"
         style="fill:#452934;fill-opacity:1;fill-rule:nonzero;stroke:none"
         d="m 5855.98,2696.8 c -10.68,4.21 -10.17,19.33 0.78,22.77 3.06,0.96 6.01,2.28 8.72,3.88 l 0.98,0.71 -0.17,0.08 c -8.46,3.77 -9.11,15.51 -1.53,20.82 14.98,10.51 32.15,17.91 50.11,21.48 -6.29,0.05 -12.58,1.16 -18.49,3.26 10.86,-2.37 22.02,2.61 31.11,9.02 9.09,6.41 17.16,14.4 27.09,19.39 19.49,9.79 42.69,6.57 64.22,3.1 -9.65,4.13 -18.45,10.2 -25.73,17.75 11.36,-8.11 25.83,-10.32 39.73,-11.61 13.91,-1.29 28.24,-1.99 40.96,-7.75 12.38,-5.6 23,-17.44 22.95,-30.93 12.9,9.27 31.64,8.22 46.11,1.05 15.77,-7.7 27.81,-21.06 40.13,-33.53 12.33,-12.47 26.04,-24.72 43.08,-29.05 -8.37,-1.47 -17.18,-0.52 -25.02,2.78 13.49,-8.21 24.2,-21.27 28.76,-36.39 4.39,-14.89 2.93,-30.81 0.58,-46.07 -2.35,-15.33 -5.65,-30.67 -4.63,-46.15 0.96,-15.48 6.98,-31.41 19.52,-40.5 -13.79,5.87 -26.12,15.19 -35.65,26.78 -1.69,-7.7 -3.9,-15.34 -6.39,-22.96 -0.73,-5.73 -1.25,-11.45 -1.46,-17.25 -0.73,-20.61 2.34,-41.67 12.18,-59.79 -8.67,8.14 -17.32,16.28 -25.98,24.43 3.89,-7.33 2.65,-16.44 -0.29,-24.21 -3.01,-7.78 -7.63,-14.82 -10.57,-22.6 -6.23,-16.43 -4.25,-35.81 5.21,-50.62 -12.54,6.01 -22.15,17.75 -25.45,31.25 -1.84,-16.73 -18.13,-30.45 -34.86,-29.87 -1.54,-7.11 -3.96,-14.01 -7.26,-20.46 -13.14,18.41 -18.86,41.6 -16.95,64.05 -0.14,7.41 0.51,14.89 2.05,22.23 -9.02,-9.47 -15.18,-21.57 -17.53,-34.41 -10.71,23.48 -13.21,50.63 -6.82,75.64 -9.02,-15.41 -29.65,-22.89 -46.45,-16.8 10.42,6.02 20.47,13.5 26.63,23.92 6.1,10.42 7.56,24.14 1.18,34.41 -9.39,14.97 -32.13,16.36 -47.4,7.48 -15.26,-8.95 -24.72,-25.09 -32.79,-40.86 -12.84,16.28 -18.5,38.15 -15.05,58.7 -1.76,-9.03 -9.75,-16.44 -18.85,-17.54 9.68,10.64 9.47,27.36 3.89,40.57 -5.65,13.21 -15.63,23.92 -24.43,35.29 -8.81,11.3 -16.88,24.14 -17.54,38.52 -6.9,-8.44 -9.9,-19.95 -7.85,-30.67 -8.88,1.1 -16.73,7.78 -19.15,16.36 -10.05,-22.67 -12.77,-48.49 -7.7,-72.78 -23.41,32.95 -26.2,79.39 -6.76,114.9 -2.46,0.52 -4.88,1.26 -7.22,2.18" />
      <path
         id="path410"
         style="fill:#8f6149;fill-opacity:1;fill-rule:nonzero;stroke:none"
         d="m 6746.34,1529.29 -835.87,102.84 c -26.28,3.23 -49.32,-21.68 -49.81,-53.87 -0.46,-30.27 19.32,-55.13 44.17,-55.5 l 107.12,-1.63 -25.24,-877.689 c -0.37,-12.929 10.01,-23.609 22.93,-23.609 h 30.33 c 12.37,0 22.52,9.816 22.93,22.18 l 28.47,860.268 358.52,-9.88 218.41,-855.298 c 2.6,-10.161 11.74,-17.27 22.23,-17.27 h 32.32 c 15.04,0 26.01,14.227 22.18,28.77 l -219.21,833.818 217.93,-3.32 c 12.89,-0.19 22.84,13.87 20.77,29.35 -1.49,11.17 -8.93,19.69 -18.18,20.84" />
      <path
         id="path412"
         style="fill:#f8a482;fill-opacity:1;fill-rule:nonzero;stroke:none"
         d="m 6435.96,1613.9 c -147.87,-41.62 -432.52,-12.64 -432.52,-12.64 -13.36,-21.53 -86.53,-9.9 -86.53,-9.9 l -0.18,-0.64 c -2.73,-9.64 -6.63,-15.63 -11.27,-19.26 -8.99,-7.01 -20.18,-4.01 -27.99,-0.37 -4.18,2 -7.36,4.18 -8.46,4.91 l -0.44,0.36 -0.47,-0.18 c -1.45,-0.27 -2.9,-0.46 -4.26,-0.46 -10.73,-0.91 -18.82,2.37 -24.27,6.1 -0.91,0.63 -1.73,1.27 -2.45,1.9 -4.09,3.37 -6.27,6.64 -6.82,7.45 l -0.09,0.19 c -0.91,-0.09 -1.91,-0.09 -2.73,0 -10.26,0.27 -16.17,7.18 -19.54,14.09 -3.45,7.08 -4.27,14.17 -4.27,14.17 l -0.18,0.1 c -2.82,1.73 0.9,-0.19 1.45,-0.19 l -0.63,0.64 -2.28,1.81 c -6.27,5.1 -10.81,10.19 -14.08,15.09 -2.09,3.18 -3.46,6.64 -4,10.19 -2.27,11.63 3.09,23.8 13.73,30.16 1.45,0.82 3.17,1.73 5,2.37 65.42,24.54 192.4,-6.91 192.4,-6.91 l 352.17,70.25 c 0,0 -173.13,347.18 -180.49,367.27 -34.99,95.61 -46.09,214.85 79.06,187.31 39.81,-8.81 74.26,-52.26 103.52,-111.69 4.46,-8.91 153.87,-386.08 164.41,-446.88 9.54,-55.35 -23.62,-109.97 -77.79,-125.24" />
      <path
         id="path414"
         style="fill:#5a78c4;fill-opacity:1;fill-rule:nonzero;stroke:none"
         d="m 6513.75,1739.14 c -10.54,60.8 -159.95,437.97 -164.4,446.88 -29.27,59.43 -63.72,102.88 -103.53,111.69 -125.15,27.54 -114.05,-91.7 -79.06,-187.31 7.36,-20.09 180.5,-367.27 180.5,-367.27 l -316.17,-63.06 c 8.09,-27.87 17.11,-55.45 25.79,-83.15 89.57,-6.13 270.87,-13.48 379.08,16.98 54.17,15.27 87.33,69.89 77.79,125.24" />
      <path
         id="path416"
         style="fill:#ffffff;fill-opacity:1;fill-rule:nonzero;stroke:none"
         d="m 6027.6,1695.22 58.91,23.4 c 4.55,5.24 11.64,3.16 14.01,-4.16 8.83,-27.27 21.98,-66.59 24.69,-110.94 0.42,-6.85 -3.69,-12.68 -8.9,-12.68 h -60.89 c -3.99,0 -7.5,3.51 -8.57,8.57 l -21.97,83.86 c -0.92,4.35 0.14,9 2.72,11.95" />
      <path
         id="path418"
         style="fill:#f57f59;fill-opacity:1;fill-rule:nonzero;stroke:none"
         d="m 5837.12,1583.72 c -4.09,3.37 -6.27,6.64 -6.82,7.45 l -0.09,0.19 c -0.45,-0.05 -0.93,-0.07 -1.4,-0.07 -0.47,0 -0.92,0.02 -1.33,0.07 v 0 c -1.08,3.54 -1.36,7.27 -0.91,10.99 1.28,9.73 7.37,18.55 16.09,23 0.44,0.24 0.88,0.34 1.29,0.34 2.46,0 4.08,-3.66 1.44,-4.98 -7.19,-3.73 -12.36,-10.81 -13.36,-18.9 -0.82,-6.45 1.18,-12.9 5.09,-18.09" />
      <path
         id="path420"
         style="fill:#f57f59;fill-opacity:1;fill-rule:nonzero;stroke:none"
         d="m 5863.84,1575.72 c -1.37,10.73 2.27,21.91 10.36,29.46 0.57,0.55 1.22,0.78 1.84,0.78 2.1,0 3.94,-2.71 1.98,-4.6 -6.73,-6.46 -10.09,-16.18 -9.01,-25.36 l -0.44,0.36 -0.47,-0.18 c -1.45,-0.27 -2.9,-0.46 -4.26,-0.46 v 0" />
      <path
         id="path422"
         style="fill:#f57f59;fill-opacity:1;fill-rule:nonzero;stroke:none"
         d="m 5807.94,1605.45 c -3.45,7.08 -4.27,14.17 -4.27,14.17 l -0.18,0.1 c -0.76,0.46 -1.04,0.66 -1.04,0.71 -0.01,0.01 0,0.01 0.02,0.01 0.21,0 2.09,-0.91 2.47,-0.91 v 0 0 l -0.63,0.64 -2.28,1.81 c 1.37,12 6.28,23.45 14.09,32.73 0.54,0.62 1.17,0.88 1.78,0.88 1.97,0 3.78,-2.71 2.04,-4.79 -10.55,-12.36 -14.9,-29.45 -12,-45.35" />
      <path
         id="path426"
         style="fill:#dcd16e;fill-opacity:1;fill-rule:nonzero;stroke:none"
         d="m 3202.91,2430.11 c -37.55,-16.01 -70.61,-53.08 -80.2,-92.78 19.31,-6.4 38.62,-12.82 57.92,-19.22 -9.69,-6.34 -12.97,-19.6 -10.6,-30.94 2.37,-11.34 9.3,-21.14 16.48,-30.23 33.33,-42.16 79.25,-78.24 132.71,-83.73 -29.33,89.26 -65.99,177.57 -116.31,256.9" />
    </g>
  </g>
  <style
     type="text/css"
     id="style2576">
	.st0{fill:#80868A;}
	.st1{fill:#52C1EA;}
	.st2{fill:#F78FBF;}
	.st3{fill:#F9EE7D;}
	.st4{fill:#6DC0AA;}
</style>
</svg>
