<svg id="Layer_1" data-name="Layer 1" xmlns="http://www.w3.org/2000/svg" xmlns:xlink="http://www.w3.org/1999/xlink" viewBox="0 0 1920 1080">
  <defs>
    <style>
      .cls-1 {
        fill: none;
      }

      .cls-2, .cls-5 {
        fill: #303030;
      }

      .cls-3 {
        fill: #ddd;
      }

      .cls-4 {
        fill: #f2c9de;
      }

      .cls-5 {
        opacity: 0.72;
      }

      .cls-6 {
        fill: #bfd7d0;
      }

      .cls-7 {
        fill: #bde8d4;
      }

      .cls-8 {
        fill: #f2e9aa;
      }

      .cls-9 {
        fill: #ffb08a;
      }

      .cls-10 {
        fill: #4c937f;
      }

      .cls-11 {
        fill: #5b3d31;
      }

      .cls-12 {
        fill: #f9cdb8;
      }

      .cls-13 {
        fill: #f3f3f3;
      }

      .cls-14 {
        fill: #f48e7c;
      }

      .cls-15 {
        fill: #f7be7f;
      }

      .cls-16 {
        fill: #aedde5;
      }

      .cls-17 {
        clip-path: url(#clip-path);
      }

      .cls-18 {
        fill: #f3e3dc;
      }
    </style>
    <clipPath id="clip-path">
      <polygon class="cls-1" points="1965.34 1096 282.88 1096 282.88 1049.79 282.88 15 1965.34 15 1965.34 945 1965.34 1096"/>
    </clipPath>
  </defs>
  <g>
    <g>
      <path class="cls-2" d="M695.53,813.26c0,3.78-25.66,6.84-57.3,6.84s-57.3-3.06-57.3-6.84,25.65-6.84,57.3-6.84S695.53,809.48,695.53,813.26Z"/>
      <ellipse class="cls-3" cx="648.28" cy="970.94" rx="92.15" ry="14.07"/>
      <path class="cls-4" d="M640.79,791S515.48,634.79,537.9,448.52A7.63,7.63,0,0,1,550.75,444c31,30,116.78,133.08,102,345.35Z"/>
      <path class="cls-5" d="M638.23,742.45a1,1,0,0,1-1-.77c-21.12-82-74.69-234.43-75.23-236a1,1,0,1,1,1.94-.68c.53,1.53,54.13,154.07,75.28,236.13a1,1,0,0,1-.74,1.25A1.07,1.07,0,0,1,638.23,742.45Z"/>
      <path class="cls-6" d="M654.26,824.38s-40.25-158-123.65-220.5a3.91,3.91,0,0,0-6.19,4c8.7,35.57,42.64,157.69,111.24,216.5A25.84,25.84,0,0,0,654.26,824.38Z"/>
      <path class="cls-5" d="M633.74,806.16a1,1,0,0,1-.91-.55c-12.05-22.82-83.94-157.7-84.67-159.06a1,1,0,0,1,1.82-1c.72,1.36,72.62,136.25,84.66,159.08a1,1,0,0,1-.42,1.38A1.07,1.07,0,0,1,633.74,806.16Z"/>
      <path class="cls-4" d="M525.08,716.74c7.47,18.13,33.37,74,81.72,109.56,0,0,45.25,9.8,41.69,0C628.64,771.72,550,725.67,528.34,713.81A2.32,2.32,0,0,0,525.08,716.74Z"/>
      <path class="cls-5" d="M628,824.12a1,1,0,0,1-.68-.26c-11.45-10.18-69.45-74.32-71.92-77.05a1,1,0,0,1,1.53-1.37c.6.66,60.38,66.78,71.76,76.89a1,1,0,0,1,.08,1.45A1,1,0,0,1,628,824.12Z"/>
      <path class="cls-7" d="M636.48,824.38s-31.22-205.11,38.29-305.65c2.1-3,7.29-2.45,8.43,1,9.16,27.18,40.55,165.54-14.37,299.67Z"/>
      <path class="cls-5" d="M653.53,748.44h0a1,1,0,0,1-1-1.07c.85-17.78,17.8-176.35,18-178a1,1,0,0,1,2,.22c-.17,1.6-17.11,160.1-18,177.83A1,1,0,0,1,653.53,748.44Z"/>
      <path class="cls-4" d="M646.57,817.32s-20.7-83.37,28-138.67A3.15,3.15,0,0,1,680,680c4.63,20.6,17.63,92.18-12.3,141.15l-19.24,5.13Z"/>
      <path class="cls-5" d="M656.19,813.22H656a1,1,0,0,1-.87-1.17l16-107.12a1,1,0,0,1,2,.31l-16,107.11A1,1,0,0,1,656.19,813.22Z"/>
      <path class="cls-8" d="M695.53,813.26c0,3.78-25.66,6.84-57.3,6.84s-57.3-3.06-57.3-6.84c0,0,8.55,112,27.36,158.22,0,0,42.77,6.84,77.83,0Z"/>
    </g>
    <g>
      <ellipse class="cls-3" cx="881.96" cy="997.8" rx="227.5" ry="28.61"/>
      <g>
        <path class="cls-9" d="M945.47,959.08s3.2,9.62,21.16,18,32.71,9.62,35.92,13.46-16.68,9.63-36.56,8.34-46.82-16.67-46.82-16.67,1.92-19.89,2.56-23.74S945.47,959.08,945.47,959.08Z"/>
        <path class="cls-2" d="M995.5,986.66s12.18,11.54-32.08,9c0,0-12.82-2.57-21.8-7.7s-22.45-5.77-22.45-5.77-3.21,14.75-1.29,17.31,24.38,3.21,48.75,4.49S1030.13,1001.41,995.5,986.66Z"/>
        <path class="cls-9" d="M910.83,977S914,986.66,932,995s32.71,9.63,35.91,13.47-16.67,9.63-36.56,8.34-46.82-16.67-46.82-16.67,1.92-19.89,2.57-23.74S910.83,977,910.83,977Z"/>
        <path class="cls-2" d="M960.86,1004.62s12.19,11.54-32.07,9c0,0-12.83-2.57-21.81-7.7s-22.45-5.77-22.45-5.77-3.21,14.75-1.28,17.31,24.37,3.21,48.75,4.49S995.5,1019.37,960.86,1004.62Z"/>
        <path class="cls-10" d="M831.51,704.65s68.41,22.23,87.23,84.66l1.71,160.79s-34.21,31.64-47.89,46.18c0,0-18,12.83-86.38,12.83s-104.34-19.67-104.34-19.67V754.25s.86-38.49,24.8-49.6S831.51,704.65,831.51,704.65Z"/>
        <path class="cls-11" d="M683.9,643.3s0-53.89,27.88-90c25.27-32.75,35.92-70.13,50.45-87.23s38.49-19.67,58.16-12,24.8,26.51,18.81,41.9l-16.67,35.49s-6,51.32,2.56,98.35l-55.16-.42Z"/>
        <path class="cls-3" d="M907.62,774.35s-15.39-22.45-28.22-32.07S839,711.49,837.71,707s-9-71.2-16-92.37c-6.08-18.23-10.9-39.12-31.43-49.38L778.06,587.7l25,159.71L903.77,784Z"/>
        <path class="cls-2" d="M828.51,711.23a1.05,1.05,0,0,1-.65-.23,1,1,0,0,1-.13-1.45c.18-.22,4.47-5.34,8.49-7.12a1,1,0,1,1,.83,1.87c-3.58,1.59-7.71,6.52-7.75,6.56A1,1,0,0,1,828.51,711.23Z"/>
        <path class="cls-2" d="M828.52,704a1,1,0,0,1-.6-1.86,15.14,15.14,0,0,1,8.29-2.33,1,1,0,1,1,0,2.06,13.35,13.35,0,0,0-7.1,1.94A1,1,0,0,1,828.52,704Z"/>
        <path class="cls-12" d="M817.82,737.15S917.24,775,934.56,783.33s21.81,16.67,19.24,37.2-10.26,119.94-8.33,138.55c0,0-10.91,5.77-26.3,1.92,0,0-3.85-16.68-9-34-3.33-11.23-6.42-25.65-6.42-25.65s1.29,57.73,10.27,77c0,0-11.55,9-30.79,5.13l-36.56-96.21L771.64,761.52l27.58-24.37Z"/>
        <path class="cls-2" d="M903.77,902.38h0a1,1,0,0,1-1-1.06s.64-16.68,1.92-47.47c1.23-29.37-.79-41.56-7.7-46.59s-64.52-36.81-65.1-37.13a1,1,0,0,1-.41-1.39,1,1,0,0,1,1.4-.41c2.37,1.31,58.29,32.16,65.32,37.27,7.66,5.57,9.82,17.77,8.54,48.34-1.28,30.78-1.92,47.46-1.92,47.46A1,1,0,0,1,903.77,902.38Z"/>
        <path class="cls-13" d="M783.61,757.67s15-12,28.65-15,14.12-1.71,13.69-3-6.84-6.41-10.26-14.11-4.28-28.22-6.42-40.2-6-31.21-6-44.89-6.84-57.3-14.53-68.85l-47.47.86-12.4,125.29L752,749.55Z"/>
        <path class="cls-2" d="M810.56,736a1,1,0,0,1-.85-.44c-6.41-9.4-16.78-36.69-17.22-37.85a1,1,0,1,1,1.92-.72c.11.28,10.72,28.21,17,37.41a1,1,0,0,1-.27,1.42A1,1,0,0,1,810.56,736Z"/>
        <path class="cls-9" d="M742.14,570.38s13.25,26.08,32.07,25.65,16.25-17.53,16.25-18.81a123.29,123.29,0,0,1,3.5-16.59,49.56,49.56,0,0,1,3.34-9.07l-37.2-28.65-16.25,34.64Z"/>
        <path class="cls-2" d="M760.1,522.91l37.2,28.65c-1.22,2.31-1.7,5.6-2.68,9.07C794.62,560.63,770.36,557.55,760.1,522.91Z"/>
        <path class="cls-9" d="M764.37,507.09s-11.54,20.53.43,29.93c6.67,5.25,20.1,17.11,30.36,18s26.51-10.26,32.5-28.65c4.48-13.76,11.12-22.66,11.12-34.21l-7.27-22.66-33.78-3L775.49,496s-9-7.69-13.68-2.14S764.37,507.09,764.37,507.09Z"/>
        <path class="cls-2" d="M770.36,500.25s-3.85-5.56-6.42-3,2.57,7.27,3.85,6.41A11.18,11.18,0,0,0,770.36,500.25Z"/>
        <path class="cls-11" d="M775.49,496s28.22,5.56,51.74-14.11c0,0,3.42,12,12,14.11l1.29-8.12-7.7-21.38-44-4.71-14.12,21.81Z"/>
        <path class="cls-2" d="M812.68,528.69a9.2,9.2,0,0,1-2.88-.53,1,1,0,1,1,.65-1.94c1.61.53,2.86.55,3.7.06a3.16,3.16,0,0,0,1.38-2.29c.44-2.16,4.56-15.36,4.73-15.92a1,1,0,0,1,1.29-.68,1,1,0,0,1,.67,1.29c-1.47,4.71-4.34,14.07-4.67,15.72a5.22,5.22,0,0,1-2.37,3.66A4.84,4.84,0,0,1,812.68,528.69Z"/>
        <path class="cls-14" d="M801.86,522.41c-.81,3.53-7.18,5.08-14.24,3.47s-12.11-5.78-11.31-9.3,7.18-5.08,14.23-3.47S802.66,518.89,801.86,522.41Z"/>
        <path class="cls-14" d="M827.72,526.16c-3.78.72-6.47,2.42-7,4.89-.42,1.83.4,3.79,2.11,5.62a46.83,46.83,0,0,0,4.86-10.34Z"/>
        <path class="cls-11" d="M764.37,507.09s-.43,26.09-10.69,40.84a157.81,157.81,0,0,1-36.56,37.84C703,596,688.9,624.9,688.9,624.9s12.19-43,23.09-52.6,28.86-49.39,28.86-49.39Z"/>
        <path class="cls-10" d="M835.14,801.93s7.06,2.56,18.6,55.8,29.51,125.72,29.51,125.72l-34.64,6.41L786.39,847.47l-2.75-65.85Z"/>
        <path class="cls-9" d="M813.55,781.62s15.39,9,21,13.25a26.91,26.91,0,0,1,9.41,24.8s-5.56-8.12-10.69-10.69-26.51-12-34.64-21Z"/>
        <path class="cls-3" d="M747.27,555.84s-28.65,25.66-36.35,29.93-32.07,24.38-26.08,80.82,12.4,67.56,25.65,87.66,78.68,35.92,83.39,36.35,18.38-4.28,23.09-6.85c0,0-8.55-10.69-15.4-15.82s-44.89-37.2-46.61-40.19-8.12-2.14-8.12-2.14,4.7-1.28,5.56-3-1.71-2.57-1.71-2.57.85-3,0-4.7-1.28-23.52-1.28-28.65-1.29-70.56-1.29-87.24S747.27,555.84,747.27,555.84Z"/>
        <path class="cls-2" d="M749.83,712.94a1,1,0,0,1-1-.71c-3.42-10.67-9.21-72.43-9.46-75.05a1,1,0,0,1,2.05-.19c.06.64,6,64.15,9.36,74.61a1,1,0,0,1-.66,1.29A.89.89,0,0,1,749.83,712.94Z"/>
        <path class="cls-2" d="M731.12,723.63a1,1,0,0,1-.49-1.92c6.6-3.64,19.58-2.73,20.13-2.69a1,1,0,0,1,1,1.1,1,1,0,0,1-1.1,1c-.13,0-12.92-.9-19,2.44A1.11,1.11,0,0,1,731.12,723.63Z"/>
      </g>
    </g>
    <g>
      <ellipse class="cls-3" cx="1503.57" cy="980.05" rx="328.39" ry="46.93"/>
      <g>
        <path class="cls-4" d="M1667.57,484.73c-14,37.78-53.92,171.31,14.45,317.89h25.71s41.51-186-30.29-318.62A5.43,5.43,0,0,0,1667.57,484.73Z"/>
        <path class="cls-5" d="M1693.64,786.37a1,1,0,0,1-1-1l-19.26-241.19a1,1,0,0,1,.94-1.1,1,1,0,0,1,1.1.94l19.26,241.19a1,1,0,0,1-.94,1.1Z"/>
        <ellipse class="cls-2" cx="1697.9" cy="781.29" rx="76.12" ry="10.74"/>
        <path class="cls-4" d="M1721,805.49s-6.26-90.94,45.63-131.55a5.42,5.42,0,0,1,8.74,3.61c2.56,22.14,4.34,82-40.69,132.12Z"/>
        <path class="cls-5" d="M1738.09,775.85a.93.93,0,0,1-.29-.05,1,1,0,0,1-.69-1.27c.84-2.79,20.58-68.35,24-76.85a1,1,0,1,1,1.9.77c-3.36,8.41-23.71,76-23.92,76.67A1,1,0,0,1,1738.09,775.85Z"/>
        <path class="cls-7" d="M1727.63,551.39c-19.75,32.67-71.57,134.5-29.73,246.31h22.85s61.53-108.9,18.07-245A6.19,6.19,0,0,0,1727.63,551.39Z"/>
        <path class="cls-5" d="M1707.73,780.55h-.11a1,1,0,0,1-.91-1.14L1726,606.27a1.06,1.06,0,0,1,1.14-.9,1,1,0,0,1,.9,1.13l-19.24,173.14A1,1,0,0,1,1707.73,780.55Z"/>
        <path class="cls-6" d="M1637,582.58c18.18,28.4,64.56,112.22,53.77,213.84l-29.6,4.92S1592,733.83,1627,583.94C1628,579.72,1634.55,578.81,1637,582.58Z"/>
        <path class="cls-5" d="M1670.53,780.77a1,1,0,0,1-1-.77L1633,641.28a1,1,0,0,1,2-.52l36.51,138.72a1,1,0,0,1-.73,1.25A1.17,1.17,0,0,1,1670.53,780.77Z"/>
        <path class="cls-15" d="M1640.52,968.23c0,2.16,25.69,6.74,57.38,6.74s57.38-4.58,57.38-6.74L1774,781.29c0,5.93-34.08,10.74-76.12,10.74s-76.12-4.81-76.12-10.74Z"/>
      </g>
      <g>
        <g>
          <path class="cls-2" d="M1491.11,1026.57a1,1,0,0,1-1-1v-171a1,1,0,0,1,2.06,0v171A1,1,0,0,1,1491.11,1026.57Z"/>
          <path class="cls-2" d="M1600.75,994a1,1,0,0,1-1-.93l-17.24-183.77a1,1,0,0,1,.93-1.11,1,1,0,0,1,1.12.92l17.24,183.77a1,1,0,0,1-.93,1.11Z"/>
          <path class="cls-2" d="M1358.14,999.44H1358a1,1,0,0,1-.84-1.18l26.69-163.56a1,1,0,1,1,2,.33l-26.69,163.56A1,1,0,0,1,1358.14,999.44Z"/>
        </g>
        <path class="cls-9" d="M1294,964.23s-15.61,43.22-20.18,49.31c-3.75,5,2.5,15.61,11.24,15.61s22.05-8.74,26-20,10.82-44.32,10.82-44.32L1309.44,958Z"/>
        <path class="cls-2" d="M1273.86,1013.54s-7.29,13.11-.63,18.94,24.14,1.66,33.3-15C1306.53,1017.5,1282.81,1030.4,1273.86,1013.54Z"/>
        <polygon class="cls-3" points="1372.18 840.84 1510.05 864.41 1603.77 809.2 1632.85 611.62 1491.11 611.62 1484.47 764.67 1372.18 828.23 1372.18 840.84"/>
        <path class="cls-13" d="M1579.13,738.86s18,65.88-46.82,78c-30,5.62-66.8,10-122.57,3.33l-55.77,129a40.46,40.46,0,0,1-16-2.6,50.26,50.26,0,0,1-7.28-3.22l-14.15,25c-17.48,2.5-22.48-4.16-22.48-4.16l10.82-46.62s20-92.39,26.64-113.2,26.64-26.64,26.64-26.64,5-35.53,12.47-56.33c10-27.74,106-23.57,106-23.57Z"/>
        <path class="cls-2" d="M1509.49,510.86s-15.1,22.35,0,42.89l34.44,22.35,16.91,5.44s3.63-21.15-6-31.42-19.93-20.54-13.89-35,7.25-48.94-21.75-44.1Z"/>
        <path class="cls-2" d="M1489.67,522.22s20.71,1.31,29.64-24.12-4.51-53.64-19.5-60.6S1489.67,522.22,1489.67,522.22Z"/>
        <path class="cls-16" d="M1468.63,689.54a173.35,173.35,0,0,1-29.34-49.94c-34.33,35.58-78.66,39.95-104.25,44.32s-102.46,7.59-102.46,7.59c-6.64-5.88-5.59-18.61-4.74-24.19.25-1.68.49-2.71.49-2.71s106.08-31.26,121.69-35,33.71-18.11,54.31-35,51.19-33.09,51.19-33.09c21.4-12.37,56.19-15.06,56.19-15.06l57.5,149.91s11.8,25,14.29,42.45c0,0-48.38,7.7-80.22-3.53s-25.91-19-27.78-22.07Z"/>
        <path class="cls-2" d="M1232.58,691.51c-6.64-5.88-5.59-18.61-4.74-24.19.25-1.68.49-2.71.49-2.71a5.8,5.8,0,0,1,5.45,4.06c.75,2.36,1.44,5.35,3.1,12.19.5,2.07,1.69,7.39.37,8.69S1232.58,691.51,1232.58,691.51Z"/>
        <path class="cls-2" d="M1510,548.66s-3.32,20.18-20.6,29.55c0,0-24.47,17.5-35.34,12.26-11.54-5.55-7.48-19.67-3.78-23.71C1450.32,566.76,1472,551.78,1510,548.66Z"/>
        <path class="cls-9" d="M1447.2,532.64s1.65,6.32,3.12,15.43c1.76,10.86,3.27,25.68,1.46,38.46,0,0-1.25,5.83,11.44,5.62s36.84-13.44,44.85-36.58a72.93,72.93,0,0,1-17-34l-33.09,6Z"/>
        <path class="cls-2" d="M1487.24,526.55,1458,527.64l-10.82,5s1.65,6.32,3.12,15.43C1450.32,548.07,1475.17,549,1487.24,526.55Z"/>
        <path class="cls-9" d="M1436.15,476.49s-5.49,19.47-2,40.31c2.26,13.44,9,20.35,14.09,21.66,5.27,1.35,37.78,9.3,52.63-36.53,0,0,11.08.34,11.61-9.56s-11.22-6.33-11.22-6.33l-1.49-17.52-29.35-19.26-18.63,7.54Z"/>
        <path class="cls-2" d="M1501.72,493.07s4.65-1.71,6.49-.42-5.4,3.69-6.3,3.4S1501.72,493.07,1501.72,493.07Z"/>
        <path class="cls-2" d="M1454.4,509.12h-.1c-2.07-.21-3.52-.9-4.32-2.05a5,5,0,0,1-.43-4.27c.58-2.18,5.82-15.78,6-16.36a1,1,0,1,1,1.92.74c-1.88,4.86-5.54,14.48-6,16.14a3.07,3.07,0,0,0,.13,2.58,3.83,3.83,0,0,0,2.83,1.18,1,1,0,0,1-.1,2Z"/>
        <path class="cls-14" d="M1490.13,506.77c-.43,3-5.61,4.67-11.57,3.81s-10.44-4-10-6.94,5.61-4.67,11.57-3.8S1490.56,503.81,1490.13,506.77Z"/>
        <path class="cls-14" d="M1433.8,491.42l-.25,0c-.21,3.29-.35,6.9-.37,10.73,5.78,1,10.63-.34,10.92-3.19S1439.78,492.62,1433.8,491.42Z"/>
        <path class="cls-2" d="M1465.44,458.24s-13.52,16.76-29.19,18.6c0,0-1.86-10.46,7.91-28.36s39.48-20,55.65-11l2.4,48.21S1473,488.41,1465.44,458.24Z"/>
        <path class="cls-2" d="M1409.74,821.25a1.24,1.24,0,0,1-.41-.08,1,1,0,0,1-.53-1.35C1421.65,790.08,1427,758,1427,757.63a1,1,0,0,1,2,.33c0,.33-5.43,32.71-18.38,62.67A1,1,0,0,1,1409.74,821.25Z"/>
        <path class="cls-2" d="M1426.75,765.7a1,1,0,0,1-.27-2c5-1.44,46.59-13.51,47-13.63a1,1,0,0,1,.57,2c-.42.12-42,12.2-47,13.63A.86.86,0,0,1,1426.75,765.7Z"/>
        <path class="cls-9" d="M1354,949.24a40.46,40.46,0,0,1-16-2.6,50.26,50.26,0,0,1-7.28-3.22s-33.3,56.6-36.63,59.1,15,10.82,15,10.82,25-15,31.63-27.47S1354,949.24,1354,949.24Z"/>
        <path class="cls-2" d="M1294,1002.52s-9.15,10.82-7.49,15,9.16,10.82,21.64,5,26.64-21.23,36.21-44.75c0,0-25.61,34-33.29,31.43A169.17,169.17,0,0,1,1294,1002.52Z"/>
        <polygon class="cls-12" points="1329.46 711.55 1424.51 750.81 1502.97 711.55 1424.51 688.29 1329.46 711.55"/>
        <g>
          <path class="cls-9" d="M1460.08,688.29l-4.37,2.18s-14.54,3.9-27.27,8.24c-8.3.83-20.12,2-23,2.53-3.7.61-3.3,4.79,5.36,5-9.72,5.91-16,14.3-14,16.26,2.18,2.18,4.36,5.09,12.35,5.82s27.63-5.09,42.17-8.73,19.63-8.72,19.63-8.72Z"/>
          <path class="cls-2" d="M1398.38,724.67a1,1,0,0,1-.74-.32,1,1,0,0,1,0-1.45c.39-.38,9.84-9.27,17.32-11.68a1,1,0,0,1,.63,1.95c-7,2.27-16.45,11.13-16.54,11.22A1,1,0,0,1,1398.38,724.67Z"/>
          <path class="cls-2" d="M1402.12,727.16a1,1,0,0,1-.55-1.89c.41-.26,10.12-6.31,14.19-7.58a1,1,0,0,1,1.28.67,1,1,0,0,1-.67,1.29c-3.82,1.19-13.61,7.3-13.71,7.36A1,1,0,0,1,1402.12,727.16Z"/>
          <path class="cls-2" d="M1410.84,707.23a1,1,0,0,1-.95-.63,1,1,0,0,1,.55-1.34c.31-.13,7.62-3.15,12.15-4a1,1,0,0,1,.39,2c-4.33.84-11.68,3.88-11.75,3.91A.91.91,0,0,1,1410.84,707.23Z"/>
        </g>
        <path class="cls-16" d="M1511.71,546.5s-3.12,26.3,6.87,58.14c2.12,6.76,4.88,14.3,7.93,22,11.3,28.55,26.4,59.15,26.4,59.15s-62.34-7.27-92.93,2.71c0,0,4.65,16.44,10.35,22.69,0,0,8.84,1.56,19.88,4.28,22.85,5.64,61.22,14.43,81.43,15.27a31.87,31.87,0,0,0,9.55-.93c20.4-5.43,20.27-32.11,19.17-40.9-1.25-10-20-97.38-33.09-116.74S1527.32,545.17,1511.71,546.5Z"/>
        <polygon class="cls-2" points="1365.2 718.46 1350.66 722.82 1389.19 739.54 1399.73 734.09 1365.2 718.46"/>
        <path class="cls-9" d="M1233.78,668.66a40.85,40.85,0,0,1-22.21-3.84c-11.11-5.55-26.06-9.83-32.9-12s-8.33-1.93-8.76-.22,4.91,5.13,7,6.41,4.06,3.42,6.62,5.56c0,0-14.95.64-26.27,2.35s-24.35,3.63-24.57,5.34,4.06,2.13,10.68,2.35,16,.85,16,.85,1.71,1.71-.85,1.92-13.88,1.71-19,2.35-7.91,2.14-7.69,3.42,4.06,1.92,12.82,1.28,16.44-1.49,16.23-.64-1.28,1.71-7.48,2.56-17.74,3.38-19.22,3.85c-3.69,1.17-3.42,3.42,1.07,4.06s20.29-1.28,23.71-1.71,4.27,1.49,2.35,1.92-14.74,4.49-16.45,5.13-5.29,3.79,1.07,3.63c3.63-.09,19-3.85,22.43-4.06s22.21-1.07,32.25-3.84,12-5.56,14.95-5.34,16.88-.86,21.15-.43S1233.78,668.66,1233.78,668.66Z"/>
        <g>
          <path class="cls-2" d="M1175.89,691.48a1.11,1.11,0,0,1-.57-.17c-7.27-4.85-11.15-17.75-11.31-18.3a1,1,0,0,1,2-.58c0,.13,3.83,12.73,10.48,17.17a1,1,0,0,1-.57,1.88Z"/>
          <path class="cls-2" d="M1195.33,673.11h-.13a16.88,16.88,0,0,1-12.52-8,1,1,0,0,1,.42-1.39,1,1,0,0,1,1.39.42,14.85,14.85,0,0,0,11,7,1,1,0,0,1-.13,2Z"/>
        </g>
        <g>
          <path class="cls-2" d="M1573.26,731.8l-1.66,0c-20.55-.86-60-10-81.64-15.3a1,1,0,0,1,.49-2c21.6,5.33,60.86,14.39,81.23,15.24a31,31,0,0,0,9.25-.91,1,1,0,0,1,.53,2A31.88,31.88,0,0,1,1573.26,731.8Z"/>
          <path class="cls-2" d="M1460.15,689.53a1,1,0,0,1-.32-2c27.47-9,80.74-4.06,91.34-3-3.3-6.79-15.93-33.07-25.62-57.55a1,1,0,0,1,.58-1.34,1,1,0,0,1,1.33.58c11.15,28.19,26.22,58.77,26.37,59.08a1,1,0,0,1-.08,1,1,1,0,0,1-1,.43c-.62-.07-62.3-7.13-92.33,2.67A1.12,1.12,0,0,1,1460.15,689.53Z"/>
          <path class="cls-2" d="M1439.29,640.62a1,1,0,0,1-1-.94c-.33-4.19-1.1-8.21-1.71-9.06-2.17-.06-2.47-1-2.69-2.65-.09-.59-.17-1.19-3.07-1.19a1,1,0,1,1,0-2c1.52,0,4.68,0,5.08,2.8a5.53,5.53,0,0,0,.18,1s.19,0,.73,0c.72,0,2.65,0,3.52,10.95a1,1,0,0,1-.94,1.1Z"/>
          <path class="cls-2" d="M1375,636a1,1,0,0,1-.73-.3c-4.24-4.24-12.94-6.77-13-6.79a1,1,0,0,1,.57-2c.38.11,9.29,2.7,13.91,7.32A1,1,0,0,1,1375,636Z"/>
          <path class="cls-2" d="M1369.65,643.24a1,1,0,0,1-1-.67c-1.15-3.13-7.75-9.4-10.19-11.56a1,1,0,0,1,1.35-1.54c.38.33,9.2,8.13,10.76,12.39a1,1,0,0,1-1,1.38Z"/>
          <path class="cls-2" d="M1565.82,696.27a1,1,0,0,1-.81-.41,28.84,28.84,0,0,0-12.41-9.09,1,1,0,0,1,.63-1.95,30.35,30.35,0,0,1,13.4,9.79,1,1,0,0,1-.18,1.44A1,1,0,0,1,1565.82,696.27Z"/>
        </g>
        <path class="cls-2" d="M1293.86,1006.07a1.06,1.06,0,0,1-.51-.14,1,1,0,0,1-.38-1.4l19.24-33.67a1,1,0,1,1,1.78,1l-19.24,33.67A1,1,0,0,1,1293.86,1006.07Z"/>
        <path class="cls-2" d="M1330.67,944.44h-.17a1,1,0,0,1-.84-1.18l27.46-165.64a1,1,0,0,1,1.18-.85,1,1,0,0,1,.85,1.18l-27.47,165.64A1,1,0,0,1,1330.67,944.44Z"/>
      </g>
    </g>
  </g>
  <g class="cls-17">
    <g>
      <path class="cls-6" d="M1082.62,1287.23s-20.65-145.09,44.55-243.17a4.11,4.11,0,0,1,7.4,1.25c7,27.48,24.33,120.32-18.51,251.14Z"/>
      <path class="cls-2" d="M1103.59,1223.88l-.16,0a1,1,0,0,1-.85-1.18c1.69-10.14,22-145.72,22.24-147.08a1,1,0,0,1,1.16-.86,1,1,0,0,1,.87,1.16c-.21,1.37-20.55,137-22.24,147.12A1,1,0,0,1,1103.59,1223.88Z"/>
    </g>
    <g>
      <path class="cls-4" d="M1257.69,1274.11s-65.92-130.88-35.48-244.66a4.11,4.11,0,0,1,7.41-1.17c15.43,23.79,61.51,106.23,62.71,243.88Z"/>
      <path class="cls-4" d="M1255.82,1206.77a1,1,0,0,1-1-.7c-3.41-10.23-24.79-149.88-25.7-155.82a1,1,0,1,1,2-.31c.22,1.45,22.26,145.42,25.62,155.48a1,1,0,0,1-.65,1.3A1.26,1.26,0,0,1,1255.82,1206.77Z"/>
    </g>
  </g>
  <g>
    <path class="cls-18" d="M1854,1147.78s-37.71-156.14-143.82-229.65a4.51,4.51,0,0,0-7,4.27c4,30.83,23.92,132.41,120.51,248.3Z"/>
    <path class="cls-5" d="M1823.72,1113.54a1.11,1.11,0,0,0,.57-.17,1,1,0,0,0,.28-1.43c-3.37-5.06-94.84-152.42-95.76-153.91a1,1,0,0,0-1.42-.33,1,1,0,0,0-.33,1.41c3.77,6.08,92.41,148.88,95.8,154A1,1,0,0,0,1823.72,1113.54Z"/>
  </g>
  <g>
    <path class="cls-4" d="M1947.33,984.9s38-334.65-55.66-485.69c-2.83-4.55-8.89-3.29-11.24,1.52-18.65,38.31-17,299.88,41.33,499.16Z"/>
    <path class="cls-5" d="M1931.48,928.77a1,1,0,0,0,1-1c0-18.69-36.1-364.84-37.63-379.57a1,1,0,1,0-2,.22c.37,3.6,37.62,360.77,37.62,379.35A1,1,0,0,0,1931.48,928.77Z"/>
  </g>
  <g>
    <path class="cls-6" d="M1931.33,1285.91S1983.86,962.67,1802,715.65a12.47,12.47,0,0,0-22,3.86c-20,67.65-59,283.41,132.89,573.61Z"/>
    <path class="cls-5" d="M1899,1200.77a1,1,0,0,0,.72-.3,1,1,0,0,0,0-1.45c-4.45-6.52-62.18-269.93-92.08-408.29a1,1,0,0,0-2,.44c8.94,41.34,87.45,404.1,92.64,409.3A1,1,0,0,0,1899,1200.77Z"/>
  </g>
  <g>
    <path class="cls-6" d="M1921.76,1276.56s-66.63-216.62-246.45-273.39c-6-1.9-12.85,5.81-11.59,13,8.72,49.75,50.89,196.28,249.51,273.63Z"/>
    <path class="cls-5" d="M1876.74,1240.11a1,1,0,0,0,.28-2c-9.24-2.64-119-122.91-175.69-186.14a1,1,0,1,0-1.53,1.37c6.72,7.49,164.54,183.28,176.66,186.74A.9.9,0,0,0,1876.74,1240.11Z"/>
  </g>
</svg>
