<svg xmlns="http://www.w3.org/2000/svg" viewBox="0 0 39.06 26.8"><defs><style>.cls-1{fill:#52c1ea;}.cls-2{fill:#fff;}</style></defs><title>Datový zdroj 1</title><g id="Vrstva_2" data-name="Vrstva 2"><g id="OBJECTS"><rect class="cls-1" x="0.67" y="0.67" width="37.71" height="25.45"/><path class="cls-2" d="M38.39,26.8H.67A.67.67,0,0,1,0,26.13V.67A.67.67,0,0,1,.67,0H38.39a.67.67,0,0,1,.67.67V26.13A.67.67,0,0,1,38.39,26.8Zm-37-1.35H37.71V1.35H1.35Z"/><path class="cls-2" d="M19.53,16.74a4.94,4.94,0,0,1-3.3-1.26L.22,1.18A.7.7,0,0,1,0,.43.67.67,0,0,1,.67,0H38.39A.67.67,0,0,1,39,.43a.7.7,0,0,1-.18.75l-16,14.3h0A4.94,4.94,0,0,1,19.53,16.74ZM2.44,1.35,17.13,14.48a3.61,3.61,0,0,0,4.8,0L36.62,1.35ZM22.38,15h0Z"/><path class="cls-2" d="M38.39,26.63H.67a.68.68,0,0,1-.45-1.18L14.27,12.9a.67.67,0,0,1,.9,1L2.44,25.28H36.62L23.89,13.9a.68.68,0,0,1-.05-1,.67.67,0,0,1,.95,0L38.84,25.45a.68.68,0,0,1-.45,1.18Z"/></g></g></svg>