<?xml version="1.0" encoding="UTF-8" standalone="no"?>
<svg
   xmlns:dc="http://purl.org/dc/elements/1.1/"
   xmlns:cc="http://creativecommons.org/ns#"
   xmlns:rdf="http://www.w3.org/1999/02/22-rdf-syntax-ns#"
   xmlns:svg="http://www.w3.org/2000/svg"
   xmlns="http://www.w3.org/2000/svg"
   xmlns:sodipodi="http://sodipodi.sourceforge.net/DTD/sodipodi-0.dtd"
   xmlns:inkscape="http://www.inkscape.org/namespaces/inkscape"
   width="131.23334mm"
   height="131.23334mm"
   viewBox="0 0 131.23334 131.23334"
   version="1.1"
   id="svg8"
   inkscape:version="1.0.1 (3bc2e813f5, 2020-09-07)">
  <defs
     id="defs2" />
  <sodipodi:namedview
     id="base"
     pagecolor="#ffffff"
     bordercolor="#666666"
     borderopacity="1.0"
     inkscape:pageopacity="0.0"
     inkscape:pageshadow="2"
     inkscape:zoom="0.7"
     inkscape:cx="250.90519"
     inkscape:cy="488.54845"
     inkscape:document-units="mm"
     inkscape:current-layer="layer1"
     inkscape:document-rotation="0"
     showgrid="false"
     inkscape:window-width="1920"
     inkscape:window-height="1027"
     inkscape:window-x="-8"
     inkscape:window-y="-8"
     inkscape:window-maximized="1"
     inkscape:pagecheckerboard="true"
     fit-margin-top="0"
     fit-margin-left="0"
     fit-margin-right="0"
     fit-margin-bottom="0" />
  <metadata
     id="metadata5">
    <rdf:RDF>
      <cc:Work
         rdf:about="">
        <dc:format>image/svg+xml</dc:format>
        <dc:type
           rdf:resource="http://purl.org/dc/dcmitype/StillImage" />
        <dc:title></dc:title>
      </cc:Work>
    </rdf:RDF>
  </metadata>
  <g
     inkscape:label="Vrstva 1"
     inkscape:groupmode="layer"
     id="layer1"
     transform="translate(-297.99643,43.694048)">
    <g
       id="g80"
       transform="matrix(0.26458333,0,0,0.26458333,-167.82143,-45.357144)"
       style="fill:#4070b3;fill-opacity:1;stroke:none">
      <g
         id="g14"
         style="fill:#4070b3;fill-opacity:1;stroke:none">
	<g
   id="g12"
   style="fill:#4070b3;fill-opacity:1;stroke:none">
		<path
   d="M 440,160 H 423.112 C 433.52,149.824 440,135.664 440,120 440,89.128 414.88,64 384,64 c -30.88,0 -56,25.128 -56,56 0,15.664 6.48,29.824 16.888,40 h -6.464 L 260.512,108.056 C 281.256,99.848 296,79.632 296,56 296,25.128 270.88,0 240,0 c -30.88,0 -56,25.128 -56,56 0,23.632 14.744,43.848 35.496,52.056 L 141.576,160 h -6.464 C 145.52,149.824 152,135.664 152,120 152,89.128 126.88,64 96,64 65.12,64 40,89.128 40,120 c 0,15.664 6.48,29.824 16.888,40 H 40 C 17.944,160 0,177.944 0,200 v 120 c 0,4.424 3.584,8 8,8 h 32 v 144 c 0,4.424 3.584,8 8,8 h 48 48 c 4.416,0 8,-3.576 8,-8 V 228.28 l 88,-58.664 88,58.664 V 472 c 0,4.424 3.584,8 8,8 h 48 48 c 4.416,0 8,-3.576 8,-8 V 328 h 32 c 4.416,0 8,-3.576 8,-8 V 200 c 0,-22.056 -17.944,-40 -40,-40 z m -96,-40 c 0,-22.056 17.944,-40 40,-40 22.056,0 40,17.944 40,40 0,22.056 -17.944,40 -40,40 -6.088,0 -11.8,-1.472 -16.976,-3.92 C 377.072,150.68 384,140.192 384,128 h -16 c 0,8.752 -7.072,15.88 -15.808,15.984 C 347.12,137.28 344,129.032 344,120 Z m -288,0 c 0,-22.056 17.944,-40 40,-40 22.056,0 40,17.944 40,40 0,9.032 -3.12,17.28 -8.192,23.984 C 119.072,143.88 112,136.752 112,128 H 96 c 0,12.192 6.928,22.68 16.976,28.08 C 107.8,158.528 102.088,160 96,160 73.944,160 56,142.056 56,120 Z M 107.056,176 96,198.112 84.944,176 Z M 232,155.72 139.56,217.344 C 137.336,218.832 136,221.328 136,224 V 464 H 104 V 312 H 88 V 464 H 56 V 216 H 40 v 96 H 16 V 200 c 0,-13.232 10.768,-24 24,-24 h 27.056 l 21.792,43.576 C 90.2,222.288 92.968,224 96,224 c 3.032,0 5.8,-1.712 7.16,-4.424 L 124.944,176 H 144 c 1.576,0 3.128,-0.472 4.44,-1.344 L 232,118.944 Z M 200,56 c 0,-22.056 17.944,-40 40,-40 22.056,0 40,17.944 40,40 0,22.056 -17.944,40 -40,40 -22.056,0 -40,-17.944 -40,-40 z M 464,312 H 440 V 216 H 424 V 464 H 392 V 312 H 376 V 464 H 344 V 224 c 0,-2.672 -1.336,-5.168 -3.56,-6.656 L 248,155.72 v -36.776 l 83.56,55.712 c 1.312,0.872 2.864,1.344 4.44,1.344 h 40 v 88 h 16 v -88 h 48 c 13.232,0 24,10.768 24,24 z"
   id="path10"
   style="fill:#4070b3;fill-opacity:1;stroke:none" />

	</g>

</g>
      <g
         id="g20"
         style="fill:#4070b3;fill-opacity:1;stroke:none">
	<g
   id="g18"
   style="fill:#4070b3;fill-opacity:1;stroke:none">
		<polygon
   points="248,32 232,32 232,48 216,48 216,64 232,64 232,80 248,80 248,64 264,64 264,48 248,48 "
   id="polygon16"
   style="fill:#4070b3;fill-opacity:1;stroke:none" />

	</g>

</g>
      <g
         id="g22"
         style="fill:#4070b3;fill-opacity:1;stroke:none">
</g>
      <g
         id="g24"
         style="fill:#4070b3;fill-opacity:1;stroke:none">
</g>
      <g
         id="g26"
         style="fill:#4070b3;fill-opacity:1;stroke:none">
</g>
      <g
         id="g28"
         style="fill:#4070b3;fill-opacity:1;stroke:none">
</g>
      <g
         id="g30"
         style="fill:#4070b3;fill-opacity:1;stroke:none">
</g>
      <g
         id="g32"
         style="fill:#4070b3;fill-opacity:1;stroke:none">
</g>
      <g
         id="g34"
         style="fill:#4070b3;fill-opacity:1;stroke:none">
</g>
      <g
         id="g36"
         style="fill:#4070b3;fill-opacity:1;stroke:none">
</g>
      <g
         id="g38"
         style="fill:#4070b3;fill-opacity:1;stroke:none">
</g>
      <g
         id="g40"
         style="fill:#4070b3;fill-opacity:1;stroke:none">
</g>
      <g
         id="g42"
         style="fill:#4070b3;fill-opacity:1;stroke:none">
</g>
      <g
         id="g44"
         style="fill:#4070b3;fill-opacity:1;stroke:none">
</g>
      <g
         id="g46"
         style="fill:#4070b3;fill-opacity:1;stroke:none">
</g>
      <g
         id="g48"
         style="fill:#4070b3;fill-opacity:1;stroke:none">
</g>
      <g
         id="g50"
         style="fill:#4070b3;fill-opacity:1;stroke:none">
</g>
    </g>
    <g
       id="g90"
       transform="matrix(2.1166667,0,0,2.1166667,295.87976,-45.810715)"
       style="fill:#4070b3;fill-opacity:1">
      <path
         d="M 58.341,38.358 C 57.049,37.497 55.554,36.926 54.017,36.706 L 49.842,36.11 49.537,34.582 C 49.795,34.403 50.039,34.207 50.274,34 h 3.681 C 56.737,34 59,31.737 59,28.955 59,28.177 58.816,27.396 58.468,26.698 L 58.056,25.875 C 57.365,24.494 57,22.948 57,21.403 V 20 C 57,13.383 51.617,8 45,8 44.054,8 43.137,8.121 42.254,8.329 37.744,3.667 31.5,1 25,1 11.767,1 1,11.767 1,25 c 0,13.233 10.767,24 24,24 0.666,0 1.334,-0.038 2,-0.093 V 61 h 13 1 2.402 c 0.598,1.181 1.811,2 3.223,2 h 6.75 C 54.787,63 56,62.181 56.598,61 H 57 c 3.309,0 6,-2.691 6,-6 v -7.936 c 0,-3.506 -1.742,-6.761 -4.659,-8.706 z M 47.976,36.976 47.758,37.847 C 47.44,39.114 46.307,40 45,40 43.693,40 42.56,39.114 42.242,37.848 l -0.218,-0.871 0.29,-1.45 C 43.155,35.827 44.057,36 45,36 c 0.943,0 1.845,-0.173 2.686,-0.474 z M 27.034,46.509 C 26.364,46.83 25.682,47 25,47 21.768,47 18.837,43.418 16.995,38 h 15.274 c -0.205,0.117 -0.414,0.228 -0.61,0.358 -2.761,1.841 -4.45,4.86 -4.625,8.151 z M 3.025,26 h 9.987 c 0.071,3.614 0.524,6.997 1.282,10 H 5.96 C 4.239,33.033 3.189,29.631 3.025,26 Z M 25,3 c 3.159,0 6.136,3.435 8.019,9 H 16.995 C 18.837,6.582 21.768,3 25,3 Z m 8.625,11 c 0.115,0.43 0.223,0.87 0.326,1.319 C 33.339,16.758 33,18.34 33,20 v 1.403 c 0,0.876 -0.13,1.75 -0.358,2.597 H 31 v -2 h -3 v -3 h -6 v 3 h -3 v 2 H 15.012 C 15.09,20.394 15.585,16.984 16.39,14 Z M 21,26 v -2 h 3 v -3 h 2 v 3 h 3 v 2 h -3 v 3 H 24 V 26 Z M 13.012,24 H 3.025 C 3.188,20.369 4.238,16.967 5.959,14 h 8.334 c -0.757,3.003 -1.21,6.386 -1.281,10 z m 2,2 H 19 v 2 h 3 v 3 h 6 v -3 h 3 v -2 h 0.882 l -0.35,0.699 C 31.184,27.396 31,28.177 31,28.955 c 0,2.115 1.31,3.923 3.16,4.672 -0.163,0.814 -0.343,1.607 -0.55,2.373 H 16.39 C 15.585,33.016 15.09,29.606 15.012,26 Z M 51,28 c 0,3.309 -2.691,6 -6,6 -3.309,0 -6,-2.691 -6,-6 v -4.046 c 2.896,-0.268 5.604,-1.688 7.467,-3.932 C 49.006,20.258 51,22.4 51,25 Z m -11.274,6 c 0.235,0.207 0.479,0.403 0.737,0.582 L 40.18,36 h -4.487 c 0.164,-0.646 0.296,-1.324 0.43,-2 z M 55,20 v 1.403 c 0,1.853 0.438,3.708 1.267,5.367 l 0.412,0.822 C 56.889,28.014 57,28.485 57,28.955 57,30.634 55.634,32 53.955,32 H 51.917 C 52.602,30.822 53,29.458 53,28 v -3 c 0,-3.86 -3.141,-7 -7,-7 h -0.5 l -0.3,0.4 C 43.509,20.654 40.817,22 38,22 h -1 v 6 c 0,1.458 0.398,2.822 1.082,4 H 36.044 C 34.366,32 33,30.634 33,28.955 c 0,-0.47 0.111,-0.941 0.321,-1.361 L 33.733,26.77 C 34.562,25.112 35,23.256 35,21.403 V 20 c 0,-5.514 4.486,-10 10,-10 5.514,0 10,4.486 10,10 z M 36.081,12 H 35.128 C 34.009,8.45 32.466,5.639 30.655,3.743 34.186,4.685 37.452,6.503 40.132,9.042 38.578,9.735 37.203,10.75 36.081,12 Z M 19.351,3.739 C 17.51,5.663 15.967,8.513 14.861,12 H 7.266 C 10.198,8.012 14.439,5.045 19.351,3.739 Z M 7.266,38 h 7.595 c 1.105,3.487 2.649,6.337 4.49,8.261 C 14.439,44.955 10.198,41.988 7.266,38 Z M 29,47.064 c 0,-2.837 1.409,-5.469 3.769,-7.042 1.045,-0.696 2.255,-1.158 3.498,-1.336 l 3.982,-0.569 0.054,0.215 C 40.843,40.492 42.774,42 45,42 c 1.267,0 2.428,-0.5 3.302,-1.32 L 45.165,51.436 C 44.665,51.159 44.097,51 43.5,51 c -1.307,0 -2.481,0.726 -3.065,1.895 L 40.382,53 H 40 c -1.654,0 -3,1.346 -3,3 v 2 c 0,0.352 0.072,0.686 0.184,1 H 35 V 45 H 33 V 59 H 29 Z M 40,59 c -0.552,0 -1,-0.448 -1,-1 v -2 c 0,-0.552 0.448,-1 1,-1 h 1.618 l 0.605,-1.211 C 42.467,53.303 42.956,53 43.5,53 c 0.417,0 0.8,0.183 1.067,0.486 l -1.421,4.871 c -0.062,0.21 -0.097,0.425 -0.12,0.643 H 41 Z m 13.375,2 h -6.75 C 45.729,61 45,60.271 45,59.375 c 0,-0.154 0.021,-0.307 0.065,-0.455 l 6.012,-20.613 2.656,0.38 c 0.429,0.061 0.851,0.168 1.267,0.295 V 59.375 C 55,60.271 54.271,61 53.375,61 Z M 61,55 c 0,2.206 -1.794,4 -4,4 v -3.132 l 1.445,0.964 1.109,-1.664 L 57,53.465 V 39.886 c 0.076,0.047 0.157,0.086 0.231,0.136 2.36,1.574 3.769,4.206 3.769,7.042 z"
         id="path82"
         style="fill:#4070b3;fill-opacity:1" />
      <circle
         cx="48"
         cy="25"
         r="1"
         id="circle84"
         style="fill:#4070b3;fill-opacity:1" />
      <circle
         cx="42"
         cy="25"
         r="1"
         id="circle86"
         style="fill:#4070b3;fill-opacity:1" />
      <path
         d="m 45,30 c -1.103,0 -2,-0.897 -2,-2 h -2 c 0,2.206 1.794,4 4,4 2.206,0 4,-1.794 4,-4 h -2 c 0,1.103 -0.897,2 -2,2 z"
         id="path88"
         style="fill:#4070b3;fill-opacity:1" />
    </g>
    <g
       id="g246"
       transform="matrix(0.26458333,0,0,0.26458333,461.79969,-31.081245)"
       style="fill:#4070b3;fill-opacity:1">
      <g
         id="g108"
         style="fill:#4070b3;fill-opacity:1">
	<g
   id="g106"
   style="fill:#4070b3;fill-opacity:1">
		<path
   d="m 457.002,339.951 h -2.9 c 14.4,-5.1 26.5,-15.4 33.9,-28.7 12.5,-21.8 11.7,-48.8 -2.1,-69.8 -4,-6 -8,-10.7 -14,-14.2 v -7.7 c 0,-12.6 -7.8,-23.6 -19.3,-26.8 l -29.1,-8 c -5.4,-1.5 -11.2,-1.5 -16.6,0 l -28.8,8 c -11.4,3.2 -19.2,14.2 -19.2,26.7 v 7.5 c -6,3.5 -10.2,8.4 -14.3,14.5 -13.7,21 -14.5,48 -2,69.8 7.4,13.4 19.4,23.6 33.8,28.7 h -14.4 c -12,-13.2 -29,-20.9 -46.9,-21 h -31.2 v -8.4 c 28.3,-13.3 47.5,-40.6 50.6,-71.7 13.2,-0.7 23.3,-12 22.6,-25.2 -0.3,-5.9 -2.8,-11.4 -6.9,-15.6 -4.1,-4.1 -9.5,-6.6 -15.3,-6.9 v -32.2 h 11.1 c 4.4,0 8,-3.5 8,-7.9 0,0 0,0 0,-0.1 0,-34.3 -27.9,-62.1 -62.1,-62.1 h -55.8 c -11.7,-0.1 -22.6,5.8 -29.1,15.5 -20.7,1.3 -32.4,12.9 -38.7,22.8 -4.4,7 -7.3,14.7 -8.5,22.8 0,0.4 0.1,0.7 0.1,1.1 v 39.9 c -13.2,0.7 -23.3,12 -22.6,25.2 0.7,12.2 10.4,21.9 22.6,22.6 1.8,20.4 10.8,39.6 25.4,54.1 8.1,8.3 17.9,14.7 28.6,19 v 7 h -31.2 c -21.9,0.2 -42.1,11.5 -53.7,30 h -22 v -0.6 l 13.1,-8.6 c 0.5,-0.3 0.9,-0.7 1.3,-1.1 10.7,-10.7 16.7,-25.2 16.6,-40.3 v -62.3 c 0,-12 -8.1,-22.4 -19.7,-25.4 l -29.5,-7.5 c -0.1,0 -0.2,0 -0.3,-0.1 -2.1,-0.5 -4.2,-0.8 -6.4,-0.9 -3.3,-0.2 -6.5,0.1 -9.7,1 l -29,7.5 c -11.5,3 -19.6,13.4 -19.5,25.4 v 11.6 c 0,0.6 -0.3,1.2 -0.3,1.8 0,0.8 0.3,1.5 0.3,2.2 v 46.8 c 0,21.9 12.2,41.6 31.4,50.6 h -14.2 c -22.9,0 -41.1,19.1 -41.1,41.9 v 20.3 c -0.1,4.1 3.1,7.6 7.2,7.7 0.1,0 0.3,0 0.4,0 h 112.3 v 21.4 c 0,4.4 3.9,7.6 8.3,7.6 h 241.3 c 4.4,0 8.3,-3.1 8.3,-7.6 v -21.3 h 112.4 c 4.1,0.1 7.5,-3.2 7.6,-7.3 0,-0.1 0,-0.3 0,-0.4 v -27.2 c 0.1,-24.3 -18.1,-44.1 -40.8,-44.1 z m 14.9,-55.5 v -35.1 c 0,0.3 0.5,0.6 0.7,0.9 10.4,16 11,36.6 1.5,53.2 -2.7,4.8 -6.2,9.1 -10.3,12.7 5.4,-9.7 8.2,-20.6 8.1,-31.7 z m -312,-61.8 c -3.8,-0.6 -6.6,-3.9 -6.5,-7.7 0,-2.1 0.9,-4.1 2.4,-5.6 1.1,-1.2 2.5,-1.9 4.1,-2.1 z m -69.7,3.3 h -1.3 v -1 c 0,-2.4 -1.1,-4.6 -2.9,-6.1 l 28.3,7.2 c 4.5,1.2 7.6,5.2 7.6,9.9 v 25.6 c -9.5,4 -20.3,3.1 -29.1,-2.3 -3.5,-2.2 -6.7,-4.8 -9.5,-7.8 3.3,-1.1 5.6,-4.1 5.6,-7.6 v -1.9 h 1.3 c 4.4,0 8,-3.6 8,-8 0,-4.4 -3.6,-8 -8,-8 z m -50.3,23.4 v -13.4 c -0.1,-4.6 3,-8.7 7.5,-9.8 l 28.4,-7.3 c -1.8,1.5 -2.9,3.8 -2.9,6.1 v 1 h -1.5 c -4.4,0 -8,3.6 -8,8 0,4.4 3.6,8 8,8 h 1.5 v 1.4 c -1,-0.1 -2.3,-0.1 -3.6,-0.1 -10.5,0.2 -20.7,3.4 -29.4,9.3 z m 0,49 v -25.8 c 4,-4.1 16.1,-13.1 29,-13.3 4.2,5.2 9.3,9.8 15,13.4 7.6,4.8 16.4,7.4 25.4,7.5 4.2,0 8.5,-0.6 12.6,-1.7 v 20 c 0,10.6 -4.1,20.8 -11.5,28.4 l -16,10.3 c -8.6,3 -17.9,3.1 -26.5,0.2 -16.8,-5.6 -28,-21.3 -28,-39 z m 32.9,104.6 h -56.9 v -12.1 c 0,-14.1 11.1,-25.9 25.1,-25.9 h 20.7 l 11.1,11.5 z m 1.2,-47.9 c 5.3,0.6 10.6,0.5 15.8,-0.3 l -8.1,8.1 z m 45.9,26.1 v 21.8 h -31 v -24.5 l 12.9,-13.5 h 20.5 c -1.4,6 -2.4,10.8 -2.4,16.2 z m 196.1,-2.5 c 2.9,0 5.6,1.1 7.6,3.2 2,2 3.2,4.8 3.2,7.6 0,2.9 -1.2,5.7 -3.2,7.7 -2,2 -4.7,3.2 -7.6,3.1 -6,0 -10.8,-4.9 -10.8,-10.8 0,-5.9 4.8,-10.7 10.8,-10.8 z m 22.9,-169.3 c 1.5,1.5 2.3,3.5 2.3,5.6 0.2,3.8 -2.5,7.1 -6.3,7.7 v -15.5 c 1.5,0.5 2.8,1.2 4,2.2 z m -120.1,-93.4 c 0,-0.1 0.1,-0.1 0.1,-0.2 0.9,-1.9 2.1,-3.7 3.6,-5.2 3.6,-3.6 8.5,-5.6 13.5,-5.6 h 55.8 c 22.7,0 41.7,17 45.5,38 h -101.2 c -0.1,0 -0.2,0.1 -0.3,0.1 -0.3,0 -0.6,0 -0.8,0 -10.1,-0.5 -17.9,-8.9 -17.9,-18.9 -0.2,-2.9 0.5,-5.7 1.7,-8.2 z m -36.8,19.9 c 4.7,-7.5 11.1,-12.2 19.1,-14.3 -0.1,0.9 -0.1,1.7 -0.1,2.6 0.1,13.3 7.6,25.4 19.5,31.3 -16.8,16.9 -35.6,20 -44.6,20.3 v -23.9 0 c 0,-1.8 1.7,-9 6.1,-16 z m 14.7,145.7 c -13.4,-13.5 -20.9,-31.7 -20.8,-50.7 v -39.2 c 13,-0.4 40.2,-4.7 62.4,-32.7 h 80.6 v 71.9 c -0.1,29.9 -18.6,56.6 -46.6,67.2 -26.2,9.8 -55.8,3.4 -75.6,-16.5 z m 42.2,150.4 v 0 h -103 v -50.8 c 0,-6.9 1.6,-13.7 4.6,-20 7.1,-14.6 21.2,-24.5 37.4,-26.2 v 5.2 c -5.5,1.6 -10.5,4.4 -14.5,8.4 -6.1,6 -9.5,14.3 -9.5,22.9 v 34.2 c 0,4.5 3.5,8.1 8,8.3 h 9.8 c 4.4,0 8,-3.6 8,-8 0,-4.4 -3.6,-8 -8,-8 h -1.8 v -26.4 c 0,-4.4 1.7,-8.6 4.8,-11.7 2.9,-3.1 7,-4.8 11.3,-4.9 h 0.3 c 9.1,0.1 16.5,7.4 16.6,16.6 v 26.4 h -4.4 c -4.4,0 -8,3.6 -8,8 0,4.4 3.6,8 8,8 h 12.2 c 4.5,-0.1 8.1,-3.7 8.2,-8.3 v -34.2 c 0,-15.2 -11,-27.9 -25,-31.4 v -5.1 h 24.5 l 20.5,20.6 z m -9,-108.5 v -6.7 c 12.6,2.5 25.5,2.3 38,-0.7 v 7.4 l -18.9,19.1 z m 132,108.5 h -107 v -73 l 24.3,-24 h 28.7 v 29 c -11.2,3.5 -18.8,13.9 -18.8,25.6 0,7.1 2.8,13.9 7.8,19 5,5.1 11.9,7.9 19,7.9 7.1,0 14,-2.8 19,-7.9 5,-5 7.8,-11.8 7.9,-19 0,-7.1 -2.8,-13.9 -7.9,-18.9 -3.1,-3.1 -6.9,-5.4 -11,-6.7 v -28.3 c 11.4,2.3 21.5,8.6 28.6,17.8 6.1,8 9.4,17.7 9.4,27.8 z m 13,-200.3 v -12.2 c 0,-5.3 3,-10 7.6,-11.2 l 28.9,-8.1 c 1.7,-0.5 3.5,-0.6 5.3,-0.5 0.9,0.1 1.8,0.2 2.6,0.5 l 29,8 c 4.6,1.3 7.6,5.9 7.6,11.3 v 29.5 c -23,3.8 -36.1,-8.4 -40.3,-13 4.5,0 8.1,-3.5 8.3,-8 v -2 h 0.9 c 4.4,0 8,-3.6 8,-8 0,-4.4 -3.6,-8 -8,-8 h -0.9 v -2.3 c 0,-4.1 -3.1,-7.5 -7.2,-8 -0.3,0 -0.5,0 -0.8,0 -4.4,0 -8,3.6 -8,8 v 2.3 h -1.8 c -4.4,0 -8,3.6 -8,8 0,4.4 3.6,8 8,8 h 1.8 v 2 c -0.1,1 0.1,2.1 0.4,3 -0.1,0 -0.5,0 -0.6,0 h -0.1 c -2.6,0 -5,1.3 -6.4,3.4 -9.2,13.2 -20.3,16 -26.3,16.3 z m -18.4,71.7 c -9.5,-16.6 -9,-37.1 1.4,-53.1 0.3,-0.5 1,-0.9 1,-1.3 v 35.5 c -0.1,11.3 2.8,22.3 8.4,32.1 -4.4,-3.7 -8,-8.2 -10.8,-13.2 z m 18.4,-18.9 v -17.8 c 9,-0.2 21.6,-3.1 33.3,-15.6 10.8,9.5 24.7,14.7 39.1,14.7 2.9,0 5.7,-0.2 8.6,-0.6 v 19.3 c 0.2,11.5 -3.9,22.6 -11.5,31.3 l -15.1,10.6 -14.7,2.9 c -4.1,-0.1 -8.1,-0.8 -11.9,-2.2 -0.3,-0.1 -0.6,-0.2 -0.8,-0.3 -0.3,-0.1 -0.5,-0.3 -0.8,-0.4 -15.7,-6.6 -26.2,-23.4 -26.2,-41.9 z m 3,118.5 v -21.8 c -0.1,-8.7 -2,-17.3 -5.6,-25.2 h 24.3 c 3.3,2.9 7.1,5 11.3,6.1 v 40.9 z m 30.3,-58.2 c 2.4,0.3 4.9,0.5 7.3,0.5 0.5,0 1,-0.1 1.5,-0.2 l 7.9,-1.6 v 1 c -3,2.1 -5.8,3.1 -9,3 -2.8,-0.1 -5.5,-1 -7.7,-2.7 z m 15.7,58.2 v -40.3 c 4.5,-1.4 8.7,-3.7 12.3,-6.7 h 20.8 c 13.9,0 24.9,12.6 24.9,28.1 v 18.9 z"
   id="path104"
   style="fill:#4070b3;fill-opacity:1" />

	</g>

</g>
      <g
         id="g114"
         style="fill:#4070b3;fill-opacity:1">
	<g
   id="g112"
   style="fill:#4070b3;fill-opacity:1">
		<path
   d="m 402.902,266.951 c -4.4,0 -8,3.6 -8,8 v 2.3 c 0,0.4 -0.2,0.7 -0.5,0.9 -0.3,-0.2 -0.5,-0.6 -0.5,-0.9 v -2.3 c 0,-4.4 -3.6,-8 -8,-8 -4.4,0 -8,3.6 -8,8 v 2.3 c 0,9.4 7.5,17 16.5,17 9.2,-0.2 16.6,-7.8 16.5,-17 v -2.3 c 0,-4.4 -3.6,-8 -8,-8 z"
   id="path110"
   style="fill:#4070b3;fill-opacity:1" />

	</g>

</g>
      <g
         id="g120"
         style="fill:#4070b3;fill-opacity:1">
	<g
   id="g118"
   style="fill:#4070b3;fill-opacity:1">
		<path
   d="m 444.902,266.951 c -4.4,0 -8,3.6 -8,8 v 2.3 c 0.2,0.3 0.1,0.6 -0.2,0.8 -0.3,0.2 -0.6,0.1 -0.8,-0.2 -0.1,-0.2 -0.1,-0.4 0,-0.6 v -2.3 c 0,-4.4 -3.6,-8 -8,-8 -4.4,0 -8,3.6 -8,8 v 2.3 c 0,9.3 7.5,16.9 16.5,16.9 9,0 16.5,-7.6 16.5,-17 v -2.2 c 0,-4.4 -3.6,-8 -8,-8 z"
   id="path116"
   style="fill:#4070b3;fill-opacity:1" />

	</g>

</g>
      <g
         id="g126"
         style="fill:#4070b3;fill-opacity:1">
	<g
   id="g124"
   style="fill:#4070b3;fill-opacity:1">
		<path
   d="m 67.902,280.451 c -4.4,0 -8,3.6 -8,8 0,-4.4 -3.6,-8 -8,-8 -4.4,0 -8,3.6 -8,8 v 2.1 c 0,8.8 7.2,16 16,16 8.8,0 16,-7.1 16,-16 v -2.1 c 0,-4.4 -3.6,-8 -8,-8 z m -8,10.5 c -0.2,0 0,-0.2 0,-0.4 0,0.2 0.2,0.4 0,0.4 z"
   id="path122"
   style="fill:#4070b3;fill-opacity:1" />

	</g>

</g>
      <g
         id="g132"
         style="fill:#4070b3;fill-opacity:1">
	<g
   id="g130"
   style="fill:#4070b3;fill-opacity:1">
		<path
   d="m 109.902,280.451 c -4.4,0 -8,3.6 -8,8 v 2.1 c 0,0.2 -0.3,0.4 -0.5,0.4 -0.2,0 -0.5,-0.2 -0.5,-0.4 v -2.1 c 0,-4.4 -3.6,-8 -8,-8 -4.4,0 -8,3.6 -8,8 v 2.1 c 0.1,9.1 7.4,16.4 16.5,16.4 9.1,0 16.5,-7.3 16.5,-16.4 v -2.1 c 0,-4.4 -3.6,-8 -8,-8 z"
   id="path128"
   style="fill:#4070b3;fill-opacity:1" />

	</g>

</g>
      <g
         id="g138"
         style="fill:#4070b3;fill-opacity:1">
	<g
   id="g136"
   style="fill:#4070b3;fill-opacity:1">
		<path
   d="m 277.802,369.951 h -6.8 c -4.4,0 -8,3.6 -8,8 0,4.4 3.6,8 8,8 h 6.8 c 4.4,0 8,-3.6 8,-8 0,-4.4 -3.6,-8 -8,-8 z"
   id="path134"
   style="fill:#4070b3;fill-opacity:1" />

	</g>

</g>
      <g
         id="g144"
         style="fill:#4070b3;fill-opacity:1">
	<g
   id="g142"
   style="fill:#4070b3;fill-opacity:1">
		<path
   d="m 277.802,389.951 h -6.8 c -4.4,0 -8,3.6 -8,8 0,4.4 3.6,8 8,8 h 6.8 c 4.4,0 8,-3.6 8,-8 0,-4.4 -3.6,-8 -8,-8 z"
   id="path140"
   style="fill:#4070b3;fill-opacity:1" />

	</g>

</g>
      <g
         id="g150"
         style="fill:#4070b3;fill-opacity:1">
	<g
   id="g148"
   style="fill:#4070b3;fill-opacity:1">
		<path
   d="m 226.902,194.951 c -4.4,0 -8,3.6 -8,8 v 3.4 c 0,3.1 -2.5,5.6 -5.6,5.6 -1.4,0 -2.8,-0.6 -3.8,-1.6 -1,-1.1 -1.6,-2.5 -1.6,-4 v -3.4 c 0,-4.4 -3.6,-8 -8,-8 -4.4,0 -8,3.6 -8,8 v 3.4 c -0.1,11.8 9.3,21.5 21.1,21.6 0.1,0 0.2,0 0.3,0 12,0 21.6,-9.7 21.6,-21.6 v -3.4 c 0,-4.4 -3.6,-8 -8,-8 z"
   id="path146"
   style="fill:#4070b3;fill-opacity:1" />

	</g>

</g>
      <g
         id="g156"
         style="fill:#4070b3;fill-opacity:1">
	<g
   id="g154"
   style="fill:#4070b3;fill-opacity:1">
		<path
   d="m 294.802,194.951 c -4.4,0 -8,3.6 -8,8 v 3.4 c 0,3.1 -2.6,5.6 -5.7,5.6 -1.5,0 -2.8,-0.6 -3.9,-1.6 -1,-1.1 -1.5,-2.5 -1.5,-4 v -3.4 c 0,-4.4 -3.6,-8 -8,-8 -4.4,0 -8,3.6 -8,8 v 3.4 c -0.1,5.7 2.1,11.2 6.1,15.2 0.2,0.1 0.1,0.1 0.1,0.1 8.5,8.4 22.3,8.3 30.7,-0.2 4,-4 6.2,-9.5 6.2,-15.1 v -3.4 c 0,-4.4 -3.6,-8 -8,-8 z"
   id="path152"
   style="fill:#4070b3;fill-opacity:1" />

	</g>

</g>
      <g
         id="g162"
         style="fill:#4070b3;fill-opacity:1">
	<g
   id="g160"
   style="fill:#4070b3;fill-opacity:1">
		<path
   d="m 138.702,89.951 c -0.1,0 -0.3,0 -0.4,0 h -32.4 v -32.4 c 0,-4.2 -3.3,-7.5 -7.5,-7.6 -0.1,0 -0.3,0 -0.4,0 h -25.1 c -4.4,0 -8,3.1 -8,7.6 v 32.4 h -32.2 c -4.2,-0.1 -7.7,3.3 -7.8,7.5 0,0.1 0,0.2 0,0.3 v 25.1 c -0.1,4.4 3.3,8 7.8,8.1 h 32.2 v 32.1 c 0,4.4 3.6,7.9 7.9,7.9 h 0.1 25.1 c 4.3,0.1 7.8,-3.4 7.9,-7.7 0,-0.1 0,-0.1 0,-0.2 v -32.1 h 32.4 c 4.3,-0.1 7.7,-3.6 7.6,-7.9 0,-0.1 0,-0.1 0,-0.2 v -25.1 c 0.1,-4.1 -3.1,-7.6 -7.2,-7.8 z m -8.8,25 h -31.9 c -4.4,0 -8.1,3.5 -8.1,7.9 v 32.1 h -9 v -32.1 c 0,-4.4 -3.6,-7.9 -7.9,-7.9 0,0 0,0 -0.1,0 h -32 v -9 h 32 c 4.5,-0.1 8,-3.8 8,-8.2 v -31.8 h 9 v 31.8 c 0.1,4.5 3.7,8.1 8.1,8.2 h 31.9 z"
   id="path158"
   style="fill:#4070b3;fill-opacity:1" />

	</g>

</g>
      <g
         id="g164"
         style="fill:#4070b3;fill-opacity:1">
</g>
      <g
         id="g166"
         style="fill:#4070b3;fill-opacity:1">
</g>
      <g
         id="g168"
         style="fill:#4070b3;fill-opacity:1">
</g>
      <g
         id="g170"
         style="fill:#4070b3;fill-opacity:1">
</g>
      <g
         id="g172"
         style="fill:#4070b3;fill-opacity:1">
</g>
      <g
         id="g174"
         style="fill:#4070b3;fill-opacity:1">
</g>
      <g
         id="g176"
         style="fill:#4070b3;fill-opacity:1">
</g>
      <g
         id="g178"
         style="fill:#4070b3;fill-opacity:1">
</g>
      <g
         id="g180"
         style="fill:#4070b3;fill-opacity:1">
</g>
      <g
         id="g182"
         style="fill:#4070b3;fill-opacity:1">
</g>
      <g
         id="g184"
         style="fill:#4070b3;fill-opacity:1">
</g>
      <g
         id="g186"
         style="fill:#4070b3;fill-opacity:1">
</g>
      <g
         id="g188"
         style="fill:#4070b3;fill-opacity:1">
</g>
      <g
         id="g190"
         style="fill:#4070b3;fill-opacity:1">
</g>
      <g
         id="g192"
         style="fill:#4070b3;fill-opacity:1">
</g>
    </g>
    <g
       id="g254"
       transform="matrix(2.1166667,0,0,2.1166667,140.90952,-45.054763)"
       style="fill:#4070b3;fill-opacity:1">
      <path
         d="M 52.603,47.031 C 53.904,45.992 54.907,44.599 55.475,43 H 56 c 2.206,0 4,-1.794 4,-4 0,-1.474 -0.81,-2.75 -2,-3.444 V 31 c 0,-4.411 -3.589,-8 -8,-8 h -6 c -2.089,0 -3.988,0.812 -5.414,2.128 -0.325,-0.047 -0.652,-0.079 -0.982,-0.097 1.301,-1.039 2.303,-2.431 2.871,-4.03 H 41 c 2.206,0 4,-1.794 4,-4 0,-1.474 -0.81,-2.75 -2,-3.444 V 9 C 43,4.589 39.411,1 35,1 h -6 c -4.411,0 -8,3.589 -8,8 v 4.556 c -1.19,0.694 -2,1.97 -2,3.444 0,2.206 1.794,4 4,4 h 0.525 c 0.568,1.599 1.57,2.991 2.871,4.03 -0.33,0.018 -0.657,0.05 -0.982,0.097 C 23.988,23.812 22.089,23 20,23 h -6 c -4.411,0 -8,3.589 -8,8 v 4.556 C 4.81,36.25 4,37.526 4,39 c 0,2.206 1.794,4 4,4 h 0.525 c 0.568,1.599 1.57,2.991 2.872,4.031 C 5.612,47.347 1,52.138 1,58 v 4 c 0,0.552 0.448,1 1,1 h 30 30 c 0.552,0 1,-0.448 1,-1 V 58 C 63,52.138 58.388,47.347 52.603,47.031 Z M 12.52,49 l 3.141,3.926 -3.046,3.046 -1.387,-6.933 C 11.483,49.017 11.739,49 12,49 Z m 6.4,0 L 17,51.399 15.08,49 Z m 2.56,0 H 22 c 0.261,0 0.517,0.017 0.772,0.039 l -1.387,6.933 -3.046,-3.046 z m 1.123,-1.969 C 23.904,45.992 24.907,44.599 25.475,43 H 26 c 1.474,0 2.75,-0.81 3.444,-2 h 5.113 c 0.694,1.19 1.97,2 3.444,2 h 0.525 c 0.568,1.599 1.57,2.991 2.872,4.031 -4.18,0.228 -7.74,2.792 -9.397,6.414 -1.658,-3.622 -5.218,-6.186 -9.398,-6.414 z M 27.52,27 l 3.7,4.625 C 31.409,31.862 31.696,32 32,32 c 0.304,0 0.591,-0.138 0.781,-0.375 L 36.48,27 H 37 c 0.027,0 0.053,0.004 0.08,0.004 C 36.397,28.181 36,29.544 36,31 v 4.556 C 34.81,36.25 34,37.526 34,39 h -4 c 0,-1.474 -0.81,-2.75 -2,-3.444 V 31 C 28,29.544 27.603,28.181 26.92,27.004 26.947,27.004 26.973,27 27,27 Z m 6.4,0 L 32,29.399 30.08,27 Z m 4.139,14 H 38 c -1.103,0 -2,-0.897 -2,-2 0,-1.103 0.897,-2 2,-2 v 3 c 0,0.338 0.022,0.671 0.059,1 z M 26,37 c 1.103,0 2,0.897 2,2 0,1.103 -0.897,2 -2,2 H 25.941 C 25.978,40.671 26,40.338 26,40 Z M 48.92,49 47,51.399 45.08,49 Z M 42,49 h 0.52 l 3.141,3.926 -3.046,3.046 -1.387,-6.933 C 41.483,49.017 41.739,49 42,49 Z m 9.48,0 H 52 c 0.261,0 0.517,0.017 0.772,0.039 l -1.387,6.933 -3.046,-3.046 z M 47,47 c -3.86,0 -7,-3.14 -7,-7 v -3 h 3 c 2.124,0 4.027,-0.955 5.312,-2.454 C 48.918,35.986 50.342,37 52,37 h 2 v 3 c 0,3.86 -3.14,7 -7,7 z m 9,-6 H 55.941 C 55.978,40.671 56,40.338 56,40 v -3 c 1.103,0 2,0.897 2,2 0,1.103 -0.897,2 -2,2 z M 44,25 h 6 c 3.309,0 6,2.691 6,6 v 4 h -1 -3 c -1.103,0 -2,-0.897 -2,-2 v -3 -1 h -2 v 1 c 0,2.757 -2.243,5 -5,5 h -4 -1 v -4 c 0,-3.309 2.691,-6 6,-6 z M 41,19 H 40.941 C 40.978,18.671 41,18.338 41,18 v -3 c 1.103,0 2,0.897 2,2 0,1.103 -0.897,2 -2,2 z M 23,9 c 0,-3.309 2.691,-6 6,-6 h 6 c 3.309,0 6,2.691 6,6 v 4 h -1 -3 c -1.103,0 -2,-0.897 -2,-2 V 8 7 h -2 v 1 c 0,2.757 -2.243,5 -5,5 h -4 -1 z m 0,10 c -1.103,0 -2,-0.897 -2,-2 0,-1.103 0.897,-2 2,-2 v 3 c 0,0.338 0.022,0.671 0.059,1 z m 2,-1 v -3 h 3 c 2.124,0 4.027,-0.955 5.312,-2.454 C 33.918,13.986 35.342,15 37,15 h 2 v 3 c 0,3.86 -3.14,7 -7,7 -3.86,0 -7,-3.14 -7,-7 z M 8,31 c 0,-3.309 2.691,-6 6,-6 h 6 c 3.309,0 6,2.691 6,6 v 4 h -1 -3 c -1.103,0 -2,-0.897 -2,-2 v -3 -1 h -2 v 1 c 0,2.757 -2.243,5 -5,5 H 9 8 Z M 8,41 C 6.897,41 6,40.103 6,39 6,37.897 6.897,37 8,37 v 3 c 0,0.338 0.022,0.671 0.059,1 z m 2,-1 v -3 h 3 c 2.124,0 4.027,-0.955 5.312,-2.454 C 18.918,35.986 20.342,37 22,37 h 2 v 3 c 0,3.86 -3.14,7 -7,7 -3.86,0 -7,-3.14 -7,-7 z M 3,58 c 0,-4.009 2.637,-7.412 6.266,-8.572 l 1.754,8.769 c 0.072,0.361 0.338,0.654 0.691,0.761 C 11.806,58.986 11.903,59 12,59 c 0.261,0 0.517,-0.103 0.707,-0.293 L 17,54.414 21.293,58.707 C 21.483,58.897 21.739,59 22,59 c 0.097,0 0.194,-0.014 0.29,-0.043 0.353,-0.107 0.619,-0.399 0.691,-0.761 l 1.754,-8.769 C 28.363,50.588 31,53.991 31,58 v 3 H 3 Z m 58,3 H 33 v -3 c 0,-4.009 2.637,-7.412 6.266,-8.572 l 1.754,8.769 c 0.072,0.361 0.338,0.654 0.691,0.761 C 41.806,58.986 41.903,59 42,59 c 0.261,0 0.517,-0.103 0.707,-0.293 L 47,54.414 51.293,58.707 C 51.483,58.897 51.739,59 52,59 c 0.097,0 0.194,-0.014 0.29,-0.043 0.353,-0.107 0.619,-0.399 0.691,-0.761 l 1.754,-8.769 C 58.363,50.588 61,53.991 61,58 Z"
         id="path248"
         style="fill:#4070b3;fill-opacity:1" />
      <path
         d="m 54,19 c 4.962,0 9,-4.038 9,-9 0,-4.962 -4.038,-9 -9,-9 -4.962,0 -9,4.038 -9,9 0,4.962 4.038,9 9,9 z M 54,3 c 3.86,0 7,3.14 7,7 0,3.86 -3.14,7 -7,7 -3.86,0 -7,-3.14 -7,-7 0,-3.86 3.14,-7 7,-7 z"
         id="path250"
         style="fill:#4070b3;fill-opacity:1" />
      <path
         d="m 53,15 h 2 v -4 h 4 V 9 H 55 V 5 h -2 v 4 h -4 v 2 h 4 z"
         id="path252"
         style="fill:#4070b3;fill-opacity:1" />
    </g>
    <g
       id="g508"
       transform="matrix(0.26458333,0,0,0.26458333,-15.57262,-45.054893)"
       style="fill:#4070b3;fill-opacity:1">
      <g
         id="g271"
         style="fill:#4070b3;fill-opacity:1">
	<g
   id="g269"
   style="fill:#4070b3;fill-opacity:1">
		<path
   d="m 307.2,341.333 c -28.228,0 -51.2,-22.963 -51.2,-51.2 0,-28.237 22.972,-51.2 51.2,-51.2 4.71,0 8.533,-3.823 8.533,-8.533 0,-4.71 -3.823,-8.533 -8.533,-8.533 -37.641,0 -68.267,30.626 -68.267,68.267 0,37.641 30.626,68.267 68.267,68.267 4.71,0 8.533,-3.823 8.533,-8.533 0,-4.71 -3.823,-8.535 -8.533,-8.535 z"
   id="path267"
   style="fill:#4070b3;fill-opacity:1" />

	</g>

</g>
      <g
         id="g277"
         style="fill:#4070b3;fill-opacity:1">
	<g
   id="g275"
   style="fill:#4070b3;fill-opacity:1">
		<path
   d="m 266.778,156.245 c -23.868,-6.852 -49.604,-0.205 -67.149,17.348 -12.894,12.894 -19.994,30.037 -19.994,48.273 0,18.236 7.1,35.379 19.994,48.273 1.664,1.664 3.849,2.5 6.033,2.5 2.176,0 4.369,-0.836 6.033,-2.5 3.337,-3.337 3.337,-8.73 0,-12.066 -9.668,-9.677 -14.993,-22.528 -14.993,-36.207 0,-13.679 5.325,-26.539 14.993,-36.207 13.158,-13.175 32.461,-18.176 50.372,-13.005 4.54,1.297 9.259,-1.323 10.556,-5.854 1.306,-4.522 -1.314,-9.258 -5.845,-10.555 z"
   id="path273"
   style="fill:#4070b3;fill-opacity:1" />

	</g>

</g>
      <g
         id="g283"
         style="fill:#4070b3;fill-opacity:1">
	<g
   id="g281"
   style="fill:#4070b3;fill-opacity:1">
		<path
   d="m 457.873,351.94 c -3.337,-3.337 -8.738,-3.337 -12.066,0 -9.677,9.668 -22.528,14.993 -36.207,14.993 -13.679,0 -26.53,-5.325 -36.207,-14.993 -9.668,-9.677 -14.993,-22.528 -14.993,-36.207 0,-13.679 5.325,-26.53 14.993,-36.207 3.337,-3.337 3.337,-8.73 0,-12.066 -3.328,-3.337 -8.73,-3.337 -12.066,0 -12.894,12.894 -19.994,30.037 -19.994,48.273 0,18.236 7.1,35.379 19.994,48.273 C 374.221,376.9 391.364,384 409.6,384 c 18.236,0 35.379,-7.1 48.273,-19.994 3.337,-3.336 3.337,-8.729 0,-12.066 z"
   id="path279"
   style="fill:#4070b3;fill-opacity:1" />

	</g>

</g>
      <g
         id="g289"
         style="fill:#4070b3;fill-opacity:1">
	<g
   id="g287"
   style="fill:#4070b3;fill-opacity:1">
		<path
   d="M 432.273,207.727 C 419.379,194.833 402.236,187.733 384,187.733 c -18.236,0 -35.379,7.1 -48.273,19.994 -3.336,3.337 -3.337,8.73 0,12.066 3.337,3.336 8.738,3.337 12.066,0 9.677,-9.668 22.528,-14.993 36.207,-14.993 13.679,0 26.53,5.325 36.198,14.993 12.988,12.979 18.031,32.051 13.175,49.783 -1.246,4.548 1.425,9.242 5.973,10.487 0.759,0.205 1.519,0.307 2.261,0.307 3.755,0 7.194,-2.492 8.226,-6.281 6.479,-23.627 -0.254,-49.056 -17.56,-66.362 z"
   id="path285"
   style="fill:#4070b3;fill-opacity:1" />

	</g>

</g>
      <g
         id="g295"
         style="fill:#4070b3;fill-opacity:1">
	<g
   id="g293"
   style="fill:#4070b3;fill-opacity:1">
		<path
   d="m 393.336,156.442 c -12.894,-12.894 -30.037,-19.994 -48.273,-19.994 -18.236,0 -35.379,7.1 -48.273,19.994 -3.337,3.336 -3.337,8.73 0,12.066 3.337,3.337 8.738,3.337 12.066,0 9.677,-9.668 22.528,-14.993 36.207,-14.993 13.679,0 26.539,5.325 36.207,14.993 1.664,1.664 3.849,2.5 6.033,2.5 2.184,0 4.361,-0.836 6.033,-2.5 3.336,-3.337 3.336,-8.73 0,-12.066 z"
   id="path291"
   style="fill:#4070b3;fill-opacity:1" />

	</g>

</g>
      <g
         id="g301"
         style="fill:#4070b3;fill-opacity:1">
	<g
   id="g299"
   style="fill:#4070b3;fill-opacity:1">
		<path
   d="m 167.305,242.287 c -12.894,-12.894 -30.037,-19.994 -48.273,-19.994 -18.236,0 -35.379,7.1 -48.273,19.994 -3.337,3.337 -3.337,8.73 0,12.066 3.336,3.337 8.738,3.337 12.066,0 9.677,-9.668 22.528,-14.993 36.207,-14.993 13.679,0 26.539,5.325 36.207,14.993 9.668,9.677 14.993,22.528 14.993,36.207 0,13.679 -5.325,26.539 -14.993,36.207 -3.337,3.337 -3.337,8.73 0,12.066 1.664,1.664 3.849,2.5 6.033,2.5 2.185,0 4.369,-0.836 6.033,-2.5 12.894,-12.894 19.994,-30.037 19.994,-48.273 -0.001,-18.236 -7.101,-35.379 -19.994,-48.273 z"
   id="path297"
   style="fill:#4070b3;fill-opacity:1" />

	</g>

</g>
      <g
         id="g307"
         style="fill:#4070b3;fill-opacity:1">
	<g
   id="g305"
   style="fill:#4070b3;fill-opacity:1">
		<path
   d="M 512,238.933 C 512,197.094 480.879,161.22 440.098,154.718 427.912,114.125 386.022,86.963 342.391,95.445 326.357,72.968 300.876,59.733 273.066,59.733 c -35.089,0 -66.458,21.897 -79.224,53.7 -16.341,-12.698 -36.258,-19.567 -57.31,-19.567 -49.741,0 -90.726,39.108 -93.679,88.201 C 16.29,197.291 0,225.169 0,256 c 0,43.042 32.222,79.113 74.359,84.54 13.764,36.429 48.35,60.527 87.774,60.527 16.444,0 32.384,-4.258 46.541,-12.373 11.981,13.85 27.887,23.356 45.807,27.315 14.788,37.205 50.79,61.858 91.119,61.858 32.845,0 62.882,-16.068 81.212,-43.196 43.332,-4.378 76.655,-40.798 76.655,-84.804 0,-18.227 -5.854,-35.849 -16.614,-50.466 C 502.929,283.435 512,261.837 512,238.933 Z m -90.487,179.021 c -2.816,0.145 -5.376,1.655 -6.852,4.062 -14.899,24.286 -40.721,38.784 -69.06,38.784 -34.705,0 -65.527,-22.11 -76.706,-55.006 -1.015,-2.995 -3.601,-5.18 -6.724,-5.683 -18.091,-2.91 -33.929,-12.749 -44.621,-27.691 -1.664,-2.321 -4.284,-3.567 -6.946,-3.567 -1.673,0 -3.362,0.486 -4.847,1.51 C 192.87,379.29 177.783,384 162.133,384 128.298,384 98.816,362.308 88.78,330.027 87.73,326.639 84.693,324.259 81.151,324.045 45.218,321.86 17.067,291.977 17.067,256 c 0,-26.044 14.541,-49.451 37.956,-61.09 2.884,-1.434 4.719,-4.378 4.736,-7.595 0.222,-42.121 34.671,-76.382 76.774,-76.382 21.052,0 40.713,8.405 55.373,23.671 2.176,2.27 5.444,3.157 8.474,2.304 3.029,-0.862 5.342,-3.319 6.016,-6.4 6.758,-31.121 34.799,-53.709 66.671,-53.709 23.902,0 45.653,12.237 58.214,32.734 1.971,3.234 5.837,4.762 9.481,3.789 38.554,-10.317 76.1,14.43 84.233,51.004 0.802,3.635 3.883,6.332 7.595,6.647 34.961,3.004 62.345,32.853 62.345,67.959 0,20.608 -9.19,39.902 -25.207,52.941 -1.818,1.476 -2.944,3.635 -3.123,5.965 -0.179,2.338 0.606,4.634 2.176,6.374 11.358,12.595 17.621,28.809 17.621,45.653 -0.002,36.396 -28.503,66.306 -64.889,68.089 z"
   id="path303"
   style="fill:#4070b3;fill-opacity:1" />

	</g>

</g>
      <g
         id="g313"
         style="fill:#4070b3;fill-opacity:1">
	<g
   id="g311"
   style="fill:#4070b3;fill-opacity:1">
		<path
   d="m 430.404,425.421 c -0.58,-4.676 -4.847,-8.03 -9.515,-7.415 -48.017,5.956 -71.356,-28.544 -72.397,-30.123 -2.56,-3.942 -7.825,-5.069 -11.784,-2.517 -3.959,2.552 -5.103,7.834 -2.543,11.793 1.101,1.698 25.549,38.613 75.597,38.613 4.224,0 8.636,-0.256 13.227,-0.836 4.676,-0.581 7.996,-4.839 7.415,-9.515 z"
   id="path309"
   style="fill:#4070b3;fill-opacity:1" />

	</g>

</g>
      <g
         id="g319"
         style="fill:#4070b3;fill-opacity:1">
	<g
   id="g317"
   style="fill:#4070b3;fill-opacity:1">
		<path
   d="m 200.038,120.397 c -4.574,-1.109 -9.182,1.724 -10.283,6.306 -0.171,0.7 -4.13,17.357 -4.685,31.898 -0.179,4.719 3.49,8.678 8.201,8.858 0.111,0.009 0.222,0.009 0.333,0.009 4.565,0 8.346,-3.61 8.525,-8.209 0.486,-12.834 4.19,-28.425 4.224,-28.578 1.092,-4.584 -1.732,-9.192 -6.315,-10.284 z"
   id="path315"
   style="fill:#4070b3;fill-opacity:1" />

	</g>

</g>
      <g
         id="g325"
         style="fill:#4070b3;fill-opacity:1">
	<g
   id="g323"
   style="fill:#4070b3;fill-opacity:1">
		<path
   d="m 95.215,170.769 c -26.3,-4.181 -47.565,8.678 -48.461,9.233 -4.002,2.458 -5.248,7.689 -2.799,11.699 1.604,2.637 4.42,4.087 7.296,4.087 1.502,0 3.029,-0.401 4.42,-1.237 0.162,-0.102 16.973,-10.095 36.855,-6.921 4.651,0.725 9.028,-2.44 9.771,-7.091 0.743,-4.65 -2.431,-9.028 -7.082,-9.77 z"
   id="path321"
   style="fill:#4070b3;fill-opacity:1" />

	</g>

</g>
      <g
         id="g331"
         style="fill:#4070b3;fill-opacity:1">
	<g
   id="g329"
   style="fill:#4070b3;fill-opacity:1">
		<path
   d="m 441.822,161.707 c -0.427,-4.702 -4.557,-8.09 -9.267,-7.731 -4.702,0.427 -8.158,4.574 -7.731,9.267 0.009,0.111 0.939,10.462 1.015,19.703 0.043,4.685 3.857,8.456 8.533,8.456 0.026,0 0.043,0 0.085,0.009 4.71,-0.043 8.499,-3.9 8.457,-8.61 -0.085,-9.924 -1.049,-20.642 -1.092,-21.094 z"
   id="path327"
   style="fill:#4070b3;fill-opacity:1" />

	</g>

</g>
      <g
         id="g337"
         style="fill:#4070b3;fill-opacity:1">
	<g
   id="g335"
   style="fill:#4070b3;fill-opacity:1">
		<path
   d="m 235.17,335.607 c -4.634,-0.87 -9.088,2.202 -9.95,6.835 -1.57,8.439 -13.363,22.093 -20.429,28.706 -3.439,3.226 -3.618,8.627 -0.401,12.066 1.673,1.801 3.951,2.705 6.229,2.705 2.082,0 4.173,-0.768 5.828,-2.295 2.296,-2.142 22.468,-21.384 25.557,-38.067 0.863,-4.633 -2.2,-9.088 -6.834,-9.95 z"
   id="path333"
   style="fill:#4070b3;fill-opacity:1" />

	</g>

</g>
      <g
         id="g343"
         style="fill:#4070b3;fill-opacity:1">
	<g
   id="g341"
   style="fill:#4070b3;fill-opacity:1">
		<path
   d="m 290.526,401.357 -29.321,-1.348 c -4.736,-0.068 -8.704,3.43 -8.917,8.132 -0.213,4.71 3.422,8.704 8.132,8.917 l 29.32,1.348 c 0.137,0.009 0.273,0.009 0.401,0.009 4.531,0 8.303,-3.567 8.516,-8.141 0.214,-4.71 -3.421,-8.704 -8.131,-8.917 z"
   id="path339"
   style="fill:#4070b3;fill-opacity:1" />

	</g>

</g>
      <g
         id="g349"
         style="fill:#4070b3;fill-opacity:1">
	<g
   id="g347"
   style="fill:#4070b3;fill-opacity:1">
		<path
   d="m 89.079,311.049 c 0.657,-4.668 -2.586,-8.986 -7.253,-9.643 -4.668,-0.657 -8.986,2.594 -9.643,7.262 -2.202,15.582 -0.085,24.909 0.162,25.924 0.947,3.883 4.42,6.468 8.252,6.468 0.657,0 1.323,-0.077 1.98,-0.239 4.565,-1.075 7.39,-5.658 6.357,-10.223 -0.017,-0.076 -1.587,-7.253 0.145,-19.549 z"
   id="path345"
   style="fill:#4070b3;fill-opacity:1" />

	</g>

</g>
      <g
         id="g355"
         style="fill:#4070b3;fill-opacity:1">
	<g
   id="g353"
   style="fill:#4070b3;fill-opacity:1">
		<path
   d="m 481.476,292.907 c -3.089,-3.507 -8.465,-3.849 -12.006,-0.802 -0.085,0.068 -8.644,7.27 -33.084,15.829 -4.446,1.553 -6.784,6.426 -5.231,10.871 1.229,3.516 4.531,5.717 8.055,5.717 0.93,0 1.886,-0.162 2.816,-0.478 27.827,-9.745 37.76,-18.261 38.801,-19.2 3.465,-3.131 3.738,-8.43 0.649,-11.937 z"
   id="path351"
   style="fill:#4070b3;fill-opacity:1" />

	</g>

</g>
      <g
         id="g361"
         style="fill:#4070b3;fill-opacity:1">
	<g
   id="g359"
   style="fill:#4070b3;fill-opacity:1">
		<path
   d="M 51.2,423.134 13.534,460.8 51.2,498.466 88.866,460.8 Z M 37.666,460.8 51.2,447.266 64.734,460.8 51.2,474.334 Z"
   id="path357"
   style="fill:#4070b3;fill-opacity:1" />

	</g>

</g>
      <g
         id="g367"
         style="fill:#4070b3;fill-opacity:1">
	<g
   id="g365"
   style="fill:#4070b3;fill-opacity:1">
		<path
   d="m 51.2,409.6 c -4.71,0 -8.533,3.823 -8.533,8.533 V 435.2 c 0,4.71 3.823,8.533 8.533,8.533 4.71,0 8.533,-3.823 8.533,-8.533 v -17.067 c 0,-4.71 -3.823,-8.533 -8.533,-8.533 z"
   id="path363"
   style="fill:#4070b3;fill-opacity:1" />

	</g>

</g>
      <g
         id="g373"
         style="fill:#4070b3;fill-opacity:1">
	<g
   id="g371"
   style="fill:#4070b3;fill-opacity:1">
		<path
   d="M 93.867,452.267 H 76.8 c -4.71,0 -8.533,3.823 -8.533,8.533 0,4.71 3.823,8.533 8.533,8.533 h 17.067 c 4.71,0 8.533,-3.823 8.533,-8.533 0,-4.71 -3.823,-8.533 -8.533,-8.533 z"
   id="path369"
   style="fill:#4070b3;fill-opacity:1" />

	</g>

</g>
      <g
         id="g379"
         style="fill:#4070b3;fill-opacity:1">
	<g
   id="g377"
   style="fill:#4070b3;fill-opacity:1">
		<path
   d="m 51.2,477.867 c -4.71,0 -8.533,3.823 -8.533,8.533 v 17.067 c 0,4.71 3.823,8.533 8.533,8.533 4.71,0 8.533,-3.823 8.533,-8.533 V 486.4 c 0,-4.71 -3.823,-8.533 -8.533,-8.533 z"
   id="path375"
   style="fill:#4070b3;fill-opacity:1" />

	</g>

</g>
      <g
         id="g385"
         style="fill:#4070b3;fill-opacity:1">
	<g
   id="g383"
   style="fill:#4070b3;fill-opacity:1">
		<path
   d="M 25.6,452.267 H 8.533 C 3.823,452.267 0,456.09 0,460.8 c 0,4.71 3.823,8.533 8.533,8.533 H 25.6 c 4.71,0 8.533,-3.823 8.533,-8.533 0,-4.71 -3.823,-8.533 -8.533,-8.533 z"
   id="path381"
   style="fill:#4070b3;fill-opacity:1" />

	</g>

</g>
      <g
         id="g391"
         style="fill:#4070b3;fill-opacity:1">
	<g
   id="g389"
   style="fill:#4070b3;fill-opacity:1">
		<path
   d="m 503.467,42.667 c -18.825,0 -34.133,-15.309 -34.133,-34.133 0,-4.71 -3.823,-8.533 -8.533,-8.533 -4.71,0 -8.533,3.823 -8.533,8.533 0,18.825 -15.309,34.133 -34.133,34.133 -4.71,0 -8.533,3.823 -8.533,8.533 0,4.71 3.823,8.533 8.533,8.533 18.825,0 34.133,15.309 34.133,34.133 0,4.71 3.823,8.533 8.533,8.533 4.71,0 8.533,-3.823 8.533,-8.533 0,-18.825 15.309,-34.133 34.133,-34.133 4.71,0 8.533,-3.823 8.533,-8.533 0,-4.71 -3.823,-8.533 -8.533,-8.533 z M 460.8,65.596 c -3.789,-5.7 -8.695,-10.607 -14.396,-14.396 5.7,-3.789 10.607,-8.695 14.396,-14.396 3.789,5.7 8.695,10.607 14.396,14.396 -5.701,3.789 -10.607,8.695 -14.396,14.396 z"
   id="path387"
   style="fill:#4070b3;fill-opacity:1" />

	</g>

</g>
      <g
         id="g393"
         style="fill:#4070b3;fill-opacity:1">
</g>
      <g
         id="g395"
         style="fill:#4070b3;fill-opacity:1">
</g>
      <g
         id="g397"
         style="fill:#4070b3;fill-opacity:1">
</g>
      <g
         id="g399"
         style="fill:#4070b3;fill-opacity:1">
</g>
      <g
         id="g401"
         style="fill:#4070b3;fill-opacity:1">
</g>
      <g
         id="g403"
         style="fill:#4070b3;fill-opacity:1">
</g>
      <g
         id="g405"
         style="fill:#4070b3;fill-opacity:1">
</g>
      <g
         id="g407"
         style="fill:#4070b3;fill-opacity:1">
</g>
      <g
         id="g409"
         style="fill:#4070b3;fill-opacity:1">
</g>
      <g
         id="g411"
         style="fill:#4070b3;fill-opacity:1">
</g>
      <g
         id="g413"
         style="fill:#4070b3;fill-opacity:1">
</g>
      <g
         id="g415"
         style="fill:#4070b3;fill-opacity:1">
</g>
      <g
         id="g417"
         style="fill:#4070b3;fill-opacity:1">
</g>
      <g
         id="g419"
         style="fill:#4070b3;fill-opacity:1">
</g>
      <g
         id="g421"
         style="fill:#4070b3;fill-opacity:1">
</g>
    </g>
  </g>
</svg>
