<?xml version="1.0" encoding="UTF-8" standalone="no"?><!DOCTYPE svg PUBLIC "-//W3C//DTD SVG 1.1//EN" "http://www.w3.org/Graphics/SVG/1.1/DTD/svg11.dtd"><svg width="100%" height="100%" viewBox="0 0 1957 1427" version="1.1" xmlns="http://www.w3.org/2000/svg" xmlns:xlink="http://www.w3.org/1999/xlink" xml:space="preserve" xmlns:serif="http://www.serif.com/" style="fill-rule:evenodd;clip-rule:evenodd;stroke-linejoin:round;stroke-miterlimit:2;"><g><path d="M1956.65,533.022c-83.313,76.902 -160.035,84.139 -208.048,84.139c-247.93,-0 -412.926,-343.085 -764.743,-343.085c-308.165,-0 -389.353,228.287 -411.615,266.262c-22.261,37.975 -108.687,277.934 -167.614,330.147c-58.927,52.223 -267.816,191.648 -360.108,379.594c-23.658,48.189 -44.523,135.314 -44.523,176.344l1956.65,0l0,-893.401Z" style="fill:#52c1ea;fill-rule:nonzero;"/><path d="M1587.22,1426.42l-355.473,0l-29.487,-79.39c-10.447,-28.119 -31.822,-50.729 -59.154,-63.099c-25.746,-11.646 -60.39,-32.79 -93.983,-70.494c-65.361,-73.367 -100.045,-152.075 -100.045,-152.075l220.301,-1.074c0,-0 -19.827,-123.231 89.664,-286.9c11.72,-17.512 17.051,-38.533 15.224,-59.538l-10.379,-119.364c0,0 -74.404,-83.147 -28.754,-186.304c-0,0 43.653,-60.44 60.97,-38.313c0,-0 131.859,313.994 143.863,360.682c12.006,46.687 28.013,76.037 12.006,222.769c-4.238,38.84 -5.76,71.236 -5.706,97.871c0.101,51.14 11.523,101.608 33.389,147.833l107.564,227.396Z" style="fill:#f7c29e;fill-rule:nonzero;"/><path d="M1231.75,1426.42l-29.487,-79.39c-10.447,-28.119 -31.822,-50.729 -59.154,-63.099c-0.046,-0.018 -0.089,-0.044 -0.136,-0.062c0.046,0.018 0.09,0.044 0.136,0.062c27.332,12.37 48.707,34.98 59.154,63.099l29.487,79.39Zm-88.848,-142.585c-0.022,-0.009 -0.046,-0.018 -0.067,-0.027c0.022,0.009 0.044,0.018 0.067,0.027Zm-0.142,-0.062c-0.021,-0.008 -0.043,-0.017 -0.064,-0.026c0.022,0.009 0.043,0.018 0.064,0.026Zm-0.141,-0.061c-0.017,-0.008 -0.038,-0.017 -0.055,-0.026c0.018,0.009 0.036,0.018 0.055,0.026Zm-0.154,-0.069l-0.001,-0l0.001,-0Zm303.804,-232.757l-0,-0.009l-0,0.009Zm-0,-0.297c-0,-0.052 -0.001,-0.096 -0.001,-0.148c0.001,0.052 0.001,0.096 0.001,0.148Zm-0.001,-0.21c-0.003,-3.998 0.035,-8.145 0.105,-12.396l-0.003,0.017l-0.001,0.009c-0.072,4.252 -0.104,8.381 -0.101,12.37Z" style="fill:#9ce3ec;fill-rule:nonzero;"/><path d="M1231.75,1426.42l355.473,0l-107.564,-227.396c-21.866,-46.225 -33.288,-96.693 -33.389,-147.833c-0.001,-0.104 -0.001,-0.2 -0.001,-0.305l-0,-0.297c-0,-0.052 -0,-0.096 -0.001,-0.148l-0,-0.062c-0.003,-3.989 0.029,-8.118 0.101,-12.37c-0.153,1.179 -15.699,120.543 -63.66,137.173c-48.202,16.709 -94.036,10.921 -127.032,47.552c-18.314,20.332 -45.125,32.763 -82.109,32.763c-29.647,0 -65.832,-7.988 -109.392,-26.303c28.384,27.752 56.467,44.496 78.288,54.449l0.001,-0c0.033,0.008 0.067,0.026 0.099,0.043c0.017,0.009 0.038,0.018 0.055,0.026c0.025,0.009 0.052,0.018 0.077,0.035c0.021,0.009 0.043,0.018 0.064,0.026c0.026,0.009 0.048,0.027 0.075,0.035c0.021,0.009 0.045,0.018 0.067,0.027c0.023,0.017 0.049,0.026 0.071,0.034c0.047,0.018 0.09,0.044 0.136,0.062c27.332,12.37 48.707,34.98 59.154,63.099l29.487,79.39Z" style="fill:#f5b992;fill-rule:nonzero;"/><path d="M1412.86,3.931c-81.724,128.947 -283.145,243.861 -283.145,243.861c-0,-0 160.116,-13.004 239.577,-116.482l-28.812,-23.862c-0,-0 22.899,2.215 42.084,4.43c17.669,-29.316 29.116,-64.864 30.296,-107.947Z" style="fill:#bb628b;fill-rule:nonzero;"/><path d="M1198.44,57.261c12.427,5.638 30.811,14.228 30.811,14.228l-17.713,-25.448c20.63,-16.053 43.332,-26.747 65.831,-33.751c9.12,13.278 19.839,28.121 19.839,28.121l2.126,-33.877c60.302,-12.988 113.534,-2.603 113.534,-2.603c-81.724,128.947 -283.145,243.861 -283.145,243.861c0.91,-94.743 29.759,-153.9 68.717,-190.531Z" style="fill:#f78fbf;fill-rule:nonzero;"/><path d="M1442.87,185.873c-24.036,-14.125 -48.427,-21.739 -72.127,-24.844c-7.141,8.151 -15.9,17.734 -15.9,17.734l-0.486,-19.19c-91.089,-4.365 -167.887,53.003 -167.887,53.003c52.125,31.711 96.982,40.603 133.941,37.97c2.332,-6.702 5.644,-16.701 5.644,-16.701l6.184,15.446c17.745,-2.527 33.466,-7.665 47.084,-13.974c-3.28,-8.013 -6.717,-17.17 -6.717,-17.17l19.422,10.644c33.341,-18.868 50.842,-42.918 50.842,-42.918Z" style="fill:#f78fbf;fill-rule:nonzero;"/><path d="M1320.41,250.546c2.332,-6.702 5.644,-16.701 5.644,-16.701l6.184,15.446c17.745,-2.527 33.466,-7.665 47.084,-13.974c-3.28,-8.013 -6.717,-17.17 -6.717,-17.17l19.422,10.644c33.341,-18.868 50.842,-42.918 50.842,-42.918c-105.978,-12.112 -256.4,26.703 -256.4,26.703c52.125,31.711 96.982,40.603 133.941,37.97Z" style="fill:#bb628b;fill-rule:nonzero;"/><path d="M545.933,172.625l7.691,57.911l-41.135,-30.04l-125.903,-64.319l97.383,8.916c-0,0 49.612,12.052 52.292,14.482c2.688,2.431 9.672,13.05 9.672,13.05Z" style="fill:#bb628b;fill-rule:nonzero;"/><path d="M589.059,137.655l-202.473,-1.478l159.347,36.448l43.126,-34.97Z" style="fill:#f78fbf;fill-rule:nonzero;"/><path d="M480.843,230.885l53.061,-42.614l-147.318,-52.094l94.257,94.708Z" style="fill:#f78fbf;fill-rule:nonzero;"/><path d="M566.807,202.794c-7.744,-2.915 -13.453,-3.543 -13.514,-3.549l0.384,-3.596c0.244,0.027 6.224,0.684 14.404,3.762l-1.274,3.383Z" style="fill:#bb628b;fill-rule:nonzero;"/><path d="M607.497,237.11c-3.641,-8.899 -8.914,-16.658 -15.688,-23.06l-2.488,2.627c6.399,6.047 11.393,13.382 14.832,21.801l3.344,-1.368Zm4.548,54.612c1.432,-9.741 1.894,-18.976 1.371,-27.446l-3.615,0.226c0.515,8.218 0.061,17.2 -1.335,26.683l-0.026,0.211l3.579,0.492l0.026,-0.166Zm-4.051,27.225l-3.579,-0.512c-1.51,10.581 -2.593,19.225 -3.396,27.205l3.597,0.363c0.803,-7.929 1.877,-16.526 3.378,-27.056Zm-5.142,54.196l-3.614,-0.082c-0.227,9.817 0.07,18.82 0.891,27.522l3.596,-0.34c-0.803,-8.56 -1.091,-17.425 -0.873,-27.1Zm14.605,79.072c-1.772,-3.721 -3.404,-7.599 -4.853,-11.526c-1.633,-4.447 -3.082,-9.096 -4.295,-13.817l-3.501,0.904c1.248,4.837 2.732,9.601 4.408,14.161c1.485,4.031 3.161,8.012 4.976,11.832l3.265,-1.554Zm32.17,42.906c-6.8,-6.213 -12.929,-12.906 -18.202,-19.893l-2.88,2.176c5.403,7.165 11.68,14.024 18.638,20.387l2.444,-2.67Zm44.776,30.203c-8.381,-4.24 -16.264,-8.815 -23.44,-13.603l-2.008,3.009c7.298,4.866 15.312,9.515 23.815,13.819l1.633,-3.225Z" style="fill:#bb628b;fill-rule:nonzero;"/><path d="M731.583,544.835c-4.653,-1.617 -9.244,-3.314 -13.636,-5.043l1.327,-3.364c4.348,1.712 8.887,3.391 13.497,4.992l-1.188,3.415Z" style="fill:#292929;fill-rule:nonzero;"/><path d="M750.327,160.517c-0,0 -75.287,-50.393 -92.485,-17.193c-17.189,33.201 97.827,150.682 97.827,150.682l-5.342,-133.489Z" style="fill:#e4b18e;fill-rule:nonzero;"/><path d="M750.327,380.086c-0,-0 -75.287,-50.393 -92.485,-17.194c-17.189,33.202 97.827,150.683 97.827,150.683l-5.342,-133.489Z" style="fill:#e4b18e;fill-rule:nonzero;"/><path d="M750.327,529.681c-0,0 -75.287,-50.393 -92.485,-17.192c-17.189,33.199 97.827,150.679 97.827,150.679l-5.342,-133.487Z" style="fill:#e4b18e;fill-rule:nonzero;"/><path d="M802.331,104.048l413.348,-0c30.779,-0 55.737,24.95 55.737,55.737l0,844.765c0,31.035 -25.221,55.741 -55.737,55.741l-413.348,-0c-30.773,-0 -55.732,-24.941 -55.732,-55.741l-0,-844.765c-0,-31.061 25.247,-55.737 55.732,-55.737Z" style="fill:#292929;fill-rule:nonzero;"/><path d="M949.08,1061.37l220.301,-1.074l-220.318,-0c0.009,0.707 0.017,1.074 0.017,1.074Z" style="fill:#9ce3ec;fill-rule:nonzero;"/><path d="M1179.16,1100.48c81.112,-0.009 115.842,-38.613 122.108,-68.513c3.546,-16.918 -12.513,-69.315 -29.854,-118.447l0,91.035c0,31.035 -25.221,55.741 -55.737,55.741l-46.298,-0l-220.301,1.074c0,-0 76.937,20.628 188.255,36.054c15.143,2.095 29.055,3.056 41.827,3.056Z" style="fill:#f5b992;fill-rule:nonzero;"/><path d="M949.063,1060.29l266.616,-0c30.516,-0 55.737,-24.706 55.737,-55.741l0,-91.035c-5.496,-15.583 -11.119,-30.817 -16.29,-44.505l-10.729,-0l0,115.313l-281.698,0c-0.218,0.463 -0.454,0.917 -0.716,1.362c-3.466,5.98 -8.162,14.073 -13.758,23.719c0.393,26.539 0.751,46.19 0.838,50.887Zm60.21,-60.341c12.772,-0 23.126,10.353 23.126,23.125c-0,12.772 -10.354,23.126 -23.126,23.126c-12.763,-0 -23.117,-10.354 -23.117,-23.126c0,-12.772 10.354,-23.125 23.117,-23.125Z" style="fill:#292726;fill-rule:nonzero;"/><rect x="773.618" y="180.014" width="470.779" height="804.31" style="fill:#fff;fill-rule:nonzero;"/><path d="M1271.42,746.154c2.817,-10.441 3.803,-21.371 2.853,-32.301l-2.853,-32.807l0,65.108Z" style="fill:#79cbf3;fill-rule:nonzero;"/><path d="M1271.42,869.01l25.484,-0c14.123,-0 25.571,-11.454 25.571,-25.57l0,-168.732c0,-14.125 -11.448,-25.569 -25.571,-25.569l-25.484,-0l0,31.907l2.853,32.807c0.95,10.93 -0.036,21.86 -2.853,32.301l0,122.856Z" style="fill:#bfa596;fill-rule:nonzero;"/><path d="M1255.13,869.01l16.29,-0l0,-219.871l-27.019,-0l0,191.953c3.145,8.049 6.807,17.538 10.729,27.918Z" style="fill:#202327;fill-rule:nonzero;"/><path d="M1244.4,869.01l10.729,-0c-3.922,-10.38 -7.584,-19.869 -10.729,-27.918l0,27.918Z" style="fill:#202124;fill-rule:nonzero;"/><path d="M936.274,919.739c2.086,0 25.7,-32.553 38.725,-50.729l269.398,-0l0,-219.871l-350.952,-0c-9.149,15.216 -19.538,31.445 -30.983,48.416l0,13.191c17.713,2.208 54.903,8.371 56.596,21.222c2.139,16.307 -2.339,44.618 -56.596,51.777l0,59.695c0,14.116 11.454,25.57 25.579,25.57l52.685,-0c-2.645,19.983 -6.408,50.729 -4.452,50.729Z" style="fill:#b1e3f6;fill-rule:nonzero;"/><path d="M741.684,499.352l0.55,-0c-7.089,-7.671 -16.325,-17.927 -26.12,-29.454l0,3.882c0,14.123 11.445,25.572 25.57,25.572Z" style="fill:#79cbf3;fill-rule:nonzero;"/><path d="M716.114,353.996c9.551,-7.009 19.686,-13.772 30.485,-20.204l-0,-49.315c-3.911,-4.179 -8.87,-9.553 -14.448,-15.778c-9.402,3.779 -16.037,12.982 -16.037,23.736l0,61.561Z" style="fill:#c5d9f3;fill-rule:nonzero;"/><path d="M746.599,377.693l-0,-43.901c-10.799,6.432 -20.934,13.195 -30.485,20.204l0,7.403c13.13,5.818 24.767,12.729 30.485,16.294Z" style="fill:#79cbf3;fill-rule:nonzero;"/><path d="M746.599,284.477l-0,-17.614l-4.915,0c-3.37,0 -6.591,0.651 -9.533,1.836c5.578,6.225 10.537,11.599 14.448,15.778Z" style="fill:#ba855c;fill-rule:nonzero;"/><path d="M742.234,499.352l4.365,-0l-0,-121.659c-5.718,-3.565 -17.355,-10.476 -30.485,-16.294l0,108.499c9.795,11.527 19.031,21.783 26.12,29.454Z" style="fill:#ba855c;fill-rule:nonzero;"/><path d="M746.599,499.352l27.019,-0l0,-232.489l-27.019,0l-0,232.489Z" style="fill:#202327;fill-rule:nonzero;"/><path d="M1135.92,547.952c1.884,-0 -1.551,-28.636 -4.174,-48.6l45.198,-0c14.124,-0 25.573,-11.449 25.573,-25.572l-0,-181.345c-0,-14.124 -11.449,-25.572 -25.573,-25.572l-403.325,0l0,232.489l325.098,-0c13.263,18.474 35.197,48.6 37.203,48.6Z" style="fill:#b1e3f6;fill-rule:nonzero;"/><path d="M911.943,154.737l193.359,-0c2.236,-0 4.047,-1.811 4.047,-4.047l0,-1.984c0,-2.234 -1.811,-4.048 -4.047,-4.048l-193.359,0c-2.234,0 -4.042,1.814 -4.042,4.048l0,1.984c0,2.236 1.808,4.047 4.042,4.047Z" style="fill:#fff;fill-rule:nonzero;"/><path d="M1280.79,666.52c0,-0 -2.841,10.563 -9.263,15.757l-7.634,-87.788c0,0 -54.734,-61.165 -41.509,-143.661c4.527,-28.242 18.572,-54.232 40.056,-73.115c12.263,-10.779 25.732,-17.983 33.669,-7.841c0,-0 62.007,147.658 104.85,255.512l-120.169,41.136Z" style="fill:#f7c29e;fill-rule:nonzero;"/><path d="M904.916,605.376l408.865,-0c14.122,-0 25.572,11.444 25.572,25.569l-0,168.723c-0,14.125 -11.45,25.57 -25.572,25.57l-321.898,0c-13.025,18.185 -36.648,50.738 -38.734,50.738c-1.947,0 1.807,-30.746 4.46,-50.738l-52.693,0c-14.117,0 -25.57,-11.445 -25.57,-25.57l-0,-168.723c-0,-14.125 11.453,-25.569 25.57,-25.569Z" style="fill:#52c1ea;fill-rule:nonzero;"/><path d="M1009.27,1046.2c12.772,-0 23.126,-10.354 23.126,-23.126c-0,-12.772 -10.354,-23.125 -23.126,-23.125c-12.763,-0 -23.117,10.353 -23.117,23.125c0,12.772 10.354,23.126 23.117,23.126Z" style="fill:#2f425b;fill-rule:nonzero;"/><path d="M1016.17,1014.19c1.1,0 1.999,0.891 1.999,1.991l-0,13.793c-0,1.1 -0.899,1.99 -1.999,1.99l-13.785,0c-1.1,0 -1.999,-0.89 -1.999,-1.99l0,-13.793c0,-1.1 0.899,-1.991 1.999,-1.991l13.785,0Zm-13.785,18.516l13.785,0c1.51,0 2.741,-1.222 2.741,-2.732l-0,-13.793c-0,-1.511 -1.231,-2.733 -2.741,-2.733l-13.785,0c-1.51,0 -2.741,1.222 -2.741,2.733l-0,13.793c-0,1.51 1.231,2.732 2.741,2.732Z" style="fill:#3e82d7;fill-rule:nonzero;"/><rect x="773.618" y="936.745" width="470.779" height="47.578" style="fill:#80c1d9;fill-rule:nonzero;"/><rect x="773.618" y="180.014" width="470.779" height="42.683" style="fill:#80c1d9;fill-rule:nonzero;"/><path d="M1284.96,456.598c-17.133,-7.882 -26.078,-52.461 -29.281,-72.499c13.75,-13.832 30.996,-26.281 40.43,-14.227c0,-0 13.654,32.515 32.574,78.171c-12.937,7.201 -30.913,14.448 -43.723,8.555Z" style="fill:#e4b18e;fill-rule:nonzero;"/><path d="M853.244,709.742c-0,-0 63.588,5.334 65.814,22.226c2.218,16.901 -2.671,46.687 -62.698,52.475l-62.174,0c-0,0 18.594,-51.585 17.713,-53.357c-0.891,-1.781 41.345,-21.344 41.345,-21.344Z" style="fill:#e4b18e;fill-rule:nonzero;"/><path d="M955.27,961.791c8.608,4.575 11.602,15.461 6.713,23.894c-29.254,50.459 -145.606,251.011 -156.091,267.327c-12.003,18.674 -41.353,62.698 -138.726,85.37c-97.383,22.68 -137.4,88.041 -137.4,88.041l-300.135,0c0,0 70.704,-112.048 129.395,-402.85c0,-0 45.352,-241.443 130.722,-233.438c-0,0 52.021,-54.693 102.716,-44.016c-0,0 96.037,-57.364 150.73,-57.364l131.368,-155.253c13.007,-15.364 35.923,-18.376 51.908,-6.145c5.142,3.936 9.062,9.136 10.144,16c4.007,25.344 -29.341,89.378 -82.698,166.743c-53.358,77.364 -185.423,322.814 -128.059,430.864c-0,-0 58.691,-44.025 109.385,-114.72c42.445,-59.206 92.38,-79.119 120.028,-64.453Z" style="fill:#f7c29e;fill-rule:nonzero;"/><path d="M742.705,688.816c-17.424,14.919 -33.767,31.105 -49.193,48.11c-20.838,22.681 -47.15,56.3 -62.602,82.262c-19.476,32.109 -32.335,60.263 -38.411,95.61l0.393,0.088c6.992,-33.218 25.281,-68.984 41.205,-93.698c11.916,-19.32 33.985,-50.014 61.79,-82.193c13.976,-16.106 31.689,-35.146 47.098,-49.891l-0.28,-0.288Z" style="fill:#e4b18e;fill-rule:nonzero;"/><path d="M593.319,745.7c-14.186,7.255 -26.827,17.381 -38.01,28.826c-11.305,11.393 -20.707,24.313 -28.8,38.421c-7.9,13.994 -13.959,29.009 -18.027,44.496c-3.448,14.509 -5.674,24.348 -6.041,47.307l0.402,0.035c1.318,-15.722 4.19,-31.323 8.651,-46.452c4.505,-14.64 10.834,-30.371 18.499,-43.422c7.673,-13.767 17.023,-26.6 27.638,-38.255c10.049,-10.991 23.187,-22.863 35.889,-30.607l-0.201,-0.349Z" style="fill:#e4b18e;fill-rule:nonzero;"/><path d="M490.856,789.018c-12.544,9.48 -25.246,26.277 -31.401,37.626c-7.752,13.322 -13.881,28.791 -17.931,45.727c-2.968,10.834 -3.719,21.353 -4.182,32.37l0.393,0.053c1.851,-10.677 3.012,-18.639 6.809,-31.559c5.832,-19.598 10.406,-29.681 18.22,-44.793c4.67,-9.315 16.787,-27.761 28.267,-39.136l-0.175,-0.288Z" style="fill:#e4b18e;fill-rule:nonzero;"/><path d="M894.684,1023.9c-2.662,-13.505 13.078,-34.92 27.36,-51.079c8.913,-10.091 22.986,-13.863 35.373,-9.646c6.915,5.124 9.027,14.832 4.566,22.514c-7.857,13.558 -22.017,37.958 -38.708,66.705c-12.501,-6.364 -26.129,-16.002 -28.591,-28.494Z" style="fill:#e4b18e;fill-rule:nonzero;"/><path d="M882.07,594.437c-7.587,-1.519 -42.017,-12.973 -39.905,-19.249l33.96,-40.129c6.739,-7.97 16.15,-12.606 25.884,-13.525l0.157,-0.017c0.279,-0.025 0.899,-0.07 1.772,-0.07c4.548,0.006 15.766,1.302 18.228,13.63c2.436,12.175 -17.722,41.769 -26.609,54.071c-3.073,4.26 -8.337,6.319 -13.487,5.289Z" style="fill:#e4b18e;fill-rule:nonzero;"/><path d="M529.766,1426.42c-0,0 40.017,-65.361 137.4,-88.041c0.087,-0.017 0.183,-0.044 0.279,-0.061c-0.096,0.017 -0.183,0.044 -0.279,0.061c-97.383,22.68 -137.4,88.041 -137.4,88.041Zm-300.135,0l0,-0.009l0,0.009Zm0.009,-0.009l0,-0.008l0,0.008Zm0,-0.008c0.009,-0.009 0.009,-0.018 0.018,-0.027c-0.009,0.009 -0.009,0.018 -0.018,0.027Zm0.026,-0.035c1.345,-2.157 47.046,-76.134 95.121,-255.752c-48.084,179.627 -93.776,253.604 -95.121,255.752Zm437.857,-88.076c0.07,-0.009 0.131,-0.026 0.193,-0.044c-0.062,0.018 -0.123,0.035 -0.193,0.044Zm0.315,-0.07c0.052,-0.009 0.105,-0.026 0.157,-0.035c-0.052,0.009 -0.105,0.026 -0.157,0.035Zm0.279,-0.07c0.053,-0.009 0.105,-0.017 0.157,-0.035c-0.043,0.018 -0.104,0.026 -0.157,0.035Zm0.288,-0.061c0.053,-0.018 0.096,-0.026 0.149,-0.035c-0.053,0.009 -0.105,0.017 -0.149,0.035Zm0.28,-0.07c0.043,-0.009 0.096,-0.017 0.139,-0.035c-0.052,0.018 -0.087,0.026 -0.139,0.035Zm0.279,-0.061c0.044,-0.017 0.096,-0.026 0.14,-0.035c-0.044,0.009 -0.096,0.018 -0.14,0.035Zm0.271,-0.07c0.052,-0.009 0.096,-0.017 0.139,-0.035c-0.043,0.018 -0.087,0.026 -0.139,0.035Zm0.296,-0.07c0.035,-0.008 0.079,-0.017 0.114,-0.026c-0.035,0.009 -0.079,0.018 -0.114,0.026Zm0.262,-0.061c0.044,-0.009 0.088,-0.026 0.14,-0.035c-0.044,0.009 -0.096,0.026 -0.14,0.035Zm0.28,-0.07c0.043,-0.008 0.087,-0.017 0.131,-0.026c-0.044,0.009 -0.088,0.018 -0.131,0.026Zm0.27,-0.061c0.044,-0.008 0.088,-0.026 0.131,-0.035c-0.035,0.009 -0.087,0.027 -0.131,0.035Zm0.28,-0.07c0.043,-0.008 0.087,-0.017 0.122,-0.026c-0.044,0.009 -0.079,0.018 -0.122,0.026Zm0.27,-0.069c0.044,-0.009 0.088,-0.018 0.131,-0.027c-0.043,0.009 -0.087,0.018 -0.131,0.027Zm0.28,-0.062c0.035,-0.008 0.078,-0.026 0.122,-0.034c-0.044,0.008 -0.087,0.026 -0.122,0.034Zm0.27,-0.069c0.035,-0.009 0.079,-0.018 0.114,-0.027c-0.035,0.009 -0.079,0.018 -0.114,0.027Zm0.28,-0.07c0.035,-0.009 0.069,-0.018 0.104,-0.018c-0.035,0 -0.069,0.009 -0.104,0.018Zm0.27,-0.061c0.035,-0.009 0.07,-0.018 0.105,-0.027c-0.035,0.009 -0.07,0.018 -0.105,0.027Zm0.271,-0.07c0.044,-0.009 0.087,-0.018 0.131,-0.035c-0.044,0.017 -0.087,0.026 -0.131,0.035Zm0.262,-0.061c0.052,-0.018 0.096,-0.026 0.148,-0.035c-0.043,0.009 -0.105,0.017 -0.148,0.035Zm0.279,-0.07c0.026,-0.009 0.07,-0.018 0.105,-0.026c-0.035,0.008 -0.07,0.017 -0.105,0.026Zm0.349,-0.087c0.061,-0.018 0.123,-0.035 0.184,-0.044c-0.061,0.009 -0.114,0.026 -0.184,0.044Zm0.288,-0.07c0.062,-0.018 0.114,-0.035 0.166,-0.044c-0.052,0.009 -0.113,0.026 -0.166,0.044Zm0.323,-0.088c0.044,-0.008 0.07,-0.017 0.105,-0.026c-0.026,0.009 -0.07,0.018 -0.105,0.026Zm0.271,-0.061c0.035,-0.008 0.079,-0.026 0.105,-0.035c-0.035,0.009 -0.07,0.027 -0.105,0.035Zm0.271,-0.07c0.035,-0.008 0.07,-0.017 0.096,-0.026c-0.026,0.009 -0.061,0.018 -0.096,0.026Zm0.27,-0.069c0.035,-0.009 0.07,-0.018 0.096,-0.027c-0.026,0.009 -0.07,0.018 -0.096,0.027Zm0.271,-0.07c0.035,-0.009 0.061,-0.018 0.096,-0.026c-0.035,0.008 -0.061,0.017 -0.096,0.026Zm0.262,-0.07c0.035,-0.009 0.07,-0.017 0.105,-0.026c-0.035,0.009 -0.07,0.026 -0.105,0.026Zm0.262,-0.061c0.035,-0.009 0.07,-0.018 0.113,-0.026c-0.035,0.008 -0.078,0.017 -0.113,0.026Zm0.262,-0.07c0.043,-0.009 0.078,-0.017 0.122,-0.026c-0.044,0.009 -0.087,0.017 -0.122,0.026Zm0.262,-0.07c0.034,-0.009 0.078,-0.017 0.122,-0.026c-0.044,0.009 -0.088,0.017 -0.122,0.026Zm0.279,-0.07c0.035,-0.008 0.07,-0.017 0.105,-0.026c-0.035,0.009 -0.07,0.018 -0.105,0.026Zm0.253,-0.061c0.044,-0.008 0.079,-0.026 0.122,-0.035c-0.043,0.009 -0.078,0.018 -0.122,0.035Zm0.271,-0.07c0.035,-0.008 0.069,-0.017 0.113,-0.035c-0.035,0.009 -0.078,0.027 -0.113,0.035Zm0.27,-0.069c0.035,-0.009 0.053,-0.018 0.088,-0.027c-0.035,0.009 -0.053,0.018 -0.088,0.027Zm0.271,-0.07c0.026,-0.009 0.052,-0.018 0.07,-0.026c-0.026,0.008 -0.044,0.017 -0.07,0.026Zm0.262,-0.07c0.026,-0.009 0.061,-0.018 0.087,-0.026c-0.026,0.008 -0.061,0.017 -0.087,0.026Zm0.253,-0.07c0.035,-0.009 0.07,-0.017 0.105,-0.026c-0.035,0.009 -0.07,0.017 -0.105,0.026Zm0.271,-0.07c0.017,-0.009 0.043,-0.009 0.061,-0.017c-0.018,0.008 -0.044,0.008 -0.061,0.017Zm1.51,-0.401c0.017,-0 0.026,-0.009 0.043,-0.009c-0.017,-0 -0.026,0.009 -0.043,0.009Zm0.218,-0.061c0.035,-0 0.061,-0.009 0.096,-0.018c-0.035,0.009 -0.07,0.018 -0.096,0.018Zm0.262,-0.07c0.026,-0 0.061,-0.009 0.087,-0.018c-0.035,0.009 -0.052,0.009 -0.087,0.018Zm0.262,-0.07c0.026,-0 0.061,-0.009 0.087,-0.018c-0.026,0.009 -0.061,0.018 -0.087,0.018Zm0.262,-0.07c0.026,-0 0.061,-0.017 0.078,-0.017c-0.026,0.008 -0.052,0.008 -0.078,0.017Zm0.244,-0.061c0.035,-0.009 0.07,-0.018 0.105,-0.035c-0.035,0.017 -0.07,0.026 -0.105,0.035Zm0.253,-0.07c0.044,-0.009 0.079,-0.017 0.114,-0.035c-0.044,0.018 -0.07,0.026 -0.114,0.035Zm0.254,-0.07c0.034,-0.009 0.087,-0.026 0.122,-0.035c-0.044,0.009 -0.088,0.026 -0.122,0.035Zm0.261,-0.07c0.044,-0.017 0.079,-0.026 0.123,-0.035c-0.044,0.009 -0.079,0.027 -0.123,0.035Zm0.254,-0.069c0.043,-0.018 0.087,-0.027 0.131,-0.035c-0.044,0.008 -0.088,0.026 -0.131,0.035Zm0.253,-0.07c0.052,-0.018 0.087,-0.026 0.139,-0.035c-0.043,0.009 -0.087,0.017 -0.139,0.035Zm0.27,-0.07c0.035,-0.018 0.07,-0.026 0.114,-0.035c-0.035,0.009 -0.079,0.017 -0.114,0.035Zm0.262,-0.079c0.035,-0.008 0.079,-0.017 0.114,-0.026c-0.035,0.009 -0.079,0.018 -0.114,0.026Zm0.245,-0.07c0.043,-0.008 0.087,-0.017 0.139,-0.034c-0.052,0.017 -0.087,0.026 -0.139,0.034Zm0.262,-0.069c0.043,-0.009 0.078,-0.018 0.122,-0.035c-0.035,0.008 -0.079,0.026 -0.122,0.035Zm0.253,-0.07c0.043,-0.009 0.087,-0.026 0.131,-0.035c-0.035,0.009 -0.088,0.026 -0.131,0.035Zm0.262,-0.07c0.043,-0.018 0.087,-0.026 0.131,-0.035c-0.053,0.009 -0.088,0.017 -0.131,0.035Zm0.253,-0.07c0.035,-0.017 0.07,-0.026 0.105,-0.035c-0.035,0.009 -0.07,0.018 -0.105,0.035Zm0.934,-0.271c0.026,0 0.061,-0.008 0.087,-0.017c-0.026,0.009 -0.061,0.017 -0.087,0.017Zm0.218,-0.061c0.044,-0.008 0.079,-0.017 0.122,-0.035c-0.043,0.018 -0.078,0.027 -0.122,0.035Zm0.236,-0.061c0.052,-0.017 0.096,-0.026 0.148,-0.043c-0.052,0.017 -0.096,0.026 -0.148,0.043Zm0.244,-0.07c0.053,-0.017 0.105,-0.035 0.157,-0.043c-0.052,0.008 -0.113,0.026 -0.157,0.043Zm0.253,-0.078c0.053,-0.009 0.105,-0.026 0.158,-0.044c-0.044,0.018 -0.114,0.035 -0.158,0.044Zm0.254,-0.07c0.052,-0.017 0.104,-0.026 0.157,-0.044c-0.053,0.018 -0.096,0.027 -0.157,0.044Zm0.262,-0.07c0.043,-0.017 0.104,-0.035 0.148,-0.043c-0.052,0.008 -0.096,0.026 -0.148,0.043Zm0.253,-0.078c0.052,-0.009 0.096,-0.027 0.139,-0.044c-0.043,0.017 -0.087,0.026 -0.139,0.044Zm0.262,-0.07c0.043,-0.018 0.087,-0.035 0.139,-0.044c-0.052,0.018 -0.096,0.026 -0.139,0.044Zm0.253,-0.079c0.043,-0.009 0.087,-0.026 0.131,-0.035c-0.044,0.009 -0.088,0.026 -0.131,0.035Zm0.244,-0.07c0.053,-0.017 0.096,-0.026 0.149,-0.043c-0.053,0.017 -0.096,0.026 -0.149,0.043Zm0.253,-0.078c0.053,-0.009 0.088,-0.026 0.14,-0.035c-0.052,0.017 -0.087,0.026 -0.14,0.035Zm0.254,-0.07c0.052,-0.018 0.096,-0.026 0.148,-0.044c-0.044,0.018 -0.105,0.035 -0.148,0.044Zm0.244,-0.07c0.052,-0.017 0.105,-0.035 0.157,-0.044c-0.052,0.009 -0.105,0.027 -0.157,0.044Zm0.253,-0.078c0.053,-0.009 0.105,-0.027 0.157,-0.044c-0.052,0.017 -0.104,0.035 -0.157,0.044Zm0.253,-0.07c0.044,-0.018 0.096,-0.027 0.14,-0.044c-0.044,0.017 -0.096,0.026 -0.14,0.044Zm0.254,-0.079c0.043,-0.009 0.087,-0.026 0.139,-0.035c-0.043,0.009 -0.096,0.026 -0.139,0.035Zm0.244,-0.07c0.052,-0.017 0.113,-0.035 0.166,-0.052c-0.053,0.017 -0.114,0.035 -0.166,0.052Zm0.253,-0.078c0.332,-0.096 0.664,-0.192 0.995,-0.297c-0.331,0.105 -0.663,0.201 -0.995,0.297Zm1.039,-0.306c0.061,-0.017 0.14,-0.043 0.201,-0.061c-0.07,0.018 -0.131,0.035 -0.201,0.061Zm0.279,-0.087c0.061,-0.018 0.114,-0.035 0.175,-0.053c-0.061,0.018 -0.114,0.035 -0.175,0.053Zm0.254,-0.079c0.052,-0.008 0.113,-0.035 0.165,-0.043c-0.052,0.017 -0.113,0.026 -0.165,0.043Zm0.244,-0.07c0.061,-0.017 0.105,-0.034 0.166,-0.052c-0.053,0.018 -0.114,0.035 -0.166,0.052Zm0.262,-0.078c0.044,-0.018 0.105,-0.035 0.157,-0.052c-0.052,0.017 -0.105,0.034 -0.157,0.052Zm0.236,-0.07c0.061,-0.017 0.113,-0.035 0.165,-0.052c-0.052,0.017 -0.113,0.035 -0.165,0.052Zm0.244,-0.079c0.052,-0.017 0.122,-0.034 0.175,-0.052c-0.061,0.018 -0.114,0.035 -0.175,0.052Zm0.244,-0.078c0.062,-0.018 0.114,-0.035 0.175,-0.052c-0.061,0.017 -0.113,0.034 -0.175,0.052Zm0.254,-0.079c0.061,-0.008 0.104,-0.026 0.157,-0.043c-0.053,0.017 -0.105,0.035 -0.157,0.043Zm0.253,-0.07c0.052,-0.017 0.096,-0.034 0.148,-0.052c-0.052,0.018 -0.105,0.035 -0.148,0.052Zm0.244,-0.078c0.053,-0.018 0.096,-0.026 0.149,-0.044c-0.044,0.009 -0.096,0.026 -0.149,0.044Zm0.245,-0.079c0.052,-0.017 0.096,-0.026 0.148,-0.043c-0.052,0.017 -0.096,0.035 -0.148,0.043Zm0.244,-0.069c0.052,-0.018 0.114,-0.035 0.157,-0.053c-0.052,0.018 -0.105,0.035 -0.157,0.053Zm0.236,-0.079c0.052,-0.018 0.113,-0.035 0.174,-0.052c-0.061,0.017 -0.113,0.034 -0.174,0.052Zm0.253,-0.079c0.052,-0.017 0.113,-0.035 0.175,-0.052c-0.062,0.017 -0.114,0.035 -0.175,0.052Zm0.236,-0.069c0.061,-0.018 0.113,-0.035 0.174,-0.062c-0.052,0.018 -0.122,0.044 -0.174,0.062Zm0.244,-0.079c0.07,-0.026 0.14,-0.044 0.21,-0.061c-0.07,0.017 -0.14,0.044 -0.21,0.061Zm0.236,-0.079c0.07,-0.017 0.14,-0.043 0.209,-0.061c-0.069,0.026 -0.131,0.044 -0.209,0.061Zm0.253,-0.078c0.489,-0.149 0.969,-0.306 1.449,-0.463c-0.48,0.157 -0.96,0.314 -1.449,0.463Zm1.502,-0.472c0.069,-0.026 0.131,-0.043 0.2,-0.069c-0.069,0.026 -0.131,0.043 -0.2,0.069Zm0.235,-0.078c0.061,-0.018 0.131,-0.044 0.192,-0.061c-0.061,0.017 -0.131,0.043 -0.192,0.061Zm0.262,-0.087c0.061,-0.018 0.114,-0.035 0.175,-0.053c-0.061,0.018 -0.122,0.035 -0.175,0.053Zm0.236,-0.07c0.061,-0.026 0.113,-0.044 0.183,-0.061c-0.061,0.017 -0.122,0.035 -0.183,0.061Zm0.236,-0.079c0.061,-0.017 0.122,-0.044 0.183,-0.061c-0.061,0.017 -0.122,0.044 -0.183,0.061Zm0.244,-0.078c0.061,-0.018 0.122,-0.044 0.175,-0.062c-0.061,0.018 -0.114,0.044 -0.175,0.062Zm0.236,-0.079c0.061,-0.017 0.122,-0.044 0.183,-0.061c-0.061,0.017 -0.122,0.044 -0.183,0.061Zm0.244,-0.079c0.061,-0.017 0.122,-0.043 0.183,-0.061c-0.061,0.018 -0.122,0.044 -0.183,0.061Zm0.227,-0.078c0.07,-0.018 0.14,-0.044 0.21,-0.061c-0.07,0.017 -0.14,0.043 -0.21,0.061Zm0.236,-0.079c0.07,-0.017 0.14,-0.043 0.209,-0.061c-0.069,0.018 -0.139,0.044 -0.209,0.061Zm0.244,-0.078c0.07,-0.018 0.149,-0.044 0.227,-0.07c-0.078,0.026 -0.157,0.052 -0.227,0.07Zm0.227,-0.07c0.803,-0.271 1.598,-0.533 2.384,-0.803c-0.786,0.27 -1.581,0.532 -2.384,0.803Zm2.384,-0.803c0.078,-0.026 0.157,-0.053 0.235,-0.079c-0.078,0.026 -0.157,0.053 -0.235,0.079Zm0.244,-0.079c0.157,-0.052 0.305,-0.105 0.463,-0.157c-0.158,0.052 -0.306,0.105 -0.463,0.157Zm0.471,-0.157c0.07,-0.026 0.149,-0.052 0.219,-0.079c-0.07,0.027 -0.149,0.053 -0.219,0.079Zm0.245,-0.087c0.07,-0.026 0.139,-0.053 0.209,-0.07c-0.07,0.017 -0.139,0.044 -0.209,0.07Zm0.235,-0.079c0.07,-0.026 0.14,-0.052 0.21,-0.078c-0.07,0.026 -0.14,0.052 -0.21,0.078Zm0.227,-0.078c0.079,-0.027 0.14,-0.053 0.219,-0.079c-0.07,0.026 -0.149,0.052 -0.219,0.079Zm0.236,-0.079c0.07,-0.026 0.149,-0.052 0.218,-0.079c-0.069,0.027 -0.148,0.053 -0.218,0.079Zm0.227,-0.087c0.079,-0.026 0.157,-0.053 0.227,-0.079c-0.078,0.035 -0.148,0.053 -0.227,0.079Zm0.236,-0.079c65.221,-22.61 89.543,-55.225 100.725,-72.301c-11.182,17.076 -35.513,49.691 -100.725,72.301Z" style="fill:#9ce3ec;fill-rule:nonzero;"/><path d="M229.631,1426.42l300.135,0c-0,0 40.017,-65.361 137.4,-88.041c0.096,-0.017 0.183,-0.044 0.279,-0.061c0.026,-0.009 0.052,-0.018 0.078,-0.026c0.07,-0.009 0.131,-0.026 0.193,-0.044c0.034,-0.009 0.087,-0.017 0.122,-0.026c0.052,-0.009 0.105,-0.026 0.157,-0.035c0.044,-0.009 0.087,-0.018 0.122,-0.035c0.053,-0.009 0.114,-0.017 0.157,-0.035c0.044,-0.009 0.088,-0.017 0.131,-0.026c0.044,-0.018 0.096,-0.026 0.149,-0.035c0.043,-0.009 0.078,-0.017 0.131,-0.035c0.052,-0.009 0.087,-0.017 0.139,-0.035c0.053,-0.009 0.096,-0.017 0.14,-0.026c0.044,-0.017 0.096,-0.026 0.14,-0.035c0.052,-0.017 0.087,-0.026 0.131,-0.035c0.052,-0.009 0.096,-0.017 0.139,-0.035c0.053,-0.009 0.105,-0.017 0.157,-0.035c0.035,-0.008 0.079,-0.017 0.114,-0.026c0.052,-0.009 0.105,-0.026 0.148,-0.035c0.044,-0.009 0.096,-0.026 0.14,-0.035c0.044,-0.008 0.096,-0.017 0.14,-0.035c0.043,-0.008 0.087,-0.017 0.131,-0.026c0.043,-0.017 0.096,-0.026 0.139,-0.035c0.044,-0.008 0.096,-0.026 0.131,-0.035c0.053,-0.008 0.096,-0.026 0.149,-0.035c0.043,-0.008 0.078,-0.017 0.122,-0.026c0.052,-0.017 0.105,-0.026 0.148,-0.043c0.044,-0.009 0.088,-0.018 0.131,-0.027c0.044,-0.008 0.096,-0.026 0.149,-0.035c0.035,-0.008 0.078,-0.026 0.122,-0.034c0.052,-0.009 0.096,-0.018 0.148,-0.035c0.035,-0.009 0.079,-0.018 0.114,-0.027c0.061,-0.017 0.105,-0.026 0.166,-0.043c0.035,-0.009 0.069,-0.018 0.104,-0.018c0.053,-0.017 0.105,-0.035 0.166,-0.043c0.035,-0.009 0.07,-0.018 0.105,-0.027c0.052,-0.017 0.113,-0.026 0.166,-0.043c0.044,-0.009 0.087,-0.018 0.131,-0.035c0.043,-0.009 0.087,-0.018 0.131,-0.026c0.043,-0.018 0.105,-0.026 0.148,-0.035c0.044,-0.018 0.087,-0.026 0.131,-0.035c0.035,-0.009 0.07,-0.018 0.105,-0.026c0.078,-0.027 0.166,-0.044 0.244,-0.061c0.07,-0.018 0.123,-0.035 0.184,-0.044c0.043,-0.018 0.07,-0.018 0.104,-0.026c0.053,-0.018 0.114,-0.035 0.166,-0.044c0.053,-0.017 0.114,-0.026 0.157,-0.044c0.035,-0.008 0.079,-0.017 0.105,-0.026c0.053,-0.008 0.114,-0.026 0.166,-0.035c0.035,-0.008 0.07,-0.026 0.105,-0.035c0.061,-0.008 0.113,-0.026 0.166,-0.035c0.035,-0.008 0.07,-0.017 0.096,-0.026c0.061,-0.017 0.113,-0.026 0.174,-0.043c0.026,-0.009 0.07,-0.018 0.096,-0.027c0.061,-0.017 0.123,-0.026 0.175,-0.043c0.035,-0.009 0.061,-0.018 0.096,-0.026c0.052,-0.009 0.113,-0.027 0.166,-0.044c0.035,-0 0.07,-0.017 0.105,-0.026c0.052,-0.009 0.096,-0.026 0.157,-0.035c0.035,-0.009 0.078,-0.018 0.113,-0.026c0.044,-0.018 0.096,-0.027 0.149,-0.044c0.035,-0.009 0.078,-0.017 0.122,-0.026c0.043,-0.018 0.096,-0.026 0.14,-0.044c0.034,-0.009 0.078,-0.017 0.122,-0.026c0.052,-0.017 0.104,-0.026 0.157,-0.044c0.035,-0.008 0.07,-0.017 0.105,-0.026c0.052,-0.009 0.104,-0.026 0.148,-0.035c0.044,-0.017 0.079,-0.026 0.122,-0.035c0.044,-0.008 0.096,-0.026 0.149,-0.035c0.035,-0.008 0.078,-0.026 0.113,-0.035c0.053,-0.008 0.105,-0.026 0.157,-0.034c0.035,-0.009 0.053,-0.018 0.088,-0.027c0.061,-0.017 0.122,-0.035 0.183,-0.043c0.026,-0.009 0.044,-0.018 0.07,-0.026c0.07,-0.018 0.122,-0.027 0.192,-0.044c0.026,-0.009 0.061,-0.018 0.087,-0.026c0.052,-0.009 0.114,-0.027 0.166,-0.044c0.035,-0.009 0.07,-0.017 0.105,-0.026c0.052,-0.018 0.113,-0.026 0.166,-0.044c0.017,-0.009 0.043,-0.009 0.061,-0.017c0.489,-0.122 0.969,-0.253 1.449,-0.384c0.017,-0 0.026,-0.009 0.043,-0.009c0.062,-0.018 0.123,-0.035 0.175,-0.052c0.026,-0 0.061,-0.009 0.096,-0.018c0.052,-0.017 0.114,-0.035 0.166,-0.052c0.035,-0.009 0.052,-0.009 0.087,-0.018c0.061,-0.017 0.123,-0.035 0.175,-0.052c0.026,-0 0.061,-0.009 0.087,-0.018c0.061,-0.017 0.114,-0.035 0.175,-0.052c0.026,-0.009 0.052,-0.009 0.078,-0.017c0.061,-0.018 0.105,-0.027 0.166,-0.044c0.035,-0.009 0.07,-0.018 0.105,-0.035c0.044,-0.009 0.105,-0.026 0.148,-0.035c0.044,-0.009 0.07,-0.017 0.114,-0.035c0.052,-0.009 0.096,-0.017 0.14,-0.035c0.034,-0.009 0.078,-0.026 0.122,-0.035c0.043,-0.008 0.096,-0.026 0.139,-0.035c0.044,-0.008 0.079,-0.026 0.123,-0.035c0.035,-0.008 0.087,-0.026 0.131,-0.034c0.043,-0.009 0.087,-0.027 0.131,-0.035c0.043,-0.009 0.087,-0.027 0.122,-0.035c0.052,-0.018 0.096,-0.026 0.139,-0.035c0.035,-0.018 0.088,-0.026 0.131,-0.035c0.035,-0.018 0.079,-0.026 0.114,-0.035c0.052,-0.018 0.096,-0.026 0.148,-0.044c0.035,-0.008 0.079,-0.017 0.114,-0.026c0.043,-0.017 0.087,-0.026 0.131,-0.044c0.052,-0.008 0.087,-0.017 0.139,-0.034c0.044,-0.009 0.079,-0.027 0.123,-0.035c0.043,-0.009 0.087,-0.027 0.122,-0.035c0.043,-0.009 0.087,-0.027 0.131,-0.035c0.043,-0.009 0.096,-0.026 0.131,-0.035c0.043,-0.009 0.087,-0.026 0.131,-0.035c0.043,-0.018 0.078,-0.026 0.131,-0.035c0.035,-0.017 0.078,-0.026 0.122,-0.035c0.035,-0.017 0.07,-0.026 0.105,-0.035c0.279,-0.078 0.55,-0.157 0.829,-0.236c0.026,0 0.061,-0.008 0.087,-0.017c0.044,-0.017 0.088,-0.026 0.131,-0.044c0.044,-0.008 0.079,-0.017 0.122,-0.035c0.035,-0.008 0.079,-0.017 0.114,-0.026c0.052,-0.017 0.096,-0.026 0.148,-0.043c0.026,-0.009 0.061,-0.018 0.096,-0.027c0.044,-0.017 0.105,-0.035 0.157,-0.043c0.027,-0.009 0.062,-0.026 0.096,-0.035c0.044,-0.009 0.114,-0.026 0.158,-0.044c0.035,-0.009 0.069,-0.017 0.096,-0.026c0.061,-0.017 0.104,-0.026 0.157,-0.044c0.035,-0.008 0.07,-0.017 0.105,-0.026c0.052,-0.017 0.096,-0.035 0.148,-0.043c0.035,-0.018 0.07,-0.027 0.105,-0.035c0.052,-0.018 0.096,-0.027 0.139,-0.044c0.044,-0.009 0.079,-0.018 0.123,-0.026c0.043,-0.018 0.087,-0.026 0.139,-0.044c0.035,-0.009 0.079,-0.026 0.114,-0.035c0.043,-0.009 0.087,-0.026 0.131,-0.035c0.043,-0.017 0.078,-0.026 0.113,-0.035c0.053,-0.017 0.096,-0.026 0.149,-0.043c0.035,-0.009 0.069,-0.018 0.104,-0.035c0.053,-0.009 0.088,-0.018 0.14,-0.035c0.035,-0.009 0.079,-0.026 0.114,-0.035c0.043,-0.009 0.104,-0.026 0.148,-0.044c0.035,-0.008 0.061,-0.017 0.096,-0.026c0.052,-0.017 0.105,-0.035 0.157,-0.044c0.026,-0.008 0.061,-0.026 0.096,-0.034c0.053,-0.009 0.105,-0.027 0.157,-0.044c0.035,-0.009 0.061,-0.018 0.096,-0.026c0.044,-0.018 0.096,-0.027 0.14,-0.044c0.035,-0.009 0.079,-0.026 0.114,-0.035c0.043,-0.009 0.096,-0.026 0.139,-0.035c0.035,-0.017 0.07,-0.026 0.105,-0.035c0.052,-0.017 0.113,-0.035 0.166,-0.052c0.026,-0.009 0.052,-0.018 0.087,-0.026c0.332,-0.096 0.664,-0.192 0.995,-0.297c0.018,-0 0.027,-0.009 0.044,-0.009c0.07,-0.026 0.131,-0.043 0.201,-0.061c0.026,-0.009 0.052,-0.017 0.078,-0.026c0.061,-0.018 0.114,-0.035 0.175,-0.053c0.026,-0.008 0.052,-0.017 0.079,-0.026c0.052,-0.017 0.113,-0.026 0.165,-0.043c0.027,-0.009 0.053,-0.018 0.079,-0.027c0.052,-0.017 0.113,-0.034 0.166,-0.052c0.035,-0.009 0.061,-0.017 0.096,-0.026c0.052,-0.018 0.105,-0.035 0.157,-0.052c0.026,-0 0.052,-0.018 0.079,-0.018c0.052,-0.017 0.113,-0.035 0.165,-0.052c0.027,-0.009 0.053,-0.018 0.079,-0.027c0.061,-0.017 0.114,-0.034 0.175,-0.052c0.026,-0.009 0.043,-0.017 0.069,-0.026c0.062,-0.018 0.114,-0.035 0.175,-0.052c0.018,-0 0.061,-0.018 0.079,-0.027c0.052,-0.008 0.104,-0.026 0.157,-0.043c0.035,-0.009 0.07,-0.018 0.096,-0.027c0.043,-0.017 0.096,-0.034 0.148,-0.052c0.035,-0.009 0.061,-0.017 0.096,-0.026c0.053,-0.018 0.105,-0.035 0.149,-0.044c0.026,-0.008 0.069,-0.026 0.096,-0.035c0.052,-0.008 0.096,-0.026 0.148,-0.043c0.026,-0.009 0.061,-0.018 0.096,-0.026c0.052,-0.018 0.105,-0.035 0.157,-0.053c0.035,-0.009 0.053,-0.017 0.079,-0.026c0.061,-0.018 0.113,-0.035 0.174,-0.052c0.027,-0.009 0.053,-0.018 0.079,-0.027c0.061,-0.017 0.113,-0.035 0.175,-0.052c0.026,-0.009 0.035,-0.009 0.061,-0.017c0.052,-0.018 0.122,-0.044 0.174,-0.062c0.018,0 0.053,-0.008 0.07,-0.017c0.07,-0.017 0.14,-0.044 0.21,-0.061c0.008,-0.009 0.017,-0.009 0.026,-0.018c0.078,-0.017 0.14,-0.035 0.209,-0.061c0.018,-0.008 0.027,-0.008 0.044,-0.017c0.489,-0.149 0.969,-0.306 1.449,-0.463c0.018,0 0.035,-0.009 0.053,-0.009c0.069,-0.026 0.131,-0.043 0.2,-0.069c0.009,-0 0.027,-0.009 0.035,-0.009c0.061,-0.018 0.131,-0.044 0.192,-0.061c0.027,-0.009 0.044,-0.018 0.07,-0.026c0.053,-0.018 0.114,-0.035 0.175,-0.053c0.017,-0.009 0.043,-0.017 0.061,-0.017c0.061,-0.026 0.122,-0.044 0.183,-0.061c0.018,-0.009 0.035,-0.009 0.053,-0.018c0.061,-0.017 0.122,-0.044 0.183,-0.061c0.026,-0.009 0.035,-0.009 0.061,-0.017c0.061,-0.018 0.114,-0.044 0.175,-0.062c0.026,-0.008 0.043,-0.008 0.061,-0.017c0.061,-0.017 0.122,-0.044 0.183,-0.061c0.018,-0.009 0.035,-0.009 0.061,-0.018c0.061,-0.017 0.122,-0.043 0.183,-0.061c0.018,-0.008 0.035,-0.008 0.044,-0.017c0.07,-0.018 0.14,-0.044 0.21,-0.061c0.008,-0.009 0.017,-0.009 0.026,-0.018c0.07,-0.017 0.14,-0.043 0.209,-0.061c0.018,-0.009 0.018,-0.009 0.035,-0.017c0.07,-0.018 0.149,-0.044 0.227,-0.07c0.803,-0.271 1.598,-0.533 2.384,-0.803c0.078,-0.026 0.157,-0.053 0.235,-0.079l0.009,0c0.157,-0.052 0.305,-0.105 0.463,-0.157l0.008,0c0.07,-0.026 0.149,-0.052 0.219,-0.079c0.008,0 0.017,-0.008 0.026,-0.008c0.07,-0.026 0.139,-0.053 0.209,-0.07c0.009,-0.009 0.018,-0.009 0.026,-0.009c0.07,-0.026 0.14,-0.052 0.21,-0.078l0.017,-0c0.07,-0.027 0.149,-0.053 0.219,-0.079l0.017,0c0.07,-0.026 0.149,-0.052 0.218,-0.079c0.009,0 0.009,0 0.009,-0.008c0.079,-0.026 0.149,-0.044 0.227,-0.079l0.009,0c65.212,-22.61 89.543,-55.225 100.725,-72.301c-26.774,12.554 -203.38,49.988 -275.236,49.988c-6.949,-0 -12.92,-0.35 -17.678,-1.109c-46.888,-7.447 -165.03,0.297 -186.445,-133.961c-48.075,179.618 -93.776,253.595 -95.121,255.752l-0.008,0.008c-0.009,0.009 -0.009,0.018 -0.018,0.027l0,0.008l-0.009,0l0,0.009Z" style="fill:#f5b992;fill-rule:nonzero;"/><path d="M711.924,1084.09c-1.86,-47.639 13.138,-106.392 34.675,-163.869l-0,-1.554c-21.816,57.713 -36.91,116.893 -34.675,165.423Z" style="fill:#9ce3ec;fill-rule:nonzero;"/><path d="M746.599,920.22c8.232,-21.991 17.434,-43.807 27.019,-64.741l0,-0.935c-9.585,20.725 -18.787,42.332 -27.019,64.122l-0,1.554Z" style="fill:#292726;fill-rule:nonzero;"/><path d="M773.618,855.479c11.611,-25.378 23.78,-49.473 35.487,-71.036l-0.148,0c-11.672,21.362 -23.781,45.09 -35.339,70.101l0,0.935Z" style="fill:#fdf3ec;fill-rule:nonzero;"/><path d="M808.957,784.443l0.148,0c10.24,-18.882 20.114,-35.818 28.94,-50.005c-8.896,14.3 -18.822,31.227 -29.088,50.005Z" style="fill:#f1a26f;fill-rule:nonzero;"/><path d="M691.182,1175.18l34.675,-34.221c-8.765,-15.906 -13.086,-35.243 -13.933,-56.875c-2.235,-48.53 12.859,-107.71 34.675,-165.423c8.232,-21.79 17.434,-43.397 27.019,-64.122c11.558,-25.011 23.667,-48.739 35.339,-70.101c10.266,-18.778 20.192,-35.705 29.088,-50.005c-30.38,36.806 -62.62,79.888 -95.06,129.692c-139.399,214.005 -51.803,311.055 -51.803,311.055Z" style="fill:#f5b992;fill-rule:nonzero;"/><path d="M1187.49,715.311c0,35.4 28.701,64.104 64.106,64.104c35.405,-0 64.107,-28.704 64.107,-64.104c-0,-35.408 -28.702,-64.112 -64.107,-64.112c-35.405,-0 -64.106,28.704 -64.106,64.112Z" style="fill:#fff;fill-rule:nonzero;"/><path d="M1284.97,716.987c-0,0 6.357,-26.085 -8.787,-35.853c-15.144,-9.769 -31.312,-12.004 -42.364,-6.373c-15.316,7.804 -21.61,28.887 -16.709,40.55l40.657,-10.214l27.203,11.89Z" style="fill-rule:nonzero;"/><rect x="1241.46" y="747.612" width="18.823" height="18.787" style="fill:#f7c29e;fill-rule:nonzero;"/><path d="M1241.46,758.873l0,-11.261l18.824,-0l-0,9.585c-4.053,2.174 -10.053,3.422 -18.824,1.676Z" style="fill:#f19a5e;fill-rule:nonzero;"/><path d="M1211.78,713.967c1.965,-0.96 4.245,-0.795 6.308,0.253c-0.709,-18.542 14.439,-34.143 33.516,-33.479c19.079,-0.664 34.226,14.937 33.517,33.479c2.064,-1.048 4.343,-1.213 6.307,-0.253c3.768,1.859 4.94,7.176 2.616,11.881c-2.323,4.697 -7.262,7.01 -11.029,5.151c-0.524,-0.253 -0.991,-0.585 -1.412,-0.969c-2.159,15.33 -14.969,26.827 -29.999,26.609c-15.029,0.218 -27.838,-11.279 -29.998,-26.609c-0.42,0.384 -0.888,0.716 -1.411,0.969c-3.769,1.859 -8.707,-0.454 -11.03,-5.151c-2.323,-4.705 -1.152,-10.022 2.615,-11.881Z" style="fill:#f7c29e;fill-rule:nonzero;"/><path d="M1239.28,735.879c0.827,3.71 5.083,6.635 10.299,6.792c5.217,0.166 9.643,-2.497 10.697,-6.155l-20.996,-0.637Z" style="fill:#fff;fill-rule:nonzero;"/><path d="M1285.12,714.22c0,0 -24.635,-7.464 -35.417,-19.922c-0,0 3.052,15.007 5.329,17.408c-0.719,0.48 -24.606,-11.14 -27.851,-21.851c-3.244,-10.72 24.422,-14.57 24.422,-14.57c0,-0 9.481,4.033 9.961,4.277c0.479,0.236 9.372,1.275 10.391,3.545c1.327,2.95 7.605,3.212 7.605,3.212l3.963,8.25l2.774,8.669l-1.177,10.982Z" style="fill-rule:nonzero;"/><path d="M1305.3,680.287c-5.442,2.191 -11.727,3.204 -18.242,1.196c-14.375,-4.417 -20.07,-2.698 -21.982,-1.615c-1.15,0.655 -2.518,0.908 -3.772,0.489c-1.418,-0.472 -2.734,-1.755 -2.325,-4.994c0,0 -0.569,-13.662 11.14,-21.44c14.606,4.399 27.014,13.871 35.181,26.364Z" style="fill-rule:nonzero;"/><path d="M1274.37,679.388l0.005,-0.009c0.424,-0.559 0.29,-1.362 -0.297,-1.746c-2.403,-1.58 -8.58,-5.133 -15.996,-5.517c-0.696,-0.035 -1.28,0.523 -1.28,1.222c0,0.646 0.509,1.178 1.158,1.213c6.779,0.358 12.591,3.702 14.78,5.125c0.534,0.34 1.245,0.218 1.63,-0.288Z" style="fill:#7fbf43;fill-rule:nonzero;"/><path d="M720.881,218.659l435.255,0c14.123,0 25.572,11.449 25.572,25.572l-0,181.345c-0,14.123 -11.449,25.572 -25.572,25.572l-45.198,-0c2.623,19.963 6.057,48.599 4.173,48.599c-2.005,0 -23.94,-30.125 -37.203,-48.599l-357.027,-0c-14.125,-0 -25.579,-11.449 -25.579,-25.572l0,-181.345c0,-14.123 11.454,-25.572 25.579,-25.572Z" style="fill:#f78fbf;fill-rule:nonzero;"/><path d="M1033.33,335.546c-0,35.405 28.704,64.107 64.105,64.107c35.404,-0 64.106,-28.702 64.106,-64.107c-0,-35.405 -28.702,-64.105 -64.106,-64.105c-35.401,0 -64.105,28.7 -64.105,64.105Z" style="fill:#fff;fill-rule:nonzero;"/><rect x="1087.29" y="367.849" width="18.823" height="18.793" style="fill:#f7c29e;fill-rule:nonzero;"/><path d="M1087.29,379.116l-0,-11.268l18.823,-0l0,9.586c-4.052,2.174 -10.053,3.425 -18.823,1.682Z" style="fill:#f19a5e;fill-rule:nonzero;"/><path d="M1057.61,334.21c1.965,-0.968 4.242,-0.795 6.311,0.249c-0.707,-18.544 14.44,-34.142 33.516,-33.483c19.078,-0.659 34.225,14.939 33.516,33.483c2.065,-1.044 4.343,-1.217 6.307,-0.249c3.769,1.855 4.94,7.172 2.617,11.874c-2.324,4.703 -7.262,7.011 -11.031,5.155c-0.522,-0.257 -0.99,-0.587 -1.41,-0.968c-2.16,15.332 -14.969,26.825 -29.999,26.611c-15.026,0.214 -27.841,-11.279 -29.998,-26.611c-0.419,0.381 -0.89,0.711 -1.414,0.968c-3.762,1.856 -8.704,-0.452 -11.025,-5.155c-2.323,-4.702 -1.153,-10.019 2.61,-11.874Z" style="fill:#f7c29e;fill-rule:nonzero;"/><path d="M1120.36,293.628c0,0 -9.445,-7.996 -30.917,-6.704c-21.468,1.291 -25.562,12.496 -26.776,28.496l1.257,19.039c0,-0 5.57,-5.731 12.833,-21.625c0,-0 12.022,13.491 17.258,11.893c5.237,-1.599 -1.98,-11.312 -1.98,-11.312c0,0 24.494,21.076 38.921,21.044c-0,-0 7.634,-24.665 -3.082,-33.714c0,-0 8.072,0.386 8.5,-1.202c0.427,-1.588 -3.85,-3.963 -11.609,-3.066c-0,-0 5.529,-10.814 2.441,-11.939c-3.089,-1.126 -6.846,9.09 -6.846,9.09Z" style="fill:#050505;fill-rule:nonzero;"/><path d="M1085.12,356.116c0.828,3.716 5.084,6.639 10.3,6.798c5.216,0.159 9.644,-2.498 10.696,-6.157l-20.996,-0.641Z" style="fill:#fff;fill-rule:nonzero;"/><path d="M761.422,282.058l244.551,0c2.925,0 5.299,-2.371 5.299,-5.294l0,-0.552c0,-2.924 -2.374,-5.294 -5.299,-5.294l-244.551,0c-2.924,0 -5.299,2.37 -5.299,5.294l0,0.552c0,2.923 2.375,5.294 5.299,5.294Z" style="fill:#fff;fill-rule:nonzero;"/><path d="M956.309,311.452l49.664,-0c2.925,-0 5.299,-2.369 5.299,-5.294l0,-0.551c0,-2.923 -2.374,-5.295 -5.299,-5.295l-49.664,0c-2.925,0 -5.299,2.372 -5.299,5.295l-0,0.551c-0,2.925 2.374,5.294 5.299,5.294Z" style="fill:#fff;fill-rule:nonzero;"/><path d="M761.422,311.452l161.556,-0c2.925,-0 5.299,-2.369 5.299,-5.294l0,-0.551c0,-2.923 -2.374,-5.295 -5.299,-5.295l-161.556,0c-2.924,0 -5.299,2.372 -5.299,5.295l0,0.551c0,2.925 2.375,5.294 5.299,5.294Z" style="fill:#fff;fill-rule:nonzero;"/><path d="M884.758,340.847l121.215,0c2.925,0 5.299,-2.37 5.299,-5.294l0,-0.551c0,-2.925 -2.374,-5.295 -5.299,-5.295l-121.215,-0c-2.924,-0 -5.299,2.37 -5.299,5.295l0,0.551c0,2.924 2.375,5.294 5.299,5.294Z" style="fill:#fff;fill-rule:nonzero;"/><path d="M761.422,340.847l93.463,0c2.924,0 5.299,-2.37 5.299,-5.294l-0,-0.551c-0,-2.925 -2.375,-5.295 -5.299,-5.295l-93.463,-0c-2.924,-0 -5.299,2.37 -5.299,5.295l0,0.551c0,2.924 2.375,5.294 5.299,5.294Z" style="fill:#fff;fill-rule:nonzero;"/><path d="M761.422,370.242l244.551,-0c2.925,-0 5.299,-2.37 5.299,-5.295l0,-0.551c0,-2.923 -2.374,-5.295 -5.299,-5.295l-244.551,0c-2.924,0 -5.299,2.372 -5.299,5.295l0,0.551c0,2.925 2.375,5.295 5.299,5.295Z" style="fill:#fff;fill-rule:nonzero;"/><path d="M1094.41,671.216l75.291,0c2.925,0 5.295,-2.365 5.295,-5.29l-0,-0.55c-0,-2.924 -2.37,-5.299 -5.295,-5.299l-75.291,0c-2.925,0 -5.295,2.375 -5.295,5.299l0,0.55c0,2.925 2.37,5.29 5.295,5.29Z" style="fill:#fff;fill-rule:nonzero;"/><path d="M1122.28,700.61l47.422,0c2.925,0 5.295,-2.366 5.295,-5.29l-0,-0.55c-0,-2.925 -2.37,-5.299 -5.295,-5.299l-47.422,-0c-2.923,-0 -5.294,2.374 -5.294,5.299l-0,0.55c-0,2.924 2.371,5.29 5.294,5.29Z" style="fill:#fff;fill-rule:nonzero;"/><path d="M1040.88,700.61l60.802,0c2.924,0 5.294,-2.366 5.294,-5.29l-0,-0.55c-0,-2.925 -2.37,-5.299 -5.294,-5.299l-60.802,-0c-2.924,-0 -5.29,2.374 -5.29,5.299l-0,0.55c-0,2.924 2.366,5.29 5.29,5.29Z" style="fill:#fff;fill-rule:nonzero;"/><path d="M934.65,700.61l85.649,0c2.924,0 5.29,-2.366 5.29,-5.29l0,-0.55c0,-2.925 -2.366,-5.299 -5.29,-5.299l-85.649,-0c-2.925,-0 -5.29,2.374 -5.29,5.299l-0,0.55c-0,2.924 2.365,5.29 5.29,5.29Z" style="fill:#fff;fill-rule:nonzero;"/><path d="M934.65,671.216l134.938,0c2.924,0 5.29,-2.365 5.29,-5.29l0,-0.55c0,-2.924 -2.366,-5.299 -5.29,-5.299l-134.938,0c-2.925,0 -5.29,2.375 -5.29,5.299l-0,0.55c-0,2.925 2.365,5.29 5.29,5.29Z" style="fill:#fff;fill-rule:nonzero;"/><path d="M934.65,758.227l235.049,0c2.925,0 5.295,-2.365 5.295,-5.29l-0,-0.55c-0,-2.924 -2.37,-5.299 -5.295,-5.299l-235.049,0c-2.925,0 -5.29,2.375 -5.29,5.299l-0,0.55c-0,2.925 2.365,5.29 5.29,5.29Z" style="fill:#fff;fill-rule:nonzero;"/><path d="M1053.39,730.004l116.305,-0c2.925,-0 5.295,-2.366 5.295,-5.291l-0,-0.55c-0,-2.924 -2.37,-5.299 -5.295,-5.299l-116.305,0c-2.925,0 -5.299,2.375 -5.299,5.299l-0,0.55c-0,2.925 2.374,5.291 5.299,5.291Z" style="fill:#fff;fill-rule:nonzero;"/><path d="M934.65,730.004l89.595,-0c2.924,-0 5.29,-2.366 5.29,-5.291l0,-0.55c0,-2.924 -2.366,-5.299 -5.29,-5.299l-89.595,0c-2.925,0 -5.29,2.375 -5.29,5.299l-0,0.55c-0,2.925 2.365,5.291 5.29,5.291Z" style="fill:#fff;fill-rule:nonzero;"/><path d="M1550.72,682.819c6.265,-5.413 11.406,-7.971 11.458,-7.997l-1.599,-3.239c-0.226,0.114 -5.611,2.794 -12.222,8.503l2.363,2.733Z" style="fill:#bb628b;fill-rule:nonzero;"/><path d="M1528,729.209c0.327,-9.096 2.477,-17.704 6.393,-25.587l-3.238,-1.606c-4.146,8.345 -6.423,17.451 -6.766,27.062l3.611,0.131Zm11.06,52.834l3.192,-1.694l-0.102,-0.192c-4.583,-8.416 -8.107,-16.692 -10.466,-24.575l-3.464,1.03c2.432,8.128 6.052,16.64 10.761,25.291l0.079,0.14Zm25.635,48.232l3.25,-1.58c-3.511,-7.211 -7.511,-14.954 -12.586,-24.356l-3.181,1.711c5.05,9.367 9.027,17.067 12.517,24.225Zm19.559,50.599l3.495,-0.925c-2.233,-8.451 -5.067,-16.998 -8.667,-26.138l-3.364,1.327c3.549,9.009 6.34,17.425 8.536,25.736Zm8.661,53.846c0.389,-4.208 0.587,-8.529 0.587,-12.824c-0.001,-4.854 -0.254,-9.839 -0.752,-14.806l-3.597,0.358c0.486,4.854 0.733,9.716 0.734,14.448c-0,4.19 -0.193,8.389 -0.571,12.492l3.599,0.332Zm-15.765,52.711c4.339,-8.381 7.858,-16.98 10.456,-25.57l-3.459,-1.047c-2.535,8.38 -5.969,16.77 -10.207,24.95l3.21,1.667Zm-32.158,44.601c6.495,-6.975 12.408,-14.107 17.577,-21.187l-2.92,-2.13c-5.084,6.966 -10.906,13.985 -17.303,20.855l2.646,2.462Z" style="fill:#bb628b;fill-rule:nonzero;"/><path d="M1514.18,1060.72c3.809,-3.126 7.528,-6.303 11.052,-9.437l-2.405,-2.698c-3.488,3.108 -7.168,6.251 -10.939,9.341l2.292,2.794Z" style="fill:#bb628b;fill-rule:nonzero;"/><path d="M1574.53,621.657l4.784,58.228l33.819,-38.088l109.378,-89.583l-93.272,29.381c-0,0 -45.921,22.314 -48.028,25.256c-2.109,2.951 -6.681,14.806 -6.681,14.806Z" style="fill:#bb628b;fill-rule:nonzero;"/><path d="M1524.96,596.637l197.545,-44.423l-147.981,69.443l-49.564,-25.02Z" style="fill:#f78fbf;fill-rule:nonzero;"/><path d="M1650.5,664.774l-60.891,-30.38l132.9,-82.18l-72.009,112.56Z" style="fill:#f78fbf;fill-rule:nonzero;"/></g></svg>